<svg xmlns="http://www.w3.org/2000/svg" xmlns:xlink="http://www.w3.org/1999/xlink" width="860" zoomAndPan="magnify" viewBox="0 0 645 645.000003" height="860" preserveAspectRatio="xMidYMid meet" version="1.0"><defs><clipPath id="6f5ea6bac0"><path d="M 370.316406 362.050781 L 504.996094 362.050781 L 504.996094 592.417969 L 370.316406 592.417969 Z M 370.316406 362.050781 " clip-rule="nonzero"/></clipPath><clipPath id="3f6e7e7921"><path d="M 504 348 L 630 348 L 630 592.582031 L 504 592.582031 Z M 504 348 " clip-rule="nonzero"/></clipPath><clipPath id="f72ae893af"><path d="M 13.582031 346.074219 L 639.828125 346.074219 L 639.828125 379 L 13.582031 379 Z M 13.582031 346.074219 " clip-rule="nonzero"/></clipPath><clipPath id="e9895d619a"><path d="M 4.8125 69 L 203 69 L 203 204 L 4.8125 204 Z M 4.8125 69 " clip-rule="nonzero"/></clipPath><clipPath id="dfc60338b4"><path d="M 143 51.171875 L 304 51.171875 L 304 95 L 143 95 Z M 143 51.171875 " clip-rule="nonzero"/></clipPath></defs><path fill="#9e4f60" d="M 482.621094 572.722656 C 482.621094 583.199219 412.871094 591.6875 326.824219 591.6875 C 240.78125 591.6875 171.027344 583.199219 171.027344 572.722656 C 171.027344 562.25 240.78125 553.757812 326.824219 553.757812 C 412.871094 553.757812 482.621094 562.25 482.621094 572.722656 " fill-opacity="1" fill-rule="nonzero"/><path fill="#ffffff" d="M 323.480469 556.535156 C 329.492188 558.25 330.671875 556.855469 332.28125 554.386719 C 333.199219 552.988281 335.113281 551.65625 336.816406 550.742188 C 334.902344 548.066406 332.996094 537.648438 332.332031 535.867188 C 331.039062 532.433594 313.054688 532.230469 313.429688 539.089844 C 313.429688 539.089844 312.976562 546.769531 312.488281 547.285156 C 312.886719 547.335938 313.292969 547.445312 313.707031 547.621094 C 318.003906 549.445312 317.464844 554.816406 323.480469 556.535156 " fill-opacity="1" fill-rule="nonzero"/><path fill="#9c6f43" d="M 277.847656 575.433594 C 282.425781 575.933594 309.34375 572.425781 313.066406 571.78125 C 316.785156 571.136719 325.589844 567.484375 326.808594 566.914062 C 328.027344 566.34375 329.816406 566.628906 332.320312 566.554688 C 334.269531 566.5 340.941406 566.011719 343.804688 565.796875 C 342.527344 561.621094 340.921875 556.523438 340.550781 555.898438 C 340.242188 555.382812 338.589844 553.222656 336.816406 550.742188 C 335.113281 551.65625 333.199219 552.988281 332.28125 554.386719 C 330.671875 556.855469 329.492188 558.25 323.480469 556.535156 C 317.464844 554.816406 318.003906 549.445312 313.707031 547.621094 C 313.292969 547.445312 312.886719 547.335938 312.488281 547.285156 C 310.515625 549.371094 305.484375 554.707031 304.796875 555.566406 C 303.96875 556.601562 286.308594 563.722656 275.800781 570.191406 C 277.707031 571.007812 273.871094 574.996094 277.847656 575.433594 " fill-opacity="1" fill-rule="nonzero"/><path fill="#2e2e47" d="M 343.804688 565.796875 C 340.941406 566.011719 334.269531 566.5 332.320312 566.554688 C 329.816406 566.628906 328.027344 566.34375 326.808594 566.914062 C 325.589844 567.484375 316.785156 571.136719 313.066406 571.78125 C 309.34375 572.425781 282.425781 575.933594 277.847656 575.433594 C 273.871094 574.996094 277.707031 571.007812 275.800781 570.191406 C 275.398438 570.4375 275.003906 570.6875 274.625 570.933594 C 270.820312 573.390625 267.917969 580.167969 287.914062 578.019531 C 307.910156 575.875 328.527344 573.296875 328.527344 573.296875 L 328.527344 569.644531 L 331.175781 573.285156 L 345.492188 571.363281 C 345.492188 571.363281 344.730469 568.820312 343.804688 565.796875 " fill-opacity="1" fill-rule="nonzero"/><path fill="#ffffff" d="M 385.304688 561.9375 C 391.316406 563.652344 392.5 562.253906 394.109375 559.785156 C 395.019531 558.386719 396.9375 557.054688 398.640625 556.144531 C 396.726562 553.464844 394.820312 543.050781 394.152344 541.269531 C 392.863281 537.832031 374.878906 537.628906 375.253906 544.488281 C 375.253906 544.488281 374.800781 552.167969 374.3125 552.683594 C 374.710938 552.738281 375.117188 552.847656 375.53125 553.019531 C 379.828125 554.847656 379.289062 560.214844 385.304688 561.9375 " fill-opacity="1" fill-rule="nonzero"/><path fill="#9c6f43" d="M 339.671875 580.832031 C 344.25 581.332031 371.167969 577.824219 374.886719 577.183594 C 378.613281 576.539062 387.414062 572.886719 388.628906 572.316406 C 389.847656 571.742188 391.636719 572.027344 394.144531 571.957031 C 396.09375 571.898438 402.761719 571.410156 405.628906 571.199219 C 404.351562 567.023438 402.75 561.921875 402.378906 561.300781 C 402.066406 560.78125 400.414062 558.625 398.640625 556.144531 C 396.9375 557.054688 395.019531 558.386719 394.109375 559.785156 C 392.5 562.253906 391.316406 563.652344 385.304688 561.9375 C 379.289062 560.214844 379.828125 554.847656 375.53125 553.019531 C 375.117188 552.847656 374.710938 552.738281 374.3125 552.683594 C 372.339844 554.773438 367.308594 560.105469 366.621094 560.96875 C 365.792969 562 348.132812 569.121094 337.621094 575.589844 C 339.53125 576.410156 335.695312 580.398438 339.671875 580.832031 " fill-opacity="1" fill-rule="nonzero"/><path fill="#2e2e47" d="M 405.628906 571.199219 C 402.761719 571.410156 396.09375 571.898438 394.144531 571.957031 C 391.636719 572.027344 389.847656 571.742188 388.628906 572.316406 C 387.414062 572.886719 378.613281 576.539062 374.886719 577.183594 C 371.167969 577.824219 344.25 581.332031 339.671875 580.832031 C 335.695312 580.398438 339.53125 576.410156 337.621094 575.589844 C 337.222656 575.839844 336.828125 576.085938 336.449219 576.335938 C 332.644531 578.789062 329.742188 585.570312 349.738281 583.421875 C 369.734375 581.273438 390.351562 578.695312 390.351562 578.695312 L 390.351562 575.042969 L 392.996094 578.6875 L 407.3125 576.765625 C 407.3125 576.765625 406.554688 574.21875 405.628906 571.199219 " fill-opacity="1" fill-rule="nonzero"/><path fill="#ffe2bd" d="M 293.5 343.773438 C 293.445312 341.363281 289.472656 336.367188 297.332031 332.289062 C 321.1875 319.910156 378.6875 304.667969 378.6875 304.667969 C 378.6875 304.667969 377.824219 220.226562 384.808594 209.128906 C 396.398438 190.734375 407.578125 209.082031 414.789062 231.726562 C 419.523438 246.589844 430.09375 297.070312 416.175781 327.039062 C 399.757812 362.390625 293.699219 352.492188 293.5 343.773438 " fill-opacity="1" fill-rule="nonzero"/><path fill="#9c6f43" d="M 416.164062 146.613281 C 416.164062 146.613281 421.046875 168.488281 413.828125 171.195312 C 402.238281 175.542969 402.175781 148.972656 403.914062 146.292969 C 405.652344 143.613281 414 144.203125 416.164062 146.613281 " fill-opacity="1" fill-rule="nonzero"/><path fill="#cc8b70" d="M 492.5 424.550781 C 492.5 424.550781 478.003906 571.746094 473.644531 570.476562 C 472.289062 570.082031 469.597656 570.21875 468.949219 566.863281 C 463.613281 539.21875 481.621094 421.375 481.621094 421.375 L 492.5 424.550781 " fill-opacity="1" fill-rule="nonzero"/><path fill="#cc8b70" d="M 518.332031 423.539062 C 518.332031 423.539062 553.257812 566.132812 548.800781 566.851562 C 547.417969 567.070312 544.972656 568.367188 543.269531 565.539062 C 529.253906 542.265625 507.222656 425.328125 507.222656 425.328125 L 518.332031 423.539062 " fill-opacity="1" fill-rule="nonzero"/><path fill="#cc8b70" d="M 405.085938 424.550781 C 405.085938 424.550781 390.589844 571.746094 386.230469 570.476562 C 384.875 570.082031 382.1875 570.21875 381.539062 566.863281 C 376.199219 539.21875 394.210938 421.375 394.210938 421.375 L 405.085938 424.550781 " fill-opacity="1" fill-rule="nonzero"/><path fill="#cc8b70" d="M 430.917969 423.539062 C 430.917969 423.539062 465.847656 566.132812 461.394531 566.847656 C 460.011719 567.070312 457.5625 568.367188 455.859375 565.539062 C 441.839844 542.265625 419.808594 425.328125 419.808594 425.328125 L 430.917969 423.539062 " fill-opacity="1" fill-rule="nonzero"/><path fill="#82a7af" d="M 547.511719 327.855469 C 547.511719 327.855469 548.617188 255.546875 507.996094 244.679688 C 467.375 233.808594 436.839844 321.269531 427.191406 328.46875 C 417.542969 335.664062 370.3125 335.535156 363.566406 356.839844 C 356.816406 378.148438 355.410156 415.289062 390.433594 425.648438 C 425.460938 436.007812 512.875 441.085938 534.488281 420.496094 C 556.105469 399.90625 547.511719 327.855469 547.511719 327.855469 " fill-opacity="1" fill-rule="nonzero"/><path fill="#2e2e47" d="M 479.144531 365.710938 C 479.144531 365.710938 479.011719 369.957031 477.992188 374.871094 C 476.574219 381.691406 471.792969 387.363281 465.289062 389.867188 C 460.511719 391.710938 355.039062 404.609375 355.039062 404.609375 C 355.039062 404.609375 352.75 529.132812 348.375 534.847656 C 343.996094 540.558594 315.445312 547.691406 311.703125 539.199219 C 307.960938 530.710938 305.039062 419.921875 304.847656 411.21875 C 304.425781 392.074219 307.878906 366.6875 331.664062 358.457031 C 342.191406 354.816406 368.363281 356.003906 405.085938 339.210938 C 421.089844 331.890625 479.144531 365.710938 479.144531 365.710938 " fill-opacity="1" fill-rule="nonzero"/><path fill="#2e2e47" d="M 501.347656 361.53125 C 501.347656 361.53125 501.476562 374.65625 501.320312 379.667969 C 501.105469 386.632812 497.425781 393.132812 491.40625 396.636719 C 447.890625 421.964844 413.96875 405.75 405.714844 412.167969 C 402.226562 414.882812 402.710938 541.035156 399.390625 547.417969 C 396.066406 553.800781 374.210938 557.1875 369.058594 549.476562 C 363.902344 541.761719 351.050781 452.367188 351.050781 435.757812 C 351.050781 416.863281 342.457031 389.316406 364.457031 377.09375 C 374.195312 371.6875 393.796875 368.152344 413.28125 357.152344 C 420.265625 353.207031 426.90625 342.390625 441.011719 341.027344 C 458.527344 339.332031 501.347656 361.53125 501.347656 361.53125 " fill-opacity="1" fill-rule="nonzero"/><path fill="#ffc97d" d="M 385.324219 275.820312 C 383.1875 257.75 368.019531 195.542969 406.957031 186.042969 C 439.316406 178.144531 462.203125 196.882812 478.230469 226.988281 C 538.695312 340.546875 497.972656 397.539062 497.972656 397.539062 C 497.972656 397.539062 462.585938 387.335938 412.238281 361.539062 C 406.550781 358.625 411.335938 345.945312 411.335938 345.945312 C 411.335938 345.945312 398.175781 357.011719 396.4375 356.40625 C 385.910156 352.742188 375.648438 353.261719 379.023438 347.84375 C 395.664062 321.113281 387.730469 296.148438 385.324219 275.820312 " fill-opacity="1" fill-rule="nonzero"/><path fill="#2e2e47" d="M 482.964844 248.046875 C 482.964844 248.046875 498.929688 275.859375 499.878906 299.09375 C 501.398438 336.449219 488.515625 343.398438 479.144531 348.066406 C 469.769531 352.738281 449.773438 348.066406 449.773438 348.066406 C 449.773438 348.066406 475.972656 322.859375 481.488281 312.058594 C 487.003906 301.253906 482.964844 248.046875 482.964844 248.046875 " fill-opacity="1" fill-rule="nonzero"/><path fill="#ffa982" d="M 50.816406 591.65625 L 37.488281 591.65625 L 37.488281 375.609375 L 50.816406 375.609375 L 50.816406 591.65625 " fill-opacity="1" fill-rule="nonzero"/><path fill="#cc8b70" d="M 60.085938 586.371094 L 50.816406 591.65625 L 50.816406 375.609375 L 60.085938 375.609375 L 60.085938 586.371094 " fill-opacity="1" fill-rule="nonzero"/><path fill="#ffa982" d="M 141.363281 560.242188 L 128.035156 560.242188 L 128.035156 352.164062 L 141.363281 352.164062 L 141.363281 560.242188 " fill-opacity="1" fill-rule="nonzero"/><path fill="#cc8b70" d="M 150.632812 555.234375 L 141.363281 560.242188 L 141.363281 352.164062 L 150.632812 352.164062 L 150.632812 555.234375 " fill-opacity="1" fill-rule="nonzero"/><g clip-path="url(#6f5ea6bac0)"><path fill="#eae6e4" d="M 370.546875 377.269531 L 370.511719 590.507812 L 370.523438 590.503906 C 370.613281 591.496094 371.375 592.417969 372.59375 592.417969 L 503.304688 592.417969 C 503.804688 592.417969 504.300781 592.347656 504.777344 592.210938 L 504.777344 362.117188 L 370.546875 377.269531 " fill-opacity="1" fill-rule="nonzero"/></g><g clip-path="url(#3f6e7e7921)"><path fill="#d3cdcb" d="M 629.210938 561.460938 L 629.210938 348.070312 L 504.777344 362.117188 L 504.777344 592.210938 C 505.21875 592.089844 505.648438 591.914062 506.042969 591.683594 L 628.21875 563.675781 C 629.089844 563.171875 629.375 562.269531 629.210938 561.460938 " fill-opacity="1" fill-rule="nonzero"/></g><path fill="#2e2e47" d="M 370.546875 377.269531 L 370.542969 382.503906 L 514.125 382.503906 L 629.210938 355.632812 L 629.210938 348.066406 L 504.78125 362.117188 L 370.546875 377.269531 " fill-opacity="1" fill-rule="nonzero"/><g clip-path="url(#f72ae893af)"><path fill="#eae6e4" d="M 513.878906 378.976562 L 15.800781 378.976562 C 13.675781 378.976562 12.921875 376.160156 14.765625 375.101562 L 136.9375 347.09375 C 137.769531 346.613281 138.714844 346.359375 139.679688 346.359375 L 637.753906 346.359375 C 639.878906 346.359375 640.632812 349.175781 638.789062 350.234375 L 516.621094 378.242188 C 515.789062 378.722656 514.839844 378.976562 513.878906 378.976562 " fill-opacity="1" fill-rule="nonzero"/></g><path fill="#2e2e47" d="M 394.460938 355.859375 L 209.335938 355.859375 L 230.964844 346.359375 L 416.09375 346.359375 L 394.460938 355.859375 " fill-opacity="1" fill-rule="nonzero"/><path fill="#2e2e47" d="M 224.980469 318.851562 L 79.324219 312.261719 C 78.03125 312.261719 76.972656 311.207031 76.972656 309.914062 L 64.667969 226.542969 C 64.667969 225.253906 65.722656 224.195312 67.015625 224.195312 L 212.675781 230.785156 C 213.96875 230.785156 215.023438 231.839844 215.023438 233.136719 L 227.332031 316.5 C 227.332031 317.792969 226.273438 318.851562 224.980469 318.851562 " fill-opacity="1" fill-rule="nonzero"/><path fill="#464660" d="M 173.40625 360.738281 C 173.40625 364.761719 157.40625 368.023438 137.664062 368.023438 C 117.921875 368.023438 101.921875 364.761719 101.921875 360.738281 C 101.921875 356.714844 117.921875 353.453125 137.664062 353.453125 C 157.40625 353.453125 173.40625 356.714844 173.40625 360.738281 " fill-opacity="1" fill-rule="nonzero"/><path fill="#464660" d="M 125.878906 265.710938 L 143.582031 266.703125 C 144.757812 266.765625 145.625 267.832031 145.445312 268.996094 L 134.027344 344.695312 L 138.839844 362.597656 L 114.226562 361.480469 L 112.78125 350.710938 C 112.109375 345.683594 112.167969 340.585938 112.964844 335.574219 L 123.792969 267.390625 C 123.953125 266.378906 124.855469 265.652344 125.878906 265.710938 " fill-opacity="1" fill-rule="nonzero"/><path fill="#2e2e47" d="M 407.242188 317.773438 L 248.40625 317.773438 C 246.972656 317.773438 245.800781 316.742188 245.800781 315.484375 L 237.210938 234.210938 C 237.210938 232.953125 238.382812 231.921875 239.816406 231.921875 L 398.652344 231.921875 C 400.085938 231.921875 401.257812 232.953125 401.257812 234.210938 L 409.847656 315.484375 C 409.847656 316.742188 408.675781 317.773438 407.242188 317.773438 " fill-opacity="1" fill-rule="nonzero"/><path fill="#464660" d="M 327.199219 277.386719 L 311.714844 277.386719 L 318.96875 363.007812 L 334.457031 363.007812 L 327.199219 277.386719 " fill-opacity="1" fill-rule="nonzero"/><path fill="#464660" d="M 308.222656 281.179688 C 308.222656 287.386719 313.253906 292.414062 319.457031 292.414062 C 325.664062 292.414062 330.6875 287.386719 330.6875 281.179688 C 330.6875 274.976562 325.664062 269.945312 319.457031 269.945312 C 313.253906 269.945312 308.222656 274.976562 308.222656 281.179688 " fill-opacity="1" fill-rule="nonzero"/><path fill="#464660" d="M 293.398438 364.160156 C 293.605469 366.292969 308.738281 368.023438 327.199219 368.023438 C 345.664062 368.023438 360.457031 366.292969 360.25 364.160156 C 360.046875 362.023438 344.910156 360.292969 326.449219 360.292969 C 307.984375 360.292969 293.1875 362.023438 293.398438 364.160156 " fill-opacity="1" fill-rule="nonzero"/><path fill="#ffe2bd" d="M 412.167969 166.855469 C 412.167969 166.855469 416.089844 180.414062 421.101562 186.21875 C 424.035156 189.613281 413.316406 201.171875 406.632812 203.261719 C 399.953125 205.359375 402.191406 191.765625 402.042969 188.433594 C 401.894531 185.101562 399.710938 175.894531 399.804688 174.417969 C 399.894531 172.941406 409.757812 165.535156 412.167969 166.855469 " fill-opacity="1" fill-rule="nonzero"/><path fill="#ffc97d" d="M 406.605469 196.898438 L 400.589844 189.765625 L 397.785156 196.195312 L 402.539062 206.941406 L 407.707031 202.863281 C 407.707031 202.863281 414.359375 205.140625 414.460938 205.046875 C 414.5625 204.953125 422.050781 194.5 423.605469 189.511719 C 425.160156 184.523438 419.257812 181.800781 419.257812 181.800781 L 406.605469 196.898438 " fill-opacity="1" fill-rule="nonzero"/><path fill="#ffe2bd" d="M 376.800781 146.960938 C 376.800781 146.960938 376.050781 158.65625 375.820312 162.214844 C 375.589844 165.773438 374.683594 169.289062 375.023438 174.589844 C 375.359375 179.886719 378.34375 189.101562 388.183594 189.566406 C 398.023438 190.027344 407.867188 182.492188 409.757812 176.996094 C 411.640625 171.503906 411.117188 169.085938 411.117188 169.085938 C 411.117188 169.085938 414.167969 169.28125 415.617188 165.292969 C 417.0625 161.300781 418.605469 156.027344 415.054688 155.628906 C 411.507812 155.226562 410.867188 157.15625 410.027344 156.933594 C 409.1875 156.707031 405.375 147.269531 400.851562 146.128906 C 396.332031 144.984375 379.34375 141.847656 376.800781 146.960938 " fill-opacity="1" fill-rule="nonzero"/><path fill="#2e2e47" d="M 395.945312 157.128906 C 395.867188 157.128906 395.785156 157.109375 395.710938 157.070312 C 395.679688 157.054688 393.121094 155.667969 391.300781 155.457031 C 389.660156 155.269531 388.671875 156.375 388.628906 156.421875 C 388.445312 156.628906 388.128906 156.652344 387.921875 156.46875 C 387.714844 156.289062 387.691406 155.972656 387.871094 155.765625 C 387.925781 155.703125 389.234375 154.214844 391.414062 154.460938 C 393.429688 154.695312 396.074219 156.128906 396.1875 156.191406 C 396.429688 156.320312 396.519531 156.625 396.386719 156.871094 C 396.296875 157.035156 396.125 157.128906 395.945312 157.128906 " fill-opacity="1" fill-rule="nonzero"/><path fill="#9c6f43" d="M 405.996094 159.628906 C 405.996094 159.628906 403.246094 167.136719 401.683594 169.328125 C 400.125 171.519531 398.210938 173.488281 396.40625 172.640625 C 390.203125 169.730469 386.480469 169.101562 384.171875 169.613281 C 381.859375 170.132812 375.242188 174.625 375.132812 175.738281 C 375.023438 176.851562 376.1875 187.507812 378.5 191.007812 C 380.808594 194.503906 389.398438 195.570312 394.027344 195.070312 C 398.65625 194.5625 404.890625 191.070312 407.277344 188.636719 C 411.414062 184.414062 411.226562 180.015625 411.09375 177.125 C 410.917969 173.179688 411.445312 168.539062 409.875 165.597656 C 408.304688 162.65625 409.710938 159.085938 408.757812 158.554688 C 407.804688 158.023438 406.511719 157.980469 405.996094 159.628906 " fill-opacity="1" fill-rule="nonzero"/><path fill="#ffa982" d="M 397.839844 168.242188 C 397.761719 169.433594 395.867188 170.28125 393.605469 170.132812 C 391.34375 169.988281 389.570312 168.902344 389.648438 167.710938 C 389.722656 166.519531 391.621094 165.671875 393.882812 165.820312 C 396.144531 165.960938 397.917969 167.050781 397.839844 168.242188 " fill-opacity="1" fill-rule="nonzero"/><path fill="#ffa982" d="M 378.769531 167.917969 C 378.691406 169.109375 377.535156 170.007812 376.1875 169.917969 C 374.839844 169.835938 373.808594 168.796875 373.886719 167.605469 C 373.964844 166.410156 375.117188 165.515625 376.464844 165.601562 C 377.8125 165.691406 378.84375 166.726562 378.769531 167.917969 " fill-opacity="1" fill-rule="nonzero"/><path fill="#2e2e47" d="M 396.152344 161.101562 C 396.121094 161.101562 392.460938 161.097656 389.347656 160.976562 C 389.070312 160.964844 388.855469 160.730469 388.867188 160.457031 C 388.878906 160.175781 389.105469 159.96875 389.386719 159.972656 C 392.480469 160.097656 396.121094 160.097656 396.152344 160.097656 C 396.433594 160.097656 396.65625 160.320312 396.65625 160.601562 C 396.65625 160.875 396.433594 161.101562 396.152344 161.101562 " fill-opacity="1" fill-rule="nonzero"/><path fill="#2e2e47" d="M 375.941406 162.339844 C 375.703125 162.339844 375.488281 162.167969 375.445312 161.925781 C 375.398438 161.652344 375.582031 161.390625 375.851562 161.347656 C 377.980469 160.964844 381.097656 161.027344 381.234375 161.03125 C 381.507812 161.039062 381.726562 161.269531 381.722656 161.546875 C 381.714844 161.820312 381.484375 162.058594 381.207031 162.035156 C 381.175781 162.035156 378.058594 161.96875 376.027344 162.332031 C 376 162.339844 375.96875 162.339844 375.941406 162.339844 " fill-opacity="1" fill-rule="nonzero"/><path fill="#9c6f43" d="M 412.554688 154.601562 C 412.554688 154.601562 410.128906 161.550781 407.128906 162.285156 C 404.125 163.023438 403.773438 152.285156 403.277344 150.28125 C 402.785156 148.273438 400.851562 146.128906 400.851562 146.128906 C 400.851562 146.128906 415.742188 145.453125 412.554688 154.601562 " fill-opacity="1" fill-rule="nonzero"/><path fill="#ffe2bd" d="M 382.210938 164.730469 C 382.210938 164.730469 380.363281 167.546875 381.296875 169.125 C 382.230469 170.703125 384.785156 171.070312 386.519531 170.332031 C 388.253906 169.589844 388.882812 169.121094 389.144531 168.25 C 389.40625 167.375 387.199219 161.457031 382.210938 164.730469 " fill-opacity="1" fill-rule="nonzero"/><path fill="#2e2e47" d="M 384.96875 171.308594 C 384.191406 171.308594 383.34375 171.128906 382.429688 170.683594 C 381.433594 170.199219 380.808594 169.523438 380.578125 168.683594 C 380.261719 167.527344 380.6875 166.121094 381.917969 164.261719 C 383.386719 162.039062 382.410156 159.410156 381.125 157.835938 C 379.800781 156.214844 376.371094 157.617188 376.335938 157.632812 C 376.082031 157.738281 375.789062 157.617188 375.683594 157.363281 C 375.578125 157.109375 375.695312 156.816406 375.949219 156.710938 C 376.117188 156.636719 380.105469 155.003906 381.902344 157.203125 C 383.402344 159.035156 384.523438 162.136719 382.753906 164.8125 C 381.710938 166.394531 381.316406 167.578125 381.546875 168.421875 C 381.699219 168.976562 382.132812 169.421875 382.867188 169.78125 C 385.761719 171.1875 387.882812 169.390625 388.679688 168.105469 C 388.824219 167.871094 389.132812 167.800781 389.367188 167.945312 C 389.601562 168.089844 389.675781 168.398438 389.53125 168.632812 C 388.808594 169.800781 387.195312 171.308594 384.96875 171.308594 " fill-opacity="1" fill-rule="nonzero"/><path fill="#fa634b" d="M 375.644531 148.476562 C 375.644531 148.476562 393.5625 146.609375 401.773438 150.207031 C 409.984375 153.804688 417.71875 160.453125 418.210938 159.613281 C 418.703125 158.773438 419.113281 143.039062 418.230469 141.535156 C 418.003906 141.144531 417.714844 140.828125 417.414062 140.570312 C 416.152344 139.5 416.175781 136.71875 415.878906 135.089844 C 415.097656 130.816406 412.53125 125.230469 411.574219 124.640625 C 408.015625 122.449219 402.191406 122.558594 400.851562 122.382812 C 399.519531 122.207031 395.5625 120.40625 392.800781 122.0625 C 386.304688 125.96875 384.738281 133.160156 383.773438 133.355469 C 383.539062 133.402344 374.289062 137.742188 375.644531 148.476562 " fill-opacity="1" fill-rule="nonzero"/><path fill="#2e2e47" d="M 394.195312 160.523438 C 394.195312 160.523438 395.289062 163.546875 392.378906 163.898438 C 389.46875 164.25 389.808594 161.234375 390.613281 160.667969 C 391.421875 160.101562 393.761719 160.191406 394.195312 160.523438 " fill-opacity="1" fill-rule="nonzero"/><path fill="#2e2e47" d="M 379.636719 162.027344 C 379.636719 162.027344 380.609375 165.074219 378.550781 165.234375 C 376.492188 165.394531 376.542969 162.445312 377.082031 161.9375 C 377.621094 161.429688 379.304688 161.667969 379.636719 162.027344 " fill-opacity="1" fill-rule="nonzero"/><path fill="#2e2e47" d="M 400.921875 206.863281 C 400.722656 206.863281 400.53125 206.835938 400.339844 206.785156 C 397.402344 205.976562 397.277344 197.820312 397.285156 196.191406 C 397.285156 195.917969 397.511719 195.695312 397.785156 195.695312 C 398.066406 195.695312 398.289062 195.921875 398.289062 196.195312 C 398.277344 199.667969 398.898438 205.34375 400.605469 205.820312 C 402.308594 206.289062 405.078125 202.734375 406.429688 200.382812 L 406.703125 199.910156 L 407.152344 200.222656 C 407.203125 200.257812 412.609375 203.964844 415.289062 204.464844 C 417.441406 204.875 421.71875 196.445312 423.214844 191.730469 C 424.402344 187.988281 422.902344 185.183594 422.886719 185.15625 C 422.75 184.914062 422.839844 184.609375 423.082031 184.476562 C 423.324219 184.339844 423.628906 184.429688 423.761719 184.667969 C 423.835938 184.796875 425.496094 187.859375 424.171875 192.03125 C 423.464844 194.25 418.804688 206.140625 415.109375 205.453125 C 412.660156 204.996094 408.410156 202.265625 407.023438 201.34375 C 406.125 202.816406 403.414062 206.859375 400.921875 206.863281 " fill-opacity="1" fill-rule="nonzero"/><path fill="#ffffff" d="M 379.867188 173.835938 C 379.867188 173.835938 386.097656 173.835938 391.429688 173.835938 C 391.429688 173.835938 388.789062 176.632812 385.992188 177.121094 C 383.191406 177.605469 380.960938 175.179688 379.867188 173.835938 " fill-opacity="1" fill-rule="nonzero"/><path fill="#ffe2bd" d="M 384.664062 336.6875 C 384.664062 336.6875 367.519531 336.105469 358.160156 336.765625 C 355.429688 336.960938 340.347656 345.15625 340.648438 346.523438 C 340.949219 347.894531 347.28125 346.214844 347.28125 346.214844 C 347.28125 346.214844 339.695312 350.527344 339.84375 351.292969 C 339.992188 352.058594 342.804688 351.921875 342.804688 351.921875 C 342.804688 351.921875 340.6875 353.621094 341.460938 354.339844 C 342.238281 355.058594 356.699219 350.972656 357.449219 351.125 C 358.199219 351.28125 354.269531 352.613281 353.316406 353.097656 C 352.359375 353.585938 349.183594 354.335938 349.410156 355.730469 C 349.636719 357.125 361.53125 353.265625 364.222656 353.007812 C 366.914062 352.746094 369.230469 355.957031 377.148438 354.90625 C 382.476562 354.199219 390.113281 349.035156 389.773438 343.675781 C 389.4375 338.316406 384.664062 336.6875 384.664062 336.6875 " fill-opacity="1" fill-rule="nonzero"/><path fill="#ffe2bd" d="M 301.882812 332.289062 C 301.882812 332.289062 291.015625 334.15625 289.367188 333.871094 C 287.722656 333.585938 280.011719 332.242188 277.566406 332.664062 C 275.125 333.089844 270.691406 335.355469 268.46875 336.300781 C 266.242188 337.246094 263.992188 339.039062 264.148438 339.550781 C 264.300781 340.0625 266.265625 339.917969 266.265625 339.917969 C 266.265625 339.917969 262.757812 341.730469 263.535156 342.957031 C 264.3125 344.183594 265.847656 343.722656 266.496094 343.472656 C 267.144531 343.222656 276.101562 342.960938 276.101562 342.960938 C 276.101562 342.960938 269.226562 345.886719 266.601562 348.460938 C 263.972656 351.03125 264.558594 353.234375 266.402344 352.382812 C 268.246094 351.53125 279.109375 347.238281 280.179688 347.183594 C 281.25 347.125 288.660156 347.441406 289.171875 347.773438 C 289.683594 348.105469 277.972656 351.109375 276.730469 352.402344 C 275.488281 353.691406 274.449219 355.640625 275.683594 355.488281 C 276.917969 355.339844 288.1875 352.691406 291.253906 353.105469 C 294.320312 353.515625 306.332031 347.84375 306.503906 342.664062 C 306.675781 337.484375 301.882812 332.289062 301.882812 332.289062 " fill-opacity="1" fill-rule="nonzero"/><path fill="#ffe2bd" d="M 449.234375 297.40625 C 450.117188 302.976562 450.695312 306.386719 450.695312 306.386719 C 450.695312 306.386719 434.179688 312.777344 414.203125 320.199219 C 391.980469 328.453125 367.347656 346.53125 367.347656 346.53125 C 364.75 354.855469 471.765625 364.109375 488.183594 328.757812 C 492.90625 318.59375 493.167969 305.570312 491.28125 292.214844 C 475.132812 299.148438 458.078125 298.457031 449.234375 297.40625 " fill-opacity="1" fill-rule="nonzero"/><path fill="#ffc97d" d="M 494.589844 292.414062 C 490.90625 266.390625 479.648438 238.859375 475.746094 229.3125 C 465.175781 203.480469 454.195312 188.082031 442.605469 206.480469 C 436.984375 215.402344 442.953125 277.261719 446.558594 300.105469 C 455.398438 301.15625 478.445312 299.347656 494.589844 292.414062 " fill-opacity="1" fill-rule="nonzero"/><path fill="#2e2e47" d="M 445.746094 295.097656 C 445.472656 295.097656 445.25 294.878906 445.246094 294.605469 C 445.242188 294.328125 445.460938 294.101562 445.738281 294.09375 C 445.960938 294.089844 468.277344 293.601562 479.027344 291.039062 C 489.667969 288.5 493.230469 285.824219 493.269531 285.796875 C 493.484375 285.628906 493.800781 285.667969 493.96875 285.886719 C 494.140625 286.105469 494.097656 286.417969 493.882812 286.589844 C 493.734375 286.703125 490.164062 289.410156 479.257812 292.011719 C 468.402344 294.597656 445.984375 295.089844 445.757812 295.097656 C 445.753906 295.097656 445.75 295.097656 445.746094 295.097656 " fill-opacity="1" fill-rule="nonzero"/><path fill="#2e2e47" d="M 477.8125 308.574219 C 477.765625 308.574219 477.714844 308.566406 477.664062 308.550781 C 465.0625 304.652344 450.914062 306.859375 450.773438 306.882812 C 450.5 306.925781 450.246094 306.742188 450.199219 306.464844 C 450.15625 306.195312 450.339844 305.9375 450.613281 305.894531 C 450.757812 305.871094 465.128906 303.621094 477.960938 307.59375 C 478.226562 307.675781 478.371094 307.957031 478.289062 308.222656 C 478.226562 308.4375 478.027344 308.574219 477.8125 308.574219 " fill-opacity="1" fill-rule="nonzero"/><path fill="#2e2e47" d="M 446.558594 300.605469 C 446.335938 300.605469 446.132812 300.457031 446.074219 300.230469 C 436.964844 265.164062 440.609375 211.75 440.648438 211.214844 C 440.667969 210.9375 440.902344 210.734375 441.183594 210.753906 C 441.457031 210.769531 441.664062 211.011719 441.644531 211.289062 C 441.609375 211.820312 437.976562 265.070312 447.042969 299.980469 C 447.113281 300.246094 446.953125 300.519531 446.683594 300.589844 C 446.644531 300.601562 446.597656 300.605469 446.558594 300.605469 " fill-opacity="1" fill-rule="nonzero"/><path fill="#2e2e47" d="M 416.90625 140.445312 C 416.832031 140.445312 416.757812 140.429688 416.683594 140.390625 C 406.933594 135.550781 394.1875 134.898438 394.058594 134.894531 C 393.785156 134.882812 393.570312 134.648438 393.582031 134.371094 C 393.59375 134.089844 393.835938 133.890625 394.105469 133.890625 C 394.238281 133.898438 407.1875 134.558594 417.128906 139.496094 C 417.378906 139.617188 417.480469 139.917969 417.359375 140.164062 C 417.269531 140.339844 417.089844 140.445312 416.90625 140.445312 " fill-opacity="1" fill-rule="nonzero"/><path fill="#ffffff" d="M 459.476562 231.667969 C 459.476562 233.046875 458.355469 234.167969 456.972656 234.167969 C 455.589844 234.167969 454.472656 233.046875 454.472656 231.667969 C 454.472656 230.28125 455.589844 229.160156 456.972656 229.160156 C 458.355469 229.160156 459.476562 230.28125 459.476562 231.667969 " fill-opacity="1" fill-rule="nonzero"/><path fill="#ffffff" d="M 476.023438 256.71875 C 476.023438 258.101562 474.902344 259.222656 473.523438 259.222656 C 472.140625 259.222656 471.019531 258.101562 471.019531 256.71875 C 471.019531 255.332031 472.140625 254.214844 473.523438 254.214844 C 474.902344 254.214844 476.023438 255.332031 476.023438 256.71875 " fill-opacity="1" fill-rule="nonzero"/><path fill="#ffffff" d="M 459.476562 248.046875 C 459.476562 249.425781 458.355469 250.546875 456.972656 250.546875 C 455.589844 250.546875 454.472656 249.425781 454.472656 248.046875 C 454.472656 246.664062 455.589844 245.542969 456.972656 245.542969 C 458.355469 245.542969 459.476562 246.664062 459.476562 248.046875 " fill-opacity="1" fill-rule="nonzero"/><path fill="#ffffff" d="M 419.730469 239.058594 C 419.730469 240.441406 418.609375 241.5625 417.226562 241.5625 C 415.84375 241.5625 414.722656 240.441406 414.722656 239.058594 C 414.722656 237.675781 415.84375 236.554688 417.226562 236.554688 C 418.609375 236.554688 419.730469 237.675781 419.730469 239.058594 " fill-opacity="1" fill-rule="nonzero"/><path fill="#ffffff" d="M 393.109375 216.664062 C 393.109375 218.046875 391.988281 219.167969 390.605469 219.167969 C 389.222656 219.167969 388.101562 218.046875 388.101562 216.664062 C 388.101562 215.28125 389.222656 214.160156 390.605469 214.160156 C 391.988281 214.160156 393.109375 215.28125 393.109375 216.664062 " fill-opacity="1" fill-rule="nonzero"/><path fill="#ffffff" d="M 426.679688 277.386719 C 426.679688 278.769531 425.558594 279.890625 424.175781 279.890625 C 422.796875 279.890625 421.671875 278.769531 421.671875 277.386719 C 421.671875 276.003906 422.796875 274.886719 424.175781 274.886719 C 425.558594 274.886719 426.679688 276.003906 426.679688 277.386719 " fill-opacity="1" fill-rule="nonzero"/><path fill="#ffffff" d="M 428.109375 267.445312 C 428.109375 268.824219 426.988281 269.945312 425.609375 269.945312 C 424.222656 269.945312 423.101562 268.824219 423.101562 267.445312 C 423.101562 266.058594 424.222656 264.941406 425.609375 264.941406 C 426.988281 264.941406 428.109375 266.058594 428.109375 267.445312 " fill-opacity="1" fill-rule="nonzero"/><path fill="#ffffff" d="M 440.296875 192.679688 C 440.296875 194.0625 439.179688 195.183594 437.792969 195.183594 C 436.414062 195.183594 435.292969 194.0625 435.292969 192.679688 C 435.292969 191.300781 436.414062 190.179688 437.792969 190.179688 C 439.179688 190.179688 440.296875 191.300781 440.296875 192.679688 " fill-opacity="1" fill-rule="nonzero"/><path fill="#ffffff" d="M 432.34375 216.664062 C 432.34375 218.046875 431.21875 219.167969 429.839844 219.167969 C 428.457031 219.167969 427.335938 218.046875 427.335938 216.664062 C 427.335938 215.28125 428.457031 214.160156 429.839844 214.160156 C 431.21875 214.160156 432.34375 215.28125 432.34375 216.664062 " fill-opacity="1" fill-rule="nonzero"/><path fill="#ffffff" d="M 432.34375 308.074219 C 432.34375 309.457031 431.21875 310.578125 429.839844 310.578125 C 428.457031 310.578125 427.335938 309.457031 427.335938 308.074219 C 427.335938 306.691406 428.457031 305.570312 429.839844 305.570312 C 431.21875 305.570312 432.34375 306.691406 432.34375 308.074219 " fill-opacity="1" fill-rule="nonzero"/><path fill="#ffffff" d="M 507.28125 338.175781 C 507.28125 339.558594 506.160156 340.675781 504.777344 340.675781 C 503.394531 340.675781 502.277344 339.558594 502.277344 338.175781 C 502.277344 336.792969 503.394531 335.671875 504.777344 335.671875 C 506.160156 335.671875 507.28125 336.792969 507.28125 338.175781 " fill-opacity="1" fill-rule="nonzero"/><path fill="#ffffff" d="M 459.476562 282.394531 C 459.476562 283.777344 458.355469 284.898438 456.972656 284.898438 C 455.589844 284.898438 454.472656 283.777344 454.472656 282.394531 C 454.472656 281.011719 455.589844 279.890625 456.972656 279.890625 C 458.355469 279.890625 459.476562 281.011719 459.476562 282.394531 " fill-opacity="1" fill-rule="nonzero"/><path fill="#ffffff" d="M 465.453125 278.675781 C 465.453125 280.058594 464.332031 281.179688 462.949219 281.179688 C 461.566406 281.179688 460.445312 280.058594 460.445312 278.675781 C 460.445312 277.296875 461.566406 276.171875 462.949219 276.171875 C 464.332031 276.171875 465.453125 277.296875 465.453125 278.675781 " fill-opacity="1" fill-rule="nonzero"/><path fill="#ffffff" d="M 460.445312 205.984375 C 460.445312 207.367188 459.328125 208.488281 457.941406 208.488281 C 456.5625 208.488281 455.441406 207.367188 455.441406 205.984375 C 455.441406 204.605469 456.5625 203.480469 457.941406 203.480469 C 459.328125 203.480469 460.445312 204.605469 460.445312 205.984375 " fill-opacity="1" fill-rule="nonzero"/><path fill="#2e2e47" d="M 347.398438 342.191406 C 347.269531 342.191406 347.144531 342.140625 347.046875 342.046875 C 346.851562 341.851562 346.851562 341.53125 347.042969 341.335938 C 347.238281 341.140625 351.878906 336.527344 358.140625 336.265625 C 360.390625 336.171875 363.617188 336.261719 367.035156 336.355469 C 372.871094 336.515625 379.488281 336.695312 382.332031 335.964844 C 384.46875 335.414062 387.152344 333.480469 389.75 331.605469 C 392.675781 329.5 395.4375 327.507812 397.707031 327.152344 C 397.980469 327.113281 398.238281 327.296875 398.28125 327.570312 C 398.324219 327.84375 398.136719 328.101562 397.863281 328.144531 C 395.828125 328.460938 393.039062 330.472656 390.335938 332.421875 C 387.664062 334.347656 384.898438 336.335938 382.582031 336.933594 C 379.605469 337.703125 373.199219 337.527344 367.003906 337.355469 C 363.605469 337.261719 360.394531 337.175781 358.179688 337.265625 C 352.324219 337.511719 347.800781 341.996094 347.753906 342.042969 C 347.65625 342.140625 347.527344 342.191406 347.398438 342.191406 " fill-opacity="1" fill-rule="nonzero"/><path fill="#2e2e47" d="M 594.195312 478.1875 C 571.246094 478.1875 557.15625 482.261719 557.15625 485.183594 C 557.15625 488.105469 571.246094 492.179688 594.195312 492.179688 C 617.140625 492.179688 631.234375 488.105469 631.234375 485.183594 C 631.234375 482.261719 617.140625 478.1875 594.195312 478.1875 Z M 594.195312 494.019531 C 574.875 494.019531 555.316406 490.984375 555.316406 485.183594 C 555.316406 479.382812 574.875 476.347656 594.195312 476.347656 C 613.515625 476.347656 633.070312 479.382812 633.070312 485.183594 C 633.070312 490.984375 613.515625 494.019531 594.195312 494.019531 " fill-opacity="1" fill-rule="nonzero"/><path fill="#2e2e47" d="M 594.195312 570.292969 C 575.8125 570.292969 564.078125 573.582031 564.078125 575.847656 C 564.078125 578.109375 575.8125 581.398438 594.195312 581.398438 C 612.578125 581.398438 624.3125 578.109375 624.3125 575.847656 C 624.3125 573.582031 612.578125 570.292969 594.195312 570.292969 Z M 594.195312 583.238281 C 581.351562 583.238281 562.238281 581.269531 562.238281 575.847656 C 562.238281 570.421875 581.351562 568.453125 594.195312 568.453125 C 607.035156 568.453125 626.148438 570.421875 626.148438 575.847656 C 626.148438 581.269531 607.035156 583.238281 594.195312 583.238281 " fill-opacity="1" fill-rule="nonzero"/><path fill="#ffffff" d="M 564.691406 572.78125 C 564.691406 572.78125 561.992188 575.214844 565.035156 577.757812 C 568.078125 580.304688 586.921875 582.226562 594.359375 582.167969 C 601.800781 582.117188 618.855469 580.125 620.566406 579.074219 C 622.28125 578.027344 626.160156 576.484375 625.929688 575.105469 C 625.699219 573.726562 626.148438 559.359375 626.148438 559.359375 L 627.308594 547.066406 C 627.308594 547.066406 614.007812 534.808594 609.515625 535.363281 C 605.015625 535.917969 604.210938 537.554688 604.210938 537.554688 C 604.210938 537.554688 602.558594 530.394531 590.914062 530.515625 C 579.28125 530.628906 579.28125 541.648438 579.28125 541.648438 C 579.28125 541.648438 573.734375 542.128906 571.910156 544.082031 C 570.082031 546.03125 564.351562 567.808594 564.691406 572.78125 " fill-opacity="1" fill-rule="nonzero"/><path fill="#2e2e47" d="M 563.160156 576.765625 C 562.683594 576.765625 562.28125 576.398438 562.242188 575.914062 L 555.320312 485.253906 C 555.28125 484.75 555.660156 484.308594 556.164062 484.265625 C 556.671875 484.226562 557.117188 484.609375 557.152344 485.113281 L 564.078125 575.773438 C 564.113281 576.28125 563.738281 576.722656 563.230469 576.761719 C 563.207031 576.765625 563.179688 576.765625 563.160156 576.765625 " fill-opacity="1" fill-rule="nonzero"/><path fill="#2e2e47" d="M 625.226562 576.765625 C 625.207031 576.765625 625.183594 576.765625 625.164062 576.761719 C 624.652344 576.722656 624.277344 576.28125 624.3125 575.773438 L 631.238281 485.113281 C 631.277344 484.609375 631.710938 484.226562 632.222656 484.265625 C 632.730469 484.304688 633.105469 484.75 633.066406 485.253906 L 626.144531 575.914062 C 626.109375 576.398438 625.707031 576.765625 625.226562 576.765625 " fill-opacity="1" fill-rule="nonzero"/><path fill="#2e2e47" d="M 580.933594 582.617188 C 580.511719 582.617188 580.128906 582.324219 580.035156 581.890625 L 560.125 489.222656 C 560.019531 488.726562 560.332031 488.238281 560.828125 488.132812 C 561.324219 488.023438 561.816406 488.339844 561.921875 488.839844 L 581.832031 581.503906 C 581.9375 582 581.621094 582.492188 581.128906 582.597656 C 581.058594 582.613281 580.996094 582.617188 580.933594 582.617188 " fill-opacity="1" fill-rule="nonzero"/><path fill="#2e2e47" d="M 570.117188 580.847656 C 569.679688 580.847656 569.289062 580.53125 569.214844 580.082031 L 557.292969 510.992188 C 557.203125 510.492188 557.539062 510.015625 558.039062 509.929688 C 558.539062 509.839844 559.015625 510.175781 559.101562 510.679688 L 571.027344 579.773438 C 571.109375 580.273438 570.777344 580.746094 570.273438 580.835938 C 570.222656 580.847656 570.171875 580.847656 570.117188 580.847656 " fill-opacity="1" fill-rule="nonzero"/><path fill="#2e2e47" d="M 593.453125 583.238281 C 593.007812 583.238281 592.617188 582.917969 592.542969 582.464844 L 578.179688 492.933594 C 578.097656 492.433594 578.4375 491.957031 578.941406 491.878906 C 579.441406 491.796875 579.914062 492.140625 579.992188 492.640625 L 594.359375 582.167969 C 594.441406 582.675781 594.101562 583.144531 593.597656 583.226562 C 593.550781 583.230469 593.5 583.238281 593.453125 583.238281 " fill-opacity="1" fill-rule="nonzero"/><path fill="#2e2e47" d="M 607.453125 582.617188 C 606.996094 582.617188 606.597656 582.273438 606.542969 581.804688 L 596.257812 493.207031 C 596.199219 492.703125 596.558594 492.246094 597.066406 492.1875 C 597.574219 492.125 598.027344 492.488281 598.085938 492.992188 L 608.371094 581.589844 C 608.429688 582.09375 608.070312 582.550781 607.566406 582.613281 C 607.523438 582.613281 607.492188 582.617188 607.453125 582.617188 " fill-opacity="1" fill-rule="nonzero"/><path fill="#2e2e47" d="M 620.597656 580.167969 C 620.136719 580.167969 619.738281 579.824219 619.683594 579.355469 L 609.523438 492.449219 C 609.460938 491.945312 609.820312 491.488281 610.324219 491.425781 C 610.835938 491.367188 611.285156 491.730469 611.34375 492.234375 L 621.507812 579.140625 C 621.570312 579.644531 621.210938 580.101562 620.707031 580.160156 C 620.667969 580.164062 620.628906 580.167969 620.597656 580.167969 " fill-opacity="1" fill-rule="nonzero"/><path fill="#2e2e47" d="M 627.550781 546.300781 C 627.089844 546.300781 626.691406 545.953125 626.640625 545.484375 L 620.566406 490.789062 C 620.507812 490.285156 620.875 489.828125 621.382812 489.773438 C 621.886719 489.714844 622.339844 490.082031 622.394531 490.585938 L 628.464844 545.28125 C 628.523438 545.785156 628.160156 546.238281 627.652344 546.296875 C 627.617188 546.300781 627.585938 546.300781 627.550781 546.300781 " fill-opacity="1" fill-rule="nonzero"/><path fill="#2e2e47" d="M 561.015625 548.707031 C 560.960938 548.707031 560.90625 548.703125 560.851562 548.691406 C 560.347656 548.597656 560.019531 548.117188 560.117188 547.617188 L 570.707031 491.375 C 570.800781 490.878906 571.285156 490.550781 571.785156 490.644531 C 572.28125 490.738281 572.609375 491.21875 572.515625 491.71875 L 561.921875 547.957031 C 561.839844 548.402344 561.453125 548.707031 561.015625 548.707031 " fill-opacity="1" fill-rule="nonzero"/><path fill="#2e2e47" d="M 564.15625 578.398438 C 564.066406 578.398438 563.972656 578.382812 563.878906 578.355469 C 563.394531 578.199219 563.125 577.683594 563.285156 577.199219 L 590.191406 492.820312 C 590.34375 492.335938 590.863281 492.070312 591.347656 492.226562 C 591.828125 492.378906 592.097656 492.894531 591.941406 493.378906 L 565.035156 577.757812 C 564.910156 578.148438 564.546875 578.398438 564.15625 578.398438 " fill-opacity="1" fill-rule="nonzero"/><path fill="#2e2e47" d="M 574.691406 581.800781 C 574.597656 581.800781 574.496094 581.78125 574.394531 581.75 C 573.914062 581.585938 573.660156 581.0625 573.820312 580.582031 L 603.898438 492.492188 C 604.058594 492.011719 604.582031 491.753906 605.0625 491.917969 C 605.539062 492.082031 605.800781 492.605469 605.632812 493.085938 L 575.5625 581.175781 C 575.433594 581.558594 575.074219 581.800781 574.691406 581.800781 " fill-opacity="1" fill-rule="nonzero"/><path fill="#2e2e47" d="M 587.195312 582.617188 C 587.097656 582.617188 586.996094 582.601562 586.898438 582.570312 C 586.417969 582.40625 586.15625 581.882812 586.320312 581.402344 L 616.820312 491.105469 C 616.984375 490.625 617.503906 490.363281 617.988281 490.53125 C 618.46875 490.695312 618.726562 491.214844 618.5625 491.695312 L 588.0625 581.992188 C 587.933594 582.375 587.578125 582.617188 587.195312 582.617188 " fill-opacity="1" fill-rule="nonzero"/><path fill="#2e2e47" d="M 600.15625 583.117188 C 600.066406 583.117188 599.972656 583.101562 599.886719 583.078125 C 599.402344 582.929688 599.128906 582.414062 599.277344 581.929688 L 627.808594 488.222656 C 627.960938 487.738281 628.472656 487.460938 628.957031 487.613281 C 629.445312 487.757812 629.71875 488.273438 629.570312 488.757812 L 601.03125 582.464844 C 600.914062 582.863281 600.550781 583.117188 600.15625 583.117188 " fill-opacity="1" fill-rule="nonzero"/><path fill="#2e2e47" d="M 613.699219 581.796875 C 613.632812 581.796875 613.566406 581.792969 613.503906 581.777344 C 613.007812 581.667969 612.691406 581.179688 612.800781 580.683594 L 629.9375 502.222656 C 630.042969 501.726562 630.535156 501.414062 631.03125 501.523438 C 631.527344 501.628906 631.839844 502.121094 631.734375 502.617188 L 614.59375 581.078125 C 614.503906 581.507812 614.117188 581.796875 613.699219 581.796875 " fill-opacity="1" fill-rule="nonzero"/><path fill="#2e2e47" d="M 623.1875 579.074219 C 623.144531 579.074219 623.101562 579.074219 623.058594 579.066406 C 622.554688 578.996094 622.207031 578.53125 622.277344 578.027344 L 626.292969 549.851562 C 626.363281 549.347656 626.828125 549 627.332031 549.070312 C 627.835938 549.140625 628.183594 549.605469 628.113281 550.109375 L 624.097656 578.285156 C 624.03125 578.746094 623.636719 579.074219 623.1875 579.074219 " fill-opacity="1" fill-rule="nonzero"/><path fill="#fa634b" d="M 508.410156 322.523438 L 508.507812 362.929688 C 508.511719 365.527344 516.449219 367.617188 526.230469 367.597656 C 536.015625 367.570312 543.9375 365.445312 543.933594 362.84375 L 543.839844 322.441406 L 508.410156 322.523438 " fill-opacity="1" fill-rule="nonzero"/><path fill="#ffffff" d="M 543.835938 322.441406 C 543.84375 325.042969 535.914062 327.167969 526.132812 327.195312 C 516.347656 327.21875 508.410156 325.128906 508.40625 322.527344 C 508.402344 319.925781 516.328125 317.796875 526.109375 317.773438 C 535.894531 317.75 543.828125 319.839844 543.835938 322.441406 " fill-opacity="1" fill-rule="nonzero"/><path fill="#774237" d="M 542.929688 323.933594 C 540.585938 322.066406 533.941406 320.730469 526.109375 320.75 C 518.289062 320.769531 511.65625 322.132812 509.316406 324.007812 C 511.660156 325.875 518.300781 327.210938 526.132812 327.191406 C 533.957031 327.175781 540.589844 325.808594 542.929688 323.933594 " fill-opacity="1" fill-rule="nonzero"/><path fill="#fa634b" d="M 543.175781 360.097656 C 542.015625 360.101562 540.914062 359.964844 539.988281 359.683594 C 538.40625 359.207031 537.53125 357.570312 538.015625 356.035156 C 538.507812 354.496094 540.1875 353.636719 541.761719 354.117188 C 543.453125 354.625 546.324219 353.902344 547.164062 353.277344 C 547.582031 352.140625 548.40625 348.179688 548.765625 343.351562 C 549.222656 337.21875 548.59375 334.4375 548.199219 333.628906 C 545.519531 332.945312 543.289062 334.570312 543.265625 334.589844 C 541.96875 335.582031 540.085938 335.363281 539.066406 334.097656 C 538.046875 332.828125 538.269531 330.996094 539.574219 330.003906 C 539.773438 329.847656 544.589844 326.242188 550.519531 328.222656 C 552.257812 328.804688 553.484375 330.285156 554.164062 332.625 C 555.902344 338.59375 554.125 354.25 551.921875 356.863281 C 550.132812 358.988281 546.417969 360.089844 543.175781 360.097656 " fill-opacity="1" fill-rule="nonzero"/><g clip-path="url(#e9895d619a)"><path fill="#2e2e47" d="M 24.753906 70.496094 C 14.3125 70.496094 5.8125 78.992188 5.8125 89.441406 L 5.8125 165.136719 C 5.8125 175.578125 14.3125 184.074219 24.753906 184.074219 L 124.851562 184.074219 C 124.964844 184.074219 125.078125 184.113281 125.167969 184.1875 L 147.414062 202.328125 L 145.59375 184.628906 C 145.582031 184.488281 145.625 184.34375 145.722656 184.242188 C 145.816406 184.136719 145.953125 184.074219 146.09375 184.074219 L 183.054688 184.074219 C 193.496094 184.074219 201.992188 175.578125 201.992188 165.136719 L 201.992188 89.441406 C 201.992188 78.992188 193.496094 70.496094 183.054688 70.496094 Z M 148.039062 203.980469 C 147.925781 203.980469 147.8125 203.945312 147.722656 203.871094 L 124.671875 185.082031 L 24.753906 185.082031 C 13.757812 185.082031 4.8125 176.132812 4.8125 165.136719 L 4.8125 89.441406 C 4.8125 78.441406 13.757812 69.496094 24.753906 69.496094 L 183.054688 69.496094 C 194.050781 69.496094 202.996094 78.441406 202.996094 89.441406 L 202.996094 165.136719 C 202.996094 176.132812 194.050781 185.082031 183.054688 185.082031 L 146.648438 185.082031 L 148.535156 203.429688 C 148.558594 203.632812 148.457031 203.828125 148.277344 203.925781 C 148.203125 203.964844 148.121094 203.980469 148.039062 203.980469 " fill-opacity="1" fill-rule="nonzero"/></g><path fill="#fa634b" d="M 44.316406 93.175781 L 32.230469 93.175781 L 32.230469 87.40625 L 44.316406 87.40625 L 44.316406 93.175781 " fill-opacity="1" fill-rule="nonzero"/><path fill="#eae6e4" d="M 166.378906 93.175781 L 49.078125 93.175781 L 49.078125 87.40625 L 166.378906 87.40625 L 166.378906 93.175781 " fill-opacity="1" fill-rule="nonzero"/><path fill="#fa634b" d="M 43.769531 121.378906 L 31.679688 121.378906 L 31.679688 115.609375 L 43.769531 115.609375 L 43.769531 121.378906 " fill-opacity="1" fill-rule="nonzero"/><path fill="#ffea8f" d="M 165.832031 121.378906 L 48.527344 121.378906 L 48.527344 115.609375 L 165.832031 115.609375 L 165.832031 121.378906 " fill-opacity="1" fill-rule="nonzero"/><path fill="#fa634b" d="M 59.515625 135.480469 L 47.429688 135.480469 L 47.429688 129.710938 L 59.515625 129.710938 L 59.515625 135.480469 " fill-opacity="1" fill-rule="nonzero"/><path fill="#ffc97d" d="M 87.640625 135.480469 L 64.277344 135.480469 L 64.277344 129.710938 L 87.640625 129.710938 L 87.640625 135.480469 " fill-opacity="1" fill-rule="nonzero"/><path fill="#ffc97d" d="M 107.964844 135.480469 L 98.886719 135.480469 L 98.886719 129.710938 L 107.964844 129.710938 L 107.964844 135.480469 " fill-opacity="1" fill-rule="nonzero"/><path fill="#eae6e4" d="M 165.832031 135.480469 L 118.664062 135.480469 L 118.664062 129.710938 L 165.832031 129.710938 L 165.832031 135.480469 " fill-opacity="1" fill-rule="nonzero"/><path fill="#fa634b" d="M 44.554688 149.582031 L 32.46875 149.582031 L 32.46875 143.8125 L 44.554688 143.8125 L 44.554688 149.582031 " fill-opacity="1" fill-rule="nonzero"/><path fill="#eae6e4" d="M 166.617188 149.582031 L 49.316406 149.582031 L 49.316406 143.8125 L 166.617188 143.8125 L 166.617188 149.582031 " fill-opacity="1" fill-rule="nonzero"/><path fill="#fa634b" d="M 44.554688 163.683594 L 32.46875 163.683594 L 32.46875 157.910156 L 44.554688 157.910156 L 44.554688 163.683594 " fill-opacity="1" fill-rule="nonzero"/><path fill="#eae6e4" d="M 62.765625 163.683594 L 49.316406 163.683594 L 49.316406 157.910156 L 62.765625 157.910156 L 62.765625 163.683594 " fill-opacity="1" fill-rule="nonzero"/><path fill="#ffea8f" d="M 81.457031 163.683594 L 68.007812 163.683594 L 68.007812 157.910156 L 81.457031 157.910156 L 81.457031 163.683594 " fill-opacity="1" fill-rule="nonzero"/><path fill="#84ceca" d="M 100.148438 163.683594 L 86.699219 163.683594 L 86.699219 157.910156 L 100.148438 157.910156 L 100.148438 163.683594 " fill-opacity="1" fill-rule="nonzero"/><path fill="#eae6e4" d="M 166.617188 163.683594 L 105.390625 163.683594 L 105.390625 157.910156 L 166.617188 157.910156 L 166.617188 163.683594 " fill-opacity="1" fill-rule="nonzero"/><path fill="#fa634b" d="M 50.359375 107.277344 L 38.273438 107.277344 L 38.273438 101.507812 L 50.359375 101.507812 L 50.359375 107.277344 " fill-opacity="1" fill-rule="nonzero"/><path fill="#ffea8f" d="M 99.542969 107.277344 L 55.121094 107.277344 L 55.121094 101.507812 L 99.542969 101.507812 L 99.542969 107.277344 " fill-opacity="1" fill-rule="nonzero"/><path fill="#eae6e4" d="M 146.785156 107.277344 L 102.363281 107.277344 L 102.363281 101.507812 L 146.785156 101.507812 L 146.785156 107.277344 " fill-opacity="1" fill-rule="nonzero"/><path fill="#84ceca" d="M 282.84375 100.679688 L 191.578125 100.679688 C 185.167969 100.679688 179.972656 105.878906 179.972656 112.289062 L 179.972656 157.476562 C 179.972656 163.890625 185.167969 169.085938 191.578125 169.085938 L 248.097656 169.085938 L 260.101562 185.089844 L 260.78125 169.085938 L 282.84375 169.085938 C 289.253906 169.085938 294.449219 163.890625 294.449219 157.476562 L 294.449219 112.289062 C 294.449219 105.878906 289.253906 100.679688 282.84375 100.679688 " fill-opacity="1" fill-rule="nonzero"/><path fill="#ffffff" d="M 218.84375 153.625 L 199.183594 133.960938 L 218.84375 114.304688 L 223.402344 118.863281 L 208.300781 133.960938 L 223.402344 149.0625 L 218.84375 153.625 " fill-opacity="1" fill-rule="nonzero"/><path fill="#ffffff" d="M 255.578125 153.625 L 251.023438 149.0625 L 266.121094 133.960938 L 251.023438 118.863281 L 255.578125 114.304688 L 275.238281 133.960938 L 255.578125 153.625 " fill-opacity="1" fill-rule="nonzero"/><path fill="#ffffff" d="M 232.886719 156.390625 L 226.679688 154.652344 L 238.765625 111.535156 L 244.976562 113.277344 L 232.886719 156.390625 " fill-opacity="1" fill-rule="nonzero"/><g clip-path="url(#dfc60338b4)"><path fill="#2e2e47" d="M 286.699219 51.324219 L 160.101562 51.324219 C 151.070312 51.324219 143.679688 58.714844 143.679688 67.746094 C 143.679688 76.777344 151.070312 84.167969 160.101562 84.167969 L 244.972656 84.167969 L 259.335938 94.328125 L 259.335938 84.167969 L 286.699219 84.167969 C 295.734375 84.167969 303.121094 76.777344 303.121094 67.746094 C 303.121094 58.714844 295.734375 51.324219 286.699219 51.324219 " fill-opacity="1" fill-rule="nonzero"/></g><path fill="#ffea8f" d="M 175.378906 62.375 L 157.605469 62.375 L 157.605469 57.472656 L 175.378906 57.472656 L 175.378906 62.375 " fill-opacity="1" fill-rule="nonzero"/><path fill="#84ceca" d="M 216.359375 68.765625 L 169.785156 68.765625 L 169.785156 65.132812 L 216.359375 65.132812 L 216.359375 68.765625 " fill-opacity="1" fill-rule="nonzero"/><path fill="#82a7af" d="M 228.695312 68.765625 L 218.582031 68.765625 L 218.582031 65.132812 L 228.695312 65.132812 L 228.695312 68.765625 " fill-opacity="1" fill-rule="nonzero"/><path fill="#84ceca" d="M 285.761719 68.765625 L 230.417969 68.765625 L 230.417969 65.132812 L 285.761719 65.132812 L 285.761719 68.765625 " fill-opacity="1" fill-rule="nonzero"/><path fill="#84ceca" d="M 196.75 76.457031 L 169.785156 76.457031 L 169.785156 72.824219 L 196.75 72.824219 L 196.75 76.457031 " fill-opacity="1" fill-rule="nonzero"/><path fill="#82a7af" d="M 213.371094 76.457031 L 198.050781 76.457031 L 198.050781 72.824219 L 213.371094 72.824219 L 213.371094 76.457031 " fill-opacity="1" fill-rule="nonzero"/><path fill="#95f99c" d="M 240.875 76.457031 L 214.75 76.457031 L 214.75 72.824219 L 240.875 72.824219 L 240.875 76.457031 " fill-opacity="1" fill-rule="nonzero"/><path fill="#84ceca" d="M 285.761719 76.457031 L 242.710938 76.457031 L 242.710938 72.824219 L 285.761719 72.824219 L 285.761719 76.457031 " fill-opacity="1" fill-rule="nonzero"/></svg>