<svg xmlns="http://www.w3.org/2000/svg" xmlns:xlink="http://www.w3.org/1999/xlink" width="500" zoomAndPan="magnify" viewBox="0 0 375 374.999991" height="500" preserveAspectRatio="xMidYMid meet" version="1.0"><defs><clipPath id="761e10d8c2"><path d="M 181 34.921875 L 273 34.921875 L 273 80 L 181 80 Z M 181 34.921875 " clip-rule="nonzero"/></clipPath><clipPath id="32e5602214"><path d="M 212.222656 275.496094 L 334 275.496094 L 334 338.410156 L 212.222656 338.410156 Z M 212.222656 275.496094 " clip-rule="nonzero"/></clipPath></defs><rect x="-37.5" width="450" fill="#ffffff" y="-37.499999" height="449.999989" fill-opacity="1"/><rect x="-37.5" width="450" fill="#ffffff" y="-37.499999" height="449.999989" fill-opacity="1"/><path fill="#fcce4b" d="M 31.136719 267.453125 C 47.292969 253.25 71.902344 254.839844 86.097656 271.003906 C 100.296875 287.167969 98.707031 311.78125 82.546875 325.984375 C 66.390625 340.183594 41.78125 338.59375 27.585938 322.429688 C 13.390625 306.269531 14.980469 281.652344 31.136719 267.453125 " fill-opacity="1" fill-rule="nonzero"/><path fill="#fcce4b" d="M 82.546875 325.984375 L 31.136719 267.453125 C 31.136719 267.453125 87.027344 154.796875 154.070312 148.066406 C 154.070312 234.675781 154.070312 257.761719 154.070312 257.761719 L 82.546875 325.984375 " fill-opacity="1" fill-rule="nonzero"/><path fill="#fcce4b" d="M 144.261719 149.800781 C 144.261719 149.800781 160.292969 145.535156 176.292969 144.171875 C 176.128906 147.683594 179.253906 157.449219 195.011719 156.46875 C 210.351562 155.511719 210.625 145.25 210.625 145.25 C 210.625 145.25 251.75 149.609375 275.371094 157.058594 C 275.371094 303.28125 277.710938 303.890625 277.710938 303.890625 L 144.261719 303.890625 L 144.261719 149.800781 " fill-opacity="1" fill-rule="nonzero"/><path fill="#fcce4b" d="M 299.609375 309.867188 L 355.460938 297.5 C 355.460938 297.5 345.226562 181.835938 273.535156 156.496094 C 273.535156 176.921875 275.476562 225.34375 275.476562 225.34375 L 299.609375 309.867188 " fill-opacity="1" fill-rule="nonzero"/><path fill="#ffffff" d="M 88.160156 169.679688 C 88.160156 169.132812 92.605469 144.613281 92.605469 144.613281 C 92.605469 144.613281 103.050781 121.1875 120.480469 114.648438 C 139.726562 107.929688 147.53125 103.933594 147.53125 103.933594 C 147.53125 103.933594 151.015625 96.738281 137 92.308594 C 119.757812 86.863281 100.144531 79.777344 91.109375 83.84375 C 82.660156 87.648438 55.84375 110.652344 43.859375 159.691406 C 85.800781 168.953125 88.160156 169.679688 88.160156 169.679688 " fill-opacity="1" fill-rule="nonzero"/><path fill="#231f20" d="M 45.1875 158.867188 C 75.195312 165.496094 84.453125 167.648438 87.273438 168.332031 C 87.894531 164.574219 89.847656 153.71875 91.53125 144.421875 L 91.554688 144.292969 L 91.609375 144.171875 C 92.042969 143.195312 102.441406 120.25 120.097656 113.628906 C 136.765625 107.808594 144.890625 104.003906 146.660156 103.148438 C 146.824219 102.59375 147.039062 101.351562 146.378906 99.859375 C 145.566406 98.035156 143.230469 95.417969 136.671875 93.347656 C 134.925781 92.796875 133.15625 92.226562 131.375 91.65625 C 119.238281 87.757812 106.691406 83.730469 97.960938 83.730469 C 95.347656 83.730469 93.191406 84.101562 91.554688 84.839844 C 84.890625 87.839844 57.652344 109.15625 45.1875 158.867188 Z M 89.25 171.152344 L 87.847656 170.722656 C 87.679688 170.675781 84.125 169.695312 43.625 160.753906 L 42.539062 160.511719 L 42.800781 159.429688 C 49.316406 132.773438 60.066406 114.65625 67.9375 104.152344 C 76.585938 92.613281 85.582031 85.136719 90.660156 82.851562 C 92.609375 81.976562 94.996094 81.546875 97.960938 81.546875 C 107.03125 81.546875 119.742188 85.632812 132.039062 89.582031 C 133.816406 90.152344 135.585938 90.71875 137.328125 91.269531 C 143.261719 93.144531 146.988281 95.761719 148.402344 99.050781 C 149.660156 101.972656 148.558594 104.308594 148.511719 104.40625 L 148.351562 104.738281 L 148.027344 104.90625 C 147.707031 105.070312 139.9375 109.007812 120.835938 115.679688 C 104.683594 121.738281 94.472656 143.171875 93.648438 144.945312 C 91.933594 154.425781 89.378906 168.65625 89.25 169.722656 L 89.25 171.152344 " fill-opacity="1" fill-rule="nonzero"/><path fill="#ffffff" d="M 91.613281 148.066406 C 91.613281 148.066406 107.226562 139.710938 112.851562 133.71875 C 130.648438 125.183594 132.824219 123.546875 132.824219 123.546875 C 132.824219 123.546875 134.097656 116.464844 125.199219 116.464844 C 116.304688 116.464844 109.765625 119.914062 109.765625 119.914062 C 109.765625 119.914062 86.347656 117.011719 79.445312 132.808594 " fill-opacity="1" fill-rule="nonzero"/><path fill="#231f20" d="M 92.125 149.027344 L 91.097656 147.105469 C 91.25 147.023438 106.621094 138.765625 112.058594 132.96875 L 112.199219 132.824219 L 112.382812 132.738281 C 126.34375 126.039062 130.625 123.625 131.792969 122.914062 C 131.824219 122.179688 131.746094 120.65625 130.734375 119.460938 C 129.667969 118.195312 127.800781 117.554688 125.199219 117.554688 C 116.703125 117.554688 110.339844 120.84375 110.273438 120.878906 L 109.972656 121.039062 L 109.632812 120.996094 C 109.410156 120.96875 86.933594 118.382812 80.445312 133.246094 L 78.449219 132.375 C 85.21875 116.871094 106.515625 118.480469 109.566406 118.796875 C 110.996094 118.101562 117.121094 115.375 125.199219 115.375 C 128.492188 115.375 130.917969 116.285156 132.417969 118.074219 C 134.449219 120.503906 133.921875 123.609375 133.898438 123.738281 L 133.824219 124.160156 L 133.480469 124.417969 C 133.386719 124.488281 131.027344 126.207031 113.507812 134.613281 C 107.714844 140.652344 92.765625 148.6875 92.125 149.027344 " fill-opacity="1" fill-rule="nonzero"/><path fill="#231f20" d="M 103.589844 110.023438 L 105.25 110.511719 C 106.074219 110.757812 106.910156 110.757812 107.6875 110.570312 L 105.089844 119.371094 C 104.019531 122.992188 106.085938 126.792969 109.703125 127.863281 L 117.527344 130.175781 C 116.890625 130.738281 116.390625 131.484375 116.132812 132.363281 L 115.640625 134.019531 C 114.90625 136.515625 116.332031 139.140625 118.828125 139.875 L 118.921875 139.902344 C 121.417969 140.644531 124.039062 139.214844 124.777344 136.71875 L 125.265625 135.0625 C 125.527344 134.183594 125.511719 133.289062 125.28125 132.464844 L 135.21875 135.402344 C 138.839844 136.472656 142.636719 134.402344 143.707031 130.785156 L 146.582031 121.042969 C 145.511719 121.648438 144.207031 121.839844 142.929688 121.460938 L 141.273438 120.972656 C 138.777344 120.234375 137.351562 117.613281 138.089844 115.117188 L 138.117188 115.023438 C 138.855469 112.527344 141.476562 111.097656 143.972656 111.835938 L 145.628906 112.328125 C 146.90625 112.703125 147.898438 113.574219 148.46875 114.664062 L 151.246094 105.261719 C 152.3125 101.640625 150.246094 97.839844 146.625 96.773438 L 135.648438 93.527344 C 136.457031 94.667969 136.753906 96.148438 136.328125 97.589844 L 135.839844 99.246094 C 135.101562 101.746094 132.480469 103.171875 129.984375 102.433594 L 129.890625 102.40625 C 127.394531 101.667969 125.96875 99.046875 126.707031 96.550781 L 127.195312 94.890625 C 127.621094 93.449219 128.675781 92.367188 129.972656 91.851562 L 121.113281 89.234375 C 117.496094 88.160156 113.691406 90.230469 112.625 93.851562 L 110.027344 102.652344 C 109.472656 102.070312 108.769531 101.621094 107.945312 101.375 L 106.289062 100.886719 C 103.792969 100.148438 101.171875 101.574219 100.433594 104.074219 L 100.40625 104.164062 C 99.667969 106.660156 101.09375 109.285156 103.589844 110.023438 " fill-opacity="1" fill-rule="nonzero"/><path fill="#ffffff" d="M 98.703125 82.648438 L 108.675781 81.046875 C 108.675781 81.046875 123.925781 81.59375 127.195312 82.59375 C 130.464844 83.59375 136.589844 92.640625 142.0625 94.382812 C 138.089844 99.753906 130.464844 100.019531 123.203125 93.257812 C 117.03125 87.949219 118.480469 89.714844 118.480469 89.714844 L 102.324219 91.402344 L 98.703125 82.648438 " fill-opacity="1" fill-rule="nonzero"/><path fill="#231f20" d="M 118.363281 88.34375 C 118.859375 88.34375 119.15625 88.34375 123.914062 92.429688 C 127.335938 95.617188 130.890625 97.285156 134.21875 97.285156 C 136.582031 97.285156 138.644531 96.433594 140.261719 94.808594 C 137.421875 93.382812 134.601562 90.558594 132.074219 88.019531 C 130.09375 86.042969 128.050781 83.992188 126.878906 83.636719 C 124.332031 82.855469 113.03125 82.296875 108.746094 82.144531 L 100.238281 83.507812 L 103.019531 90.230469 L 117.472656 88.722656 L 117.644531 88.359375 Z M 134.21875 99.464844 C 130.328125 99.464844 126.261719 97.59375 122.460938 94.054688 C 120.214844 92.128906 119.085938 91.226562 118.523438 90.800781 L 101.625 92.570312 L 97.167969 81.792969 L 108.609375 79.957031 L 108.71875 79.960938 C 109.34375 79.980469 124.148438 80.519531 127.515625 81.550781 C 129.207031 82.066406 131.25 84.113281 133.613281 86.480469 C 136.402344 89.277344 139.566406 92.445312 142.390625 93.34375 L 143.839844 93.804688 L 142.9375 95.03125 C 140.824219 97.890625 137.726562 99.464844 134.21875 99.464844 " fill-opacity="1" fill-rule="nonzero"/><path fill="#ffffff" d="M 90.339844 104.296875 C 90.339844 104.296875 98.328125 96.851562 101.234375 91.945312 C 103.773438 93.761719 111.039062 93.945312 111.039062 93.945312 C 111.039062 93.945312 118.84375 102.660156 127.195312 95.941406 C 121.933594 90.671875 118.382812 86.480469 118.382812 86.480469 C 118.382812 86.480469 103.957031 80.414062 95.058594 82.640625 C 86.164062 84.863281 75.914062 95.757812 72.1875 100.515625 " fill-opacity="1" fill-rule="nonzero"/><path fill="#231f20" d="M 91.082031 105.09375 L 89.597656 103.5 C 89.675781 103.425781 97.507812 96.101562 100.296875 91.390625 L 100.902344 90.371094 L 101.867188 91.058594 C 103.726562 92.390625 109.136719 92.804688 111.066406 92.855469 L 111.535156 92.867188 L 111.847656 93.21875 C 112.128906 93.523438 118.480469 100.421875 125.527344 95.808594 C 121.410156 91.632812 118.457031 88.238281 117.726562 87.390625 C 115.851562 86.636719 103.164062 81.734375 95.324219 83.699219 C 86.570312 85.882812 76.269531 97.066406 73.046875 101.1875 L 71.328125 99.84375 C 75.503906 94.515625 85.777344 83.835938 94.796875 81.582031 C 103.9375 79.296875 118.203125 85.222656 118.804688 85.472656 L 119.046875 85.578125 L 119.214844 85.777344 C 119.246094 85.816406 122.796875 90 127.964844 95.171875 L 128.828125 96.027344 L 127.878906 96.792969 C 119.847656 103.25 112.242188 96.65625 110.566406 95.019531 C 109.019531 94.953125 104.363281 94.660156 101.601562 93.398438 C 98.328125 98.316406 91.394531 104.800781 91.082031 105.09375 " fill-opacity="1" fill-rule="nonzero"/><path fill="#fcce4b" d="M 42.953125 148.066406 L 90.523438 155.332031 L 95.789062 296.71875 L 17.898438 296.71875 C 17.898438 296.71875 12.085938 241.414062 42.953125 148.066406 " fill-opacity="1" fill-rule="nonzero"/><path fill="#231f20" d="M 94.699219 296.761719 L 89.433594 155.371094 L 91.609375 155.289062 L 96.875 296.679688 L 94.699219 296.761719 " fill-opacity="1" fill-rule="nonzero"/><path fill="#fcce4b" d="M 95.789062 296.71875 C 95.789062 318.234375 78.351562 335.675781 56.84375 335.675781 C 35.332031 335.675781 17.898438 318.234375 17.898438 296.71875 C 17.898438 275.203125 35.332031 257.761719 56.84375 257.761719 C 78.351562 257.761719 95.789062 275.203125 95.789062 296.71875 " fill-opacity="1" fill-rule="nonzero"/><path fill="#231f20" d="M 43.613281 118.726562 L 42.78125 118.660156 C 40.207031 118.445312 37.664062 117.9375 35.210938 117.148438 L 34.417969 116.890625 L 34.789062 109.453125 C 31.921875 108.1875 29.335938 106.449219 27.078125 104.277344 L 20.34375 107.441406 L 19.808594 106.804688 C 18.140625 104.835938 16.695312 102.671875 15.523438 100.382812 L 15.140625 99.640625 L 20.65625 94.644531 C 19.527344 91.734375 18.921875 88.671875 18.863281 85.527344 L 11.867188 83.003906 L 11.933594 82.171875 C 12.148438 79.597656 12.65625 77.050781 13.449219 74.601562 L 13.703125 73.804688 L 21.136719 74.175781 C 22.402344 71.3125 24.140625 68.722656 26.308594 66.464844 L 23.148438 59.730469 L 23.789062 59.1875 C 25.757812 57.519531 27.917969 56.078125 30.207031 54.90625 L 30.949219 54.523438 L 35.941406 60.039062 C 38.851562 58.910156 41.914062 58.308594 45.054688 58.246094 L 47.582031 51.25 L 48.410156 51.316406 C 50.984375 51.527344 53.53125 52.035156 55.980469 52.828125 L 56.773438 53.085938 L 56.40625 60.523438 C 59.269531 61.789062 61.855469 63.523438 64.117188 65.695312 L 70.847656 62.535156 L 71.386719 63.167969 C 73.054688 65.144531 74.496094 67.304688 75.671875 69.59375 L 76.050781 70.335938 L 70.539062 75.328125 C 71.746094 78.445312 72.351562 81.726562 72.335938 85.101562 L 72.335938 85.203125 L 70.152344 85.207031 L 70.15625 85.113281 C 70.171875 81.753906 69.523438 78.511719 68.238281 75.457031 L 67.9375 74.742188 L 73.339844 69.851562 C 72.453125 68.222656 71.417969 66.671875 70.253906 65.222656 L 63.65625 68.320312 L 63.113281 67.769531 C 60.757812 65.371094 57.980469 63.507812 54.867188 62.234375 L 54.152344 61.945312 L 54.515625 54.65625 C 52.734375 54.136719 50.90625 53.769531 49.058594 53.566406 L 46.585938 60.429688 L 45.71875 60.421875 C 42.382812 60.40625 39.121094 61.050781 36.066406 62.339844 L 35.351562 62.640625 L 30.460938 57.234375 C 28.839844 58.125 27.285156 59.160156 25.835938 60.324219 L 28.933594 66.921875 L 28.386719 67.464844 C 25.984375 69.824219 24.125 72.597656 22.855469 75.714844 L 22.5625 76.429688 L 15.277344 76.066406 C 14.753906 77.847656 14.386719 79.679688 14.183594 81.523438 L 21.050781 84 L 21.035156 84.859375 C 21.023438 88.21875 21.664062 91.464844 22.953125 94.519531 L 23.253906 95.230469 L 17.851562 100.125 C 18.742188 101.75 19.777344 103.304688 20.941406 104.753906 L 27.535156 101.65625 L 28.082031 102.207031 C 30.4375 104.605469 33.210938 106.46875 36.324219 107.738281 L 37.039062 108.03125 L 36.679688 115.316406 C 38.457031 115.839844 40.289062 116.207031 42.132812 116.410156 L 44.605469 109.546875 L 45.472656 109.554688 C 47.488281 109.570312 49.472656 109.332031 51.394531 108.867188 L 51.910156 110.984375 C 50.027344 111.441406 48.085938 111.691406 46.136719 111.730469 L 43.613281 118.726562 " fill-opacity="1" fill-rule="nonzero"/><path fill="#231f20" d="M 45.636719 75.359375 C 40.3125 75.359375 35.996094 79.660156 35.972656 84.945312 C 35.960938 87.519531 36.953125 89.9375 38.761719 91.765625 C 40.570312 93.59375 42.984375 94.605469 45.554688 94.613281 L 45.597656 95.707031 L 45.597656 94.613281 C 50.882812 94.613281 55.199219 90.3125 55.222656 85.03125 C 55.230469 82.460938 54.242188 80.035156 52.429688 78.210938 C 50.621094 76.382812 48.210938 75.371094 45.636719 75.359375 Z M 45.597656 96.796875 L 45.546875 96.796875 C 42.390625 96.78125 39.433594 95.539062 37.214844 93.300781 C 34.996094 91.058594 33.777344 88.089844 33.792969 84.9375 C 33.824219 78.453125 39.117188 73.183594 45.597656 73.183594 C 48.800781 73.195312 51.761719 74.433594 53.976562 76.675781 C 56.199219 78.914062 57.414062 81.886719 57.398438 85.039062 C 57.371094 91.519531 52.074219 96.796875 45.597656 96.796875 " fill-opacity="1" fill-rule="nonzero"/><path fill="#231f20" d="M 246.160156 126.589844 C 245.675781 126.589844 238.816406 126.507812 234.4375 122.152344 C 232.109375 119.832031 230.929688 116.753906 230.929688 113.003906 C 230.929688 106.449219 236.484375 102.371094 241.644531 101.351562 C 247.640625 100.171875 252.859375 102.695312 254.945312 107.789062 L 252.933594 108.613281 C 250.898438 103.65625 245.808594 102.753906 242.070312 103.492188 C 237.75 104.34375 233.105469 107.683594 233.105469 113.003906 C 233.105469 116.15625 234.070312 118.710938 235.972656 120.605469 C 239.761719 124.371094 246.023438 124.410156 246.171875 124.410156 L 293.292969 124.410156 C 308.429688 124.410156 310.179688 116.289062 310.179688 110.183594 C 310.179688 105.371094 305.488281 95.941406 294.65625 95.941406 C 283.550781 95.941406 281.53125 100.945312 281.511719 101 L 279.476562 100.226562 C 279.574219 99.960938 282.066406 93.761719 294.65625 93.761719 C 306.050781 93.761719 312.355469 103.46875 312.355469 110.183594 C 312.355469 121.070312 305.945312 126.589844 293.292969 126.589844 L 246.179688 126.589844 C 246.171875 126.589844 246.167969 126.589844 246.160156 126.589844 " fill-opacity="1" fill-rule="nonzero"/><path fill="#231f20" d="M 244.15625 102.25 C 244.097656 102.0625 242.738281 97.617188 244.992188 93.984375 C 246.378906 91.75 248.785156 90.347656 252.136719 89.824219 C 260.53125 88.511719 263.375 95.957031 263.40625 96.035156 L 261.359375 96.785156 C 261.273438 96.550781 259.082031 90.945312 252.472656 91.980469 C 249.78125 92.398438 247.886719 93.457031 246.851562 95.121094 C 245.121094 97.894531 246.226562 101.558594 246.238281 101.597656 L 244.15625 102.25 " fill-opacity="1" fill-rule="nonzero"/><path fill="#231f20" d="M 285.007812 97.371094 L 282.863281 96.996094 C 282.871094 96.957031 283.585938 92.542969 281.066406 89.398438 C 279.457031 87.390625 276.84375 86.28125 273.296875 86.101562 C 269.832031 85.925781 267.148438 86.722656 265.316406 88.480469 C 262.636719 91.046875 262.636719 94.804688 262.636719 94.84375 L 260.460938 94.859375 C 260.457031 94.667969 260.460938 90.117188 263.808594 86.910156 C 266.089844 84.71875 269.328125 83.714844 273.410156 83.925781 C 277.613281 84.140625 280.769531 85.527344 282.78125 88.050781 C 285.910156 91.976562 285.046875 97.152344 285.007812 97.371094 " fill-opacity="1" fill-rule="nonzero"/><path fill="#231f20" d="M 245.367188 79.035156 L 243.183594 79.035156 L 243.183594 70.925781 C 243.183594 67.210938 240.160156 64.183594 236.449219 64.183594 L 217.964844 64.183594 C 214.246094 64.183594 211.222656 67.210938 211.222656 70.925781 L 211.222656 79.035156 L 209.046875 79.035156 L 209.046875 70.925781 C 209.046875 66.007812 213.042969 62.007812 217.964844 62.007812 L 236.449219 62.007812 C 241.363281 62.007812 245.367188 66.007812 245.367188 70.925781 L 245.367188 79.035156 " fill-opacity="1" fill-rule="nonzero"/><path fill="#231f20" d="M 198.132812 79.714844 L 195.953125 79.714844 L 195.953125 64.890625 C 195.953125 56.398438 202.863281 49.488281 211.351562 49.488281 L 243.054688 49.488281 C 251.546875 49.488281 258.453125 56.398438 258.453125 64.890625 L 258.453125 79.035156 L 256.277344 79.035156 L 256.277344 64.890625 C 256.277344 57.597656 250.347656 51.667969 243.054688 51.667969 L 211.351562 51.667969 C 204.066406 51.667969 198.132812 57.597656 198.132812 64.890625 L 198.132812 79.714844 " fill-opacity="1" fill-rule="nonzero"/><g clip-path="url(#761e10d8c2)"><path fill="#231f20" d="M 183.859375 79.535156 L 181.679688 79.535156 L 181.679688 57.390625 C 181.679688 45 191.757812 34.917969 204.148438 34.917969 L 250.261719 34.917969 C 262.648438 34.917969 272.730469 45 272.730469 57.390625 L 272.730469 79.035156 L 270.550781 79.035156 L 270.550781 57.390625 C 270.550781 46.203125 261.449219 37.097656 250.261719 37.097656 L 204.148438 37.097656 C 192.957031 37.097656 183.859375 46.203125 183.859375 57.390625 L 183.859375 79.535156 " fill-opacity="1" fill-rule="nonzero"/></g><path fill="#231f20" d="M 32.441406 136.054688 L 17.460938 136.054688 L 17.460938 133.875 L 32.441406 133.875 L 32.441406 136.054688 " fill-opacity="1" fill-rule="nonzero"/><path fill="#231f20" d="M 26.042969 142.457031 L 23.863281 142.457031 L 23.863281 127.472656 L 26.042969 127.472656 L 26.042969 142.457031 " fill-opacity="1" fill-rule="nonzero"/><path fill="#000000" d="M 32.441406 135.507812 L 17.460938 135.507812 L 17.460938 134.417969 L 32.441406 134.417969 L 32.441406 135.507812 " fill-opacity="1" fill-rule="nonzero"/><path fill="#000000" d="M 25.5 142.457031 L 24.40625 142.457031 L 24.40625 127.472656 L 25.5 127.472656 L 25.5 142.457031 " fill-opacity="1" fill-rule="nonzero"/><path fill="#231f20" d="M 22.800781 161.597656 L 0.195312 161.597656 L 0.195312 159.417969 L 22.800781 159.417969 L 22.800781 161.597656 " fill-opacity="1" fill-rule="nonzero"/><path fill="#231f20" d="M 18.988281 172.492188 L 2.644531 172.492188 L 2.644531 170.3125 L 18.988281 170.3125 L 18.988281 172.492188 " fill-opacity="1" fill-rule="nonzero"/><path fill="#231f20" d="M 16.261719 188.566406 L 2.644531 188.566406 L 2.644531 186.386719 L 16.261719 186.386719 L 16.261719 188.566406 " fill-opacity="1" fill-rule="nonzero"/><path fill="#231f20" d="M 88.628906 64.992188 L 87.085938 63.449219 L 97.679688 52.855469 L 99.222656 54.394531 L 88.628906 64.992188 " fill-opacity="1" fill-rule="nonzero"/><path fill="#231f20" d="M 97.679688 64.992188 L 87.085938 54.394531 L 88.628906 52.855469 L 99.222656 63.449219 L 97.679688 64.992188 " fill-opacity="1" fill-rule="nonzero"/><path fill="#000000" d="M 88.242188 64.605469 L 87.472656 63.835938 L 98.066406 53.238281 L 98.835938 54.007812 L 88.242188 64.605469 " fill-opacity="1" fill-rule="nonzero"/><path fill="#000000" d="M 98.066406 64.605469 L 87.472656 54.007812 L 88.242188 53.238281 L 98.835938 63.835938 L 98.066406 64.605469 " fill-opacity="1" fill-rule="nonzero"/><path fill="#231f20" d="M 150.800781 57.527344 C 148.699219 57.527344 146.988281 59.242188 146.988281 61.34375 C 146.988281 63.449219 148.699219 65.15625 150.800781 65.15625 C 152.902344 65.15625 154.613281 63.449219 154.613281 61.34375 C 154.613281 59.242188 152.902344 57.527344 150.800781 57.527344 Z M 150.800781 67.339844 C 147.496094 67.339844 144.808594 64.648438 144.808594 61.34375 C 144.808594 58.039062 147.496094 55.351562 150.800781 55.351562 C 154.105469 55.351562 156.789062 58.039062 156.789062 61.34375 C 156.789062 64.648438 154.105469 67.339844 150.800781 67.339844 " fill-opacity="1" fill-rule="nonzero"/><path fill="#231f20" d="M 139.214844 54.714844 L 112.523438 54.714844 L 112.523438 52.535156 L 139.214844 52.535156 L 139.214844 54.714844 " fill-opacity="1" fill-rule="nonzero"/><path fill="#231f20" d="M 141.269531 42 L 114.578125 42 L 114.578125 39.824219 L 141.269531 39.824219 L 141.269531 42 " fill-opacity="1" fill-rule="nonzero"/><path fill="#231f20" d="M 106.152344 42 L 90.75 42 L 90.75 39.824219 L 106.152344 39.824219 L 106.152344 42 " fill-opacity="1" fill-rule="nonzero"/><path fill="#231f20" d="M 159.878906 42 L 149.636719 42 L 149.636719 39.824219 L 159.878906 39.824219 L 159.878906 42 " fill-opacity="1" fill-rule="nonzero"/><path fill="#231f20" d="M 138 65.597656 L 125.199219 65.597656 L 125.199219 63.414062 L 138 63.414062 L 138 65.597656 " fill-opacity="1" fill-rule="nonzero"/><path fill="#231f20" d="M 337.898438 51.480469 C 335.796875 51.480469 334.085938 53.191406 334.085938 55.292969 C 334.085938 57.398438 335.796875 59.105469 337.898438 59.105469 C 340 59.105469 341.710938 57.398438 341.710938 55.292969 C 341.710938 53.191406 340 51.480469 337.898438 51.480469 Z M 337.898438 61.289062 C 334.59375 61.289062 331.90625 58.597656 331.90625 55.292969 C 331.90625 51.988281 334.59375 49.300781 337.898438 49.300781 C 341.199219 49.300781 343.890625 51.988281 343.890625 55.292969 C 343.890625 58.597656 341.199219 61.289062 337.898438 61.289062 " fill-opacity="1" fill-rule="nonzero"/><path fill="#231f20" d="M 326.015625 46.019531 L 284.054688 46.019531 L 284.054688 43.839844 L 326.015625 43.839844 L 326.015625 46.019531 " fill-opacity="1" fill-rule="nonzero"/><path fill="#000000" d="M 314.167969 56.382812 L 289.511719 56.382812 L 289.511719 54.203125 L 314.167969 54.203125 L 314.167969 56.382812 " fill-opacity="1" fill-rule="nonzero"/><path fill="#231f20" d="M 325.824219 66.746094 L 308.757812 66.746094 L 308.757812 64.566406 L 325.824219 64.566406 L 325.824219 66.746094 " fill-opacity="1" fill-rule="nonzero"/><path fill="#231f20" d="M 300.316406 66.746094 L 291.03125 66.746094 L 291.03125 64.566406 L 300.316406 64.566406 L 300.316406 66.746094 " fill-opacity="1" fill-rule="nonzero"/><path fill="#000000" d="M 272.730469 151.257812 L 270.550781 151.257812 L 270.550781 130.773438 L 272.730469 130.773438 L 272.730469 151.257812 " fill-opacity="1" fill-rule="nonzero"/><path fill="#231f20" d="M 322.917969 87.472656 L 300.316406 87.472656 L 300.316406 85.292969 L 322.917969 85.292969 L 322.917969 87.472656 " fill-opacity="1" fill-rule="nonzero"/><path fill="#231f20" d="M 345.027344 77.109375 L 319.289062 77.109375 L 319.289062 74.929688 L 345.027344 74.929688 L 345.027344 77.109375 " fill-opacity="1" fill-rule="nonzero"/><path fill="#231f20" d="M 345.027344 97.835938 L 317.742188 97.835938 L 317.742188 95.65625 L 345.027344 95.65625 L 345.027344 97.835938 " fill-opacity="1" fill-rule="nonzero"/><path fill="#231f20" d="M 345.027344 108.199219 L 322.917969 108.199219 L 322.917969 106.023438 L 345.027344 106.023438 L 345.027344 108.199219 " fill-opacity="1" fill-rule="nonzero"/><path fill="#ffffff" d="M 362.679688 186.660156 L 309.847656 186.660156 C 306.386719 186.660156 303.582031 189.464844 303.582031 192.921875 L 303.582031 207.835938 L 286.816406 220.347656 L 303.582031 218.097656 L 303.582031 234.332031 C 303.582031 237.792969 306.386719 240.597656 309.847656 240.597656 L 362.679688 240.597656 C 366.140625 240.597656 368.945312 237.792969 368.945312 234.332031 L 368.945312 192.921875 C 368.945312 189.464844 366.140625 186.660156 362.679688 186.660156 " fill-opacity="1" fill-rule="nonzero"/><path fill="#231f20" d="M 304.671875 216.851562 L 304.671875 234.332031 C 304.671875 237.1875 306.996094 239.507812 309.847656 239.507812 L 362.683594 239.507812 C 365.535156 239.507812 367.855469 237.1875 367.855469 234.332031 L 367.855469 192.921875 C 367.855469 190.070312 365.535156 187.746094 362.683594 187.746094 L 309.847656 187.746094 C 306.996094 187.746094 304.671875 190.070312 304.671875 192.921875 L 304.671875 208.382812 L 290.835938 218.710938 Z M 362.683594 241.691406 L 309.847656 241.691406 C 305.792969 241.691406 302.492188 238.386719 302.492188 234.332031 L 302.492188 219.34375 L 282.800781 221.988281 L 302.492188 207.289062 L 302.492188 192.921875 C 302.492188 188.867188 305.792969 185.570312 309.847656 185.570312 L 362.683594 185.570312 C 366.734375 185.570312 370.035156 188.867188 370.035156 192.921875 L 370.035156 234.332031 C 370.035156 238.386719 366.734375 241.691406 362.683594 241.691406 " fill-opacity="1" fill-rule="nonzero"/><path fill="#ffffff" d="M 361.589844 231.609375 L 311.207031 231.609375 L 311.207031 194.558594 L 361.589844 194.558594 L 361.589844 231.609375 " fill-opacity="1" fill-rule="nonzero"/><path fill="#231f20" d="M 312.296875 230.519531 L 360.5 230.519531 L 360.5 195.648438 L 312.296875 195.648438 Z M 362.683594 232.699219 L 310.121094 232.699219 L 310.121094 193.472656 L 362.683594 193.472656 L 362.683594 232.699219 " fill-opacity="1" fill-rule="nonzero"/><path fill="#231f20" d="M 311.207031 226.976562 L 319.378906 217.171875 L 329.726562 225.34375 L 343.890625 206.546875 L 361.589844 226.976562 L 361.589844 231.609375 L 311.207031 231.609375 L 311.207031 226.976562 " fill-opacity="1" fill-rule="nonzero"/><path fill="#231f20" d="M 325.824219 203.277344 C 325.824219 205.082031 324.359375 206.546875 322.554688 206.546875 C 320.753906 206.546875 319.289062 205.082031 319.289062 203.277344 C 319.289062 201.472656 320.753906 200.007812 322.554688 200.007812 C 324.359375 200.007812 325.824219 201.472656 325.824219 203.277344 " fill-opacity="1" fill-rule="nonzero"/><path fill="#231f20" d="M 271.992188 311.519531 L 115.304688 311.519531 C 111.242188 311.519531 107.953125 308.226562 107.953125 304.164062 L 107.953125 177.03125 C 107.953125 172.96875 111.242188 169.679688 115.304688 169.679688 L 271.992188 169.679688 C 276.050781 169.679688 279.34375 172.96875 279.34375 177.03125 L 279.34375 304.164062 C 279.34375 308.226562 276.050781 311.519531 271.992188 311.519531 " fill-opacity="1" fill-rule="nonzero"/><path fill="#ffffff" d="M 271.914062 306.34375 L 115.378906 306.34375 L 115.378906 183.664062 L 271.914062 183.664062 L 271.914062 306.34375 " fill-opacity="1" fill-rule="nonzero"/><path fill="#231f20" d="M 158.425781 296.71875 L 156.246094 296.71875 L 156.246094 190.199219 L 158.425781 190.199219 L 158.425781 296.71875 " fill-opacity="1" fill-rule="nonzero"/><path fill="#231f20" d="M 207.992188 199.191406 L 169.863281 199.191406 L 169.863281 197.011719 L 207.992188 197.011719 L 207.992188 199.191406 " fill-opacity="1" fill-rule="nonzero"/><path fill="#231f20" d="M 144.265625 199.191406 L 125.199219 199.191406 L 125.199219 197.011719 L 144.265625 197.011719 L 144.265625 199.191406 " fill-opacity="1" fill-rule="nonzero"/><path fill="#231f20" d="M 144.265625 207.632812 L 125.199219 207.632812 L 125.199219 205.457031 L 144.265625 205.457031 L 144.265625 207.632812 " fill-opacity="1" fill-rule="nonzero"/><path fill="#231f20" d="M 220.246094 207.632812 L 169.371094 207.632812 L 169.371094 205.457031 L 220.246094 205.457031 L 220.246094 207.632812 " fill-opacity="1" fill-rule="nonzero"/><path fill="#231f20" d="M 248.570312 216.082031 L 169.371094 216.082031 L 169.371094 213.902344 L 248.570312 213.902344 L 248.570312 216.082031 " fill-opacity="1" fill-rule="nonzero"/><path fill="#231f20" d="M 248.570312 224.527344 L 169.371094 224.527344 L 169.371094 222.347656 L 248.570312 222.347656 L 248.570312 224.527344 " fill-opacity="1" fill-rule="nonzero"/><path fill="#231f20" d="M 248.570312 232.699219 L 213.039062 232.699219 L 213.039062 230.519531 L 248.570312 230.519531 L 248.570312 232.699219 " fill-opacity="1" fill-rule="nonzero"/><path fill="#231f20" d="M 204.722656 232.699219 L 169.371094 232.699219 L 169.371094 230.519531 L 204.722656 230.519531 L 204.722656 232.699219 " fill-opacity="1" fill-rule="nonzero"/><path fill="#231f20" d="M 248.570312 240.871094 L 169.371094 240.871094 L 169.371094 238.691406 L 248.570312 238.691406 L 248.570312 240.871094 " fill-opacity="1" fill-rule="nonzero"/><path fill="#231f20" d="M 248.570312 249.042969 L 200.367188 249.042969 L 200.367188 246.867188 L 248.570312 246.867188 L 248.570312 249.042969 " fill-opacity="1" fill-rule="nonzero"/><path fill="#231f20" d="M 190.5625 249.042969 L 169.371094 249.042969 L 169.371094 246.867188 L 190.5625 246.867188 L 190.5625 249.042969 " fill-opacity="1" fill-rule="nonzero"/><path fill="#231f20" d="M 248.570312 257.21875 L 169.371094 257.21875 L 169.371094 255.035156 L 248.570312 255.035156 L 248.570312 257.21875 " fill-opacity="1" fill-rule="nonzero"/><path fill="#231f20" d="M 248.570312 265.390625 L 169.371094 265.390625 L 169.371094 263.210938 L 248.570312 263.210938 L 248.570312 265.390625 " fill-opacity="1" fill-rule="nonzero"/><path fill="#231f20" d="M 144.265625 216.082031 L 125.199219 216.082031 L 125.199219 213.902344 L 144.265625 213.902344 L 144.265625 216.082031 " fill-opacity="1" fill-rule="nonzero"/><path fill="#231f20" d="M 144.265625 224.527344 L 125.199219 224.527344 L 125.199219 222.347656 L 144.265625 222.347656 L 144.265625 224.527344 " fill-opacity="1" fill-rule="nonzero"/><path fill="#ffffff" d="M 149.988281 311.933594 L 118.625 310.453125 C 118.625 310.453125 115.195312 314.375 122.550781 315.515625 C 129.902344 316.660156 157.351562 323.527344 167.8125 327.289062 C 189.054688 329.738281 225.820312 332.191406 225.820312 332.191406 L 226.203125 305.59375 L 149.988281 311.933594 " fill-opacity="1" fill-rule="nonzero"/><path fill="#231f20" d="M 168.0625 326.21875 C 186.953125 328.390625 218.375 330.589844 224.75 331.027344 L 225.097656 306.777344 L 150.007812 313.027344 L 149.933594 313.023438 L 119.179688 311.566406 C 119.003906 311.890625 118.820312 312.359375 118.96875 312.757812 C 119.101562 313.109375 119.726562 313.976562 122.714844 314.441406 C 130.019531 315.578125 157.496094 322.441406 168.0625 326.21875 Z M 226.894531 333.355469 L 225.75 333.277344 C 225.382812 333.253906 188.710938 330.796875 167.6875 328.367188 L 167.5625 328.355469 L 167.445312 328.3125 C 157.058594 324.578125 129.644531 317.722656 122.378906 316.59375 C 119.289062 316.113281 117.503906 315.101562 116.921875 313.5 C 116.363281 311.960938 117.214844 310.410156 117.804688 309.734375 L 118.152344 309.335938 L 149.964844 310.84375 L 227.3125 304.40625 L 226.894531 333.355469 " fill-opacity="1" fill-rule="nonzero"/><path fill="#ffffff" d="M 224.46875 303.800781 L 207.273438 307.167969 C 207.273438 307.167969 196.734375 303.421875 186.113281 304.730469 C 175.492188 306.039062 173.203125 306.203125 173.203125 306.203125 C 173.203125 306.203125 147.058594 301.84375 148.855469 312.03125 C 163.074219 314.210938 172.386719 316.335938 172.386719 316.335938 C 181.769531 319.160156 186.796875 321.3125 196.742188 320.089844 " fill-opacity="1" fill-rule="nonzero"/><path fill="#231f20" d="M 191.335938 321.53125 C 185.511719 321.53125 181.179688 320.191406 175.300781 318.371094 C 174.289062 318.054688 173.230469 317.726562 172.109375 317.390625 C 171.46875 317.242188 162.261719 315.1875 148.691406 313.109375 L 147.921875 312.992188 L 147.78125 312.21875 C 147.445312 310.316406 147.9375 308.632812 149.203125 307.355469 C 154.269531 302.238281 170.769531 304.699219 173.25 305.105469 C 173.851562 305.054688 176.816406 304.777344 185.980469 303.648438 C 195.882812 302.429688 205.539062 305.4375 207.347656 306.042969 L 224.257812 302.730469 L 224.675781 304.871094 L 207.191406 308.292969 L 206.90625 308.195312 C 206.804688 308.15625 196.476562 304.554688 186.246094 305.8125 C 175.71875 307.109375 173.375 307.28125 173.28125 307.289062 L 173.152344 307.296875 L 173.023438 307.277344 C 168.085938 306.453125 154.457031 305.140625 150.746094 308.890625 C 150.140625 309.503906 149.847656 310.210938 149.855469 311.082031 C 163.484375 313.199219 172.535156 315.25 172.628906 315.273438 L 172.699219 315.292969 C 173.839844 315.636719 174.917969 315.96875 175.945312 316.285156 C 183.265625 318.554688 188.101562 320.054688 196.609375 319.007812 L 196.875 321.167969 C 194.851562 321.417969 193.03125 321.53125 191.335938 321.53125 " fill-opacity="1" fill-rule="nonzero"/><path fill="#fcce4b" d="M 333.953125 331.679688 C 318.5625 335.21875 303.214844 325.605469 299.679688 310.210938 C 296.140625 294.8125 305.753906 279.460938 321.144531 275.925781 C 336.535156 272.386719 351.878906 282 355.417969 297.394531 C 358.957031 312.792969 349.34375 328.140625 333.953125 331.679688 " fill-opacity="1" fill-rule="nonzero"/><g clip-path="url(#32e5602214)"><path fill="#fcce4b" d="M 327.546875 303.800781 L 333.953125 331.679688 C 333.953125 331.679688 302.492188 341.667969 212.894531 337.308594 C 212.894531 317.96875 212.894531 310.339844 212.894531 301.078125 C 292.96875 280.128906 321.144531 275.925781 321.144531 275.925781 L 327.546875 303.800781 " fill-opacity="1" fill-rule="nonzero"/></g><path fill="#231f20" d="M 213.167969 302.132812 L 212.621094 300.023438 C 291.832031 279.300781 320.699219 274.886719 320.984375 274.847656 L 321.304688 277.003906 C 321.023438 277.042969 292.230469 281.449219 213.167969 302.132812 " fill-opacity="1" fill-rule="nonzero"/><path fill="#ffffff" d="M 175.867188 145.285156 L 184.207031 144.554688 L 184.207031 119.1875 L 201.273438 119.1875 L 204.8125 145.433594 L 211.265625 146.292969 C 211.265625 146.292969 209.585938 157.40625 192.886719 157.40625 C 176.179688 157.40625 175.867188 145.285156 175.867188 145.285156 " fill-opacity="1" fill-rule="nonzero"/><path fill="#231f20" d="M 177.082031 146.277344 C 177.585938 149.023438 180.128906 156.316406 192.882812 156.316406 C 205.488281 156.316406 208.992188 149.847656 209.898438 147.210938 L 203.84375 146.402344 L 200.320312 120.28125 L 185.296875 120.28125 L 185.296875 145.550781 Z M 192.882812 158.496094 C 175.324219 158.496094 174.78125 145.449219 174.777344 145.316406 L 174.75 144.292969 L 183.117188 143.554688 L 183.117188 118.097656 L 202.226562 118.097656 L 205.78125 144.460938 L 212.507812 145.359375 L 212.339844 146.457031 C 212.324219 146.578125 210.320312 158.496094 192.882812 158.496094 " fill-opacity="1" fill-rule="nonzero"/><path fill="#231f20" d="M 184.207031 137.792969 L 193.359375 127.03125 L 184.207031 130.375 Z M 184.207031 137.792969 " fill-opacity="1" fill-rule="nonzero"/><path fill="#ffffff" d="M 192.832031 126.160156 C 192.832031 126.160156 183.480469 133.171875 177.671875 129.902344 C 173.347656 127.46875 175.863281 116.660156 179.230469 109.695312 C 180.386719 107.300781 181.640625 105.359375 182.753906 104.367188 C 187.109375 100.480469 193.832031 99.027344 200.367188 102.84375 C 206.902344 106.65625 202.726562 118.78125 192.832031 126.160156 " fill-opacity="1" fill-rule="nonzero"/><path fill="#ffffff" d="M 192.832031 126.160156 C 192.832031 126.160156 183.480469 133.171875 177.671875 129.902344 C 173.347656 127.46875 175.863281 116.660156 179.230469 109.695312 C 180.386719 107.300781 181.640625 105.359375 182.753906 104.367188 C 187.109375 100.480469 193.832031 99.027344 200.367188 102.84375 " fill-opacity="1" fill-rule="nonzero"/><path fill="#231f20" d="M 181.25 131.859375 C 179.816406 131.859375 178.410156 131.570312 177.136719 130.855469 C 171.785156 127.84375 174.980469 115.984375 178.25 109.21875 C 179.136719 107.382812 180.515625 104.90625 182.03125 103.550781 C 186.183594 99.851562 193.324219 97.472656 200.914062 101.902344 L 199.816406 103.785156 C 193.234375 99.945312 187.0625 101.988281 183.480469 105.179688 C 182.519531 106.039062 181.328125 107.855469 180.210938 110.167969 C 176.628906 117.570312 174.925781 127.109375 178.203125 128.953125 C 183.328125 131.835938 192.09375 125.351562 192.175781 125.285156 L 193.484375 127.03125 C 193.160156 127.273438 186.96875 131.859375 181.25 131.859375 " fill-opacity="1" fill-rule="nonzero"/><path fill="#231f20" d="M 180.394531 89.714844 C 184.027344 89.621094 185.011719 95.667969 185.011719 95.667969 C 185.011719 95.667969 188.746094 88.75 193.648438 89.714844 C 198.550781 90.671875 195.824219 97.207031 195.824219 97.207031 C 195.824219 97.207031 199.003906 93.695312 202.363281 94.851562 C 205.175781 95.820312 204.722656 99.390625 204.722656 99.390625 C 204.722656 99.390625 208.257812 97.699219 210.953125 100.058594 C 214.789062 103.417969 210.351562 113.195312 210.351562 113.195312 C 210.351562 113.195312 212.894531 119.550781 209.261719 120.09375 C 209.988281 124.273438 208.71875 126.953125 206.71875 126.160156 C 206.71875 128.996094 204.292969 130.976562 202.601562 128.625 C 201.273438 119.1875 201.273438 119.1875 201.273438 119.1875 L 197.589844 114.066406 C 197.589844 114.066406 192.691406 109.652344 191.832031 104.367188 C 189.292969 107.019531 180.714844 106.113281 180.714844 106.113281 C 180.714844 106.113281 175.851562 104.34375 175.375 97.667969 C 174.964844 91.917969 178.507812 89.761719 180.394531 89.714844 " fill-opacity="1" fill-rule="nonzero"/><path fill="#ffffff" d="M 197.589844 114.066406 C 197.589844 114.066406 201.507812 110.550781 204.917969 112.207031 C 208.324219 113.863281 206.75 120.53125 198.835938 120.753906 " fill-opacity="1" fill-rule="nonzero"/><path fill="#231f20" d="M 198.847656 121.296875 L 198.820312 120.210938 C 203.433594 120.078125 205.566406 117.742188 205.992188 115.78125 C 206.28125 114.414062 205.78125 113.234375 204.683594 112.699219 C 201.636719 111.21875 197.992188 114.441406 197.953125 114.472656 L 197.226562 113.664062 C 197.398438 113.507812 201.464844 109.921875 205.15625 111.71875 C 206.707031 112.472656 207.453125 114.15625 207.054688 116.011719 C 206.550781 118.355469 204.097656 121.148438 198.847656 121.296875 " fill-opacity="1" fill-rule="nonzero"/><path fill="#231f20" d="M 181.070312 122.441406 C 180.328125 122.441406 179.671875 122.242188 179.214844 121.726562 C 179 121.480469 178.746094 121.050781 178.789062 120.414062 C 178.90625 118.53125 182 115.695312 182.945312 114.871094 L 184.378906 116.515625 C 182.84375 117.851562 181.398438 119.503906 181.042969 120.285156 C 181.804688 120.316406 183.703125 119.605469 185.300781 118.695312 L 186.382812 120.589844 C 185.222656 121.25 182.886719 122.4375 181.070312 122.441406 " fill-opacity="1" fill-rule="nonzero"/><path fill="#231f20" d="M 183.445312 125.113281 C 181.617188 125.113281 180.289062 124.605469 180.175781 124.558594 L 180.976562 122.535156 L 180.574219 123.546875 L 180.96875 122.53125 C 181.148438 122.601562 185.375 124.171875 188.640625 120.585938 L 190.25 122.050781 C 188.011719 124.511719 185.433594 125.113281 183.445312 125.113281 " fill-opacity="1" fill-rule="nonzero"/><path fill="#231f20" d="M 192.691406 112.277344 C 192.683594 112.019531 192.503906 111.742188 192.074219 111.453125 C 191.183594 110.859375 189.824219 110.644531 188.777344 110.679688 C 187.75 110.710938 186.28125 111.667969 187.433594 112.722656 C 188.320312 113.539062 192.757812 114.433594 192.691406 112.277344 " fill-opacity="1" fill-rule="nonzero"/><path fill="#231f20" d="M 178.078125 112.695312 C 178.136719 112.742188 178.207031 112.785156 178.285156 112.828125 C 179.785156 113.65625 185.066406 111.367188 183.109375 110.085938 C 181.996094 109.355469 176.652344 111.625 178.078125 112.695312 " fill-opacity="1" fill-rule="nonzero"/><path fill="#231f20" d="M 189.445312 116.257812 C 189.445312 116.757812 189.039062 117.164062 188.539062 117.164062 C 188.039062 117.164062 187.632812 116.757812 187.632812 116.257812 C 187.632812 115.757812 188.039062 115.351562 188.539062 115.351562 C 189.039062 115.351562 189.445312 115.757812 189.445312 116.257812 " fill-opacity="1" fill-rule="nonzero"/><path fill="#231f20" d="M 180.714844 116.257812 C 180.714844 116.757812 180.3125 117.164062 179.8125 117.164062 C 179.3125 117.164062 178.90625 116.757812 178.90625 116.257812 C 178.90625 115.757812 179.3125 115.351562 179.8125 115.351562 C 180.3125 115.351562 180.714844 115.757812 180.714844 116.257812 " fill-opacity="1" fill-rule="nonzero"/><path fill="#ffffff" d="M 366.703125 131.992188 L 313.253906 131.992188 C 309.382812 131.992188 306.242188 135.132812 306.242188 139.007812 L 306.242188 148.390625 L 292.277344 154.738281 L 306.242188 156.898438 L 306.242188 157.121094 C 306.242188 161 309.382812 164.136719 313.253906 164.136719 L 366.703125 164.136719 C 370.574219 164.136719 373.714844 161 373.714844 157.121094 L 373.714844 139.007812 C 373.714844 135.132812 370.574219 131.992188 366.703125 131.992188 " fill-opacity="1" fill-rule="nonzero"/><path fill="#231f20" d="M 296.050781 154.222656 L 307.332031 155.960938 L 307.332031 157.121094 C 307.332031 160.390625 309.988281 163.046875 313.253906 163.046875 L 366.703125 163.046875 C 369.96875 163.046875 372.625 160.390625 372.625 157.121094 L 372.625 139.007812 C 372.625 135.738281 369.96875 133.082031 366.703125 133.082031 L 313.253906 133.082031 C 309.988281 133.082031 307.332031 135.738281 307.332031 139.007812 L 307.332031 149.09375 Z M 366.703125 165.230469 L 313.253906 165.230469 C 309.027344 165.230469 305.546875 161.972656 305.183594 157.835938 L 288.5 155.261719 L 305.152344 147.6875 L 305.152344 139.007812 C 305.152344 134.539062 308.789062 130.902344 313.253906 130.902344 L 366.703125 130.902344 C 371.167969 130.902344 374.804688 134.539062 374.804688 139.007812 L 374.804688 157.121094 C 374.804688 161.59375 371.167969 165.230469 366.703125 165.230469 " fill-opacity="1" fill-rule="nonzero"/><path fill="#231f20" d="M 331.53125 151.28125 C 331.402344 153.007812 330.792969 154.371094 329.703125 155.363281 C 328.609375 156.359375 327.140625 156.851562 325.296875 156.851562 C 323.183594 156.851562 321.523438 156.117188 320.320312 154.640625 C 319.085938 153.164062 318.464844 151.128906 318.464844 148.535156 C 318.464844 145.953125 319.09375 143.929688 320.339844 142.46875 C 321.558594 141.03125 323.226562 140.320312 325.339844 140.320312 C 327.113281 140.320312 328.546875 140.773438 329.636719 141.679688 C 330.714844 142.585938 331.304688 143.792969 331.402344 145.296875 L 329.976562 145.296875 C 329.835938 144.148438 329.355469 143.246094 328.53125 142.59375 C 327.710938 141.945312 326.644531 141.617188 325.339844 141.617188 C 323.652344 141.617188 322.332031 142.203125 321.382812 143.382812 C 320.433594 144.585938 319.957031 146.296875 319.957031 148.511719 C 319.957031 150.738281 320.4375 152.476562 321.40625 153.726562 C 322.367188 154.945312 323.6875 155.554688 325.363281 155.554688 C 326.753906 155.554688 327.863281 155.171875 328.699219 154.40625 C 329.539062 153.652344 330.011719 152.613281 330.125 151.28125 L 331.53125 151.28125 " fill-opacity="1" fill-rule="nonzero"/><path stroke-linecap="butt" transform="matrix(0.0749217, 0, 0, -0.0749448, 0.195647, 338.410641)" fill="none" stroke-linejoin="miter" d="M 4422.422792 2496.897705 C 4420.702246 2473.859903 4412.568759 2455.669421 4398.02233 2442.430503 C 4383.423763 2429.139463 4363.819973 2422.572125 4339.210961 2422.572125 C 4311.004444 2422.572125 4288.845906 2432.37101 4272.787482 2452.073022 C 4256.311957 2471.775034 4248.022056 2498.930453 4248.022056 2533.539278 C 4248.022056 2567.991738 4256.416232 2594.990792 4273.048171 2614.484317 C 4289.315145 2633.665112 4311.577959 2643.151266 4339.784476 2643.151266 C 4363.455009 2643.151266 4382.589559 2637.105146 4397.135988 2625.012905 C 4411.526004 2612.920665 4419.398803 2596.815052 4420.702246 2576.748188 L 4401.671972 2576.748188 C 4399.795013 2592.071975 4393.382071 2604.112094 4382.381008 2612.816422 C 4371.432083 2621.468628 4357.198481 2625.846853 4339.784476 2625.846853 C 4317.260973 2625.846853 4299.638417 2618.028594 4286.968947 2602.287833 C 4274.299476 2586.234342 4267.938672 2563.405026 4267.938672 2533.852008 C 4267.938672 2504.142625 4274.351614 2480.948457 4287.281773 2464.269505 C 4300.107657 2448.007527 4317.730213 2439.876538 4340.097302 2439.876538 C 4358.658337 2439.876538 4373.465455 2444.984467 4384.622931 2455.200325 C 4395.832545 2465.259818 4402.141211 2479.124197 4403.653206 2496.897705 Z M 4422.422792 2496.897705 " stroke="#231f20" stroke-width="20" stroke-opacity="1" stroke-miterlimit="10"/><path fill="#231f20" d="M 335.550781 151.640625 C 335.550781 152.875 335.925781 153.832031 336.679688 154.515625 C 337.445312 155.207031 338.523438 155.554688 339.914062 155.554688 C 341.132812 155.554688 342.089844 155.273438 342.785156 154.703125 C 343.480469 154.152344 343.828125 153.40625 343.828125 152.472656 C 343.828125 151.492188 343.539062 150.761719 342.957031 150.277344 C 342.460938 149.851562 341.53125 149.46875 340.171875 149.128906 L 338.703125 148.769531 C 337.171875 148.371094 336.089844 147.886719 335.46875 147.320312 C 334.769531 146.664062 334.425781 145.738281 334.425781 144.53125 C 334.425781 143.269531 334.878906 142.253906 335.785156 141.488281 C 336.722656 140.707031 337.984375 140.320312 339.574219 140.320312 C 341.21875 140.320312 342.503906 140.734375 343.425781 141.570312 C 344.347656 142.410156 344.820312 143.578125 344.851562 145.085938 L 343.359375 145.085938 C 343.347656 143.964844 343 143.105469 342.320312 142.507812 C 341.652344 141.914062 340.714844 141.617188 339.507812 141.617188 C 338.347656 141.617188 337.453125 141.871094 336.828125 142.382812 C 336.21875 142.890625 335.914062 143.613281 335.914062 144.550781 C 335.914062 145.273438 336.121094 145.851562 336.53125 146.277344 C 336.941406 146.6875 337.617188 147.015625 338.550781 147.257812 L 340.382812 147.703125 C 342.113281 148.128906 343.355469 148.675781 344.105469 149.339844 C 344.898438 150.050781 345.296875 151.035156 345.296875 152.296875 C 345.296875 153.691406 344.816406 154.796875 343.847656 155.621094 C 342.886719 156.445312 341.574219 156.851562 339.914062 156.851562 C 338.027344 156.851562 336.578125 156.410156 335.574219 155.511719 C 334.566406 154.632812 334.0625 153.378906 334.0625 151.746094 L 334.0625 151.640625 L 335.550781 151.640625 " fill-opacity="1" fill-rule="nonzero"/><path stroke-linecap="butt" transform="matrix(0.0749217, 0, 0, -0.0749448, 0.195647, 338.410641)" fill="none" stroke-linejoin="miter" d="M 4476.072525 2492.102507 C 4476.072525 2475.632042 4481.077747 2462.862219 4491.140331 2453.740917 C 4501.359328 2444.515372 4515.749344 2439.876538 4534.310378 2439.876538 C 4550.577353 2439.876538 4563.351099 2443.629302 4572.631616 2451.239074 C 4581.912134 2458.588237 4586.552392 2468.543487 4586.552392 2481.000579 C 4586.552392 2494.135254 4582.6942 2503.829895 4574.925677 2510.292989 C 4568.304184 2515.974257 4555.895402 2521.082186 4537.751469 2525.616776 L 4518.14768 2530.411975 C 4497.709686 2535.72839 4483.267532 2542.191484 4474.977632 2549.749135 C 4465.644977 2558.505584 4461.056856 2570.858433 4461.056856 2586.964046 C 4461.056856 2603.799363 4467.104834 2617.351012 4479.200789 2627.56687 C 4491.713846 2637.991215 4508.554336 2643.151266 4529.774395 2643.151266 C 4551.724383 2643.151266 4568.877699 2637.626363 4581.182205 2626.472314 C 4593.486712 2615.266143 4599.795378 2599.681747 4600.21248 2579.562761 L 4580.295864 2579.562761 C 4580.139451 2594.521696 4575.499192 2605.988476 4566.427225 2613.9631 C 4557.511672 2621.885602 4544.998615 2625.846853 4528.888054 2625.846853 C 4513.403145 2625.846853 4501.463603 2622.458941 4493.121565 2615.630995 C 4484.988078 2608.855171 4480.921334 2599.212652 4480.921334 2586.703438 C 4480.921334 2577.060918 4483.684634 2569.346903 4489.159097 2563.665635 C 4494.633559 2558.192854 4503.653388 2553.814629 4516.114308 2550.583082 L 4540.566907 2544.641205 C 4563.663925 2538.959937 4580.243726 2531.662896 4590.254172 2522.802203 C 4600.838133 2513.316049 4606.156182 2500.181374 4606.156182 2483.346057 C 4606.156182 2464.738601 4599.74324 2449.988153 4586.813081 2438.990469 C 4573.987197 2427.992785 4556.468917 2422.572125 4534.310378 2422.572125 C 4509.127851 2422.572125 4489.78475 2428.46188 4476.385351 2440.449877 C 4462.933814 2452.177265 4456.208046 2468.908339 4456.208046 2490.69522 L 4456.208046 2492.102507 Z M 4476.072525 2492.102507 " stroke="#231f20" stroke-width="20" stroke-opacity="1" stroke-miterlimit="10"/><path fill="#231f20" d="M 349.46875 151.640625 C 349.46875 152.875 349.84375 153.832031 350.59375 154.515625 C 351.363281 155.207031 352.4375 155.554688 353.828125 155.554688 C 355.050781 155.554688 356.007812 155.273438 356.703125 154.703125 C 357.398438 154.152344 357.746094 153.40625 357.746094 152.472656 C 357.746094 151.492188 357.453125 150.761719 356.871094 150.277344 C 356.375 149.851562 355.445312 149.46875 354.082031 149.128906 L 352.617188 148.769531 C 351.082031 148.371094 350.007812 147.886719 349.382812 147.320312 C 348.6875 146.664062 348.339844 145.738281 348.339844 144.53125 C 348.339844 143.269531 348.792969 142.253906 349.703125 141.488281 C 350.636719 140.707031 351.902344 140.320312 353.488281 140.320312 C 355.132812 140.320312 356.417969 140.734375 357.339844 141.570312 C 358.261719 142.410156 358.738281 143.578125 358.765625 145.085938 L 357.277344 145.085938 C 357.261719 143.964844 356.914062 143.105469 356.234375 142.507812 C 355.566406 141.914062 354.632812 141.617188 353.425781 141.617188 C 352.261719 141.617188 351.367188 141.871094 350.746094 142.382812 C 350.132812 142.890625 349.828125 143.613281 349.828125 144.550781 C 349.828125 145.273438 350.035156 145.851562 350.445312 146.277344 C 350.859375 146.6875 351.53125 147.015625 352.46875 147.257812 L 354.296875 147.703125 C 356.027344 148.128906 357.269531 148.675781 358.019531 149.339844 C 358.816406 150.050781 359.210938 151.035156 359.210938 152.296875 C 359.210938 153.691406 358.730469 154.796875 357.765625 155.621094 C 356.800781 156.445312 355.488281 156.851562 353.828125 156.851562 C 351.941406 156.851562 350.496094 156.410156 349.488281 155.511719 C 348.480469 154.632812 347.980469 153.378906 347.980469 151.746094 L 347.980469 151.640625 L 349.46875 151.640625 " fill-opacity="1" fill-rule="nonzero"/><path stroke-linecap="butt" transform="matrix(0.0749217, 0, 0, -0.0749448, 0.195647, 338.410641)" fill="none" stroke-linejoin="miter" d="M 4661.839287 2492.102507 C 4661.839287 2475.632042 4666.84451 2462.862219 4676.854956 2453.740917 C 4687.12609 2444.515372 4701.463968 2439.876538 4720.025003 2439.876538 C 4736.344115 2439.876538 4749.117861 2443.629302 4758.398379 2451.239074 C 4767.678896 2458.588237 4772.319155 2468.543487 4772.319155 2481.000579 C 4772.319155 2494.135254 4768.408824 2503.829895 4760.640301 2510.292989 C 4754.018809 2515.974257 4741.610027 2521.082186 4723.413956 2525.616776 L 4703.862304 2530.411975 C 4683.424311 2535.72839 4669.034295 2542.191484 4660.692257 2549.749135 C 4651.411739 2558.505584 4646.77148 2570.858433 4646.77148 2586.964046 C 4646.77148 2603.799363 4652.819458 2617.351012 4664.967551 2627.56687 C 4677.428471 2637.991215 4694.321098 2643.151266 4715.48902 2643.151266 C 4737.439008 2643.151266 4754.592324 2637.626363 4766.89683 2626.472314 C 4779.201336 2615.266143 4785.56214 2599.681747 4785.927105 2579.562761 L 4766.062626 2579.562761 C 4765.854075 2594.521696 4761.213817 2605.988476 4752.14185 2613.9631 C 4743.226297 2621.885602 4730.765377 2625.846853 4714.654816 2625.846853 C 4699.11777 2625.846853 4687.178228 2622.458941 4678.888327 2615.630995 C 4670.702702 2608.855171 4666.635959 2599.212652 4666.635959 2586.703438 C 4666.635959 2577.060918 4669.399259 2569.346903 4674.873722 2563.665635 C 4680.400322 2558.192854 4689.368013 2553.814629 4701.88107 2550.583082 L 4726.281532 2544.641205 C 4749.37855 2538.959937 4765.958351 2531.662896 4775.968797 2522.802203 C 4786.604895 2513.316049 4791.870807 2500.181374 4791.870807 2483.346057 C 4791.870807 2464.738601 4785.457865 2449.988153 4772.579844 2438.990469 C 4759.701822 2427.992785 4742.183542 2422.572125 4720.025003 2422.572125 C 4694.842475 2422.572125 4675.551512 2428.46188 4662.099976 2440.449877 C 4648.648439 2452.177265 4641.974809 2468.908339 4641.974809 2490.69522 L 4641.974809 2492.102507 Z M 4661.839287 2492.102507 " stroke="#231f20" stroke-width="20" stroke-opacity="1" stroke-miterlimit="10"/><path fill="#ffffff" d="M 312.144531 273.882812 L 269.917969 273.882812 C 267.316406 273.882812 265.210938 271.773438 265.210938 269.175781 L 265.210938 257.019531 C 265.210938 254.421875 267.316406 252.3125 269.917969 252.3125 L 312.144531 252.3125 C 314.742188 252.3125 316.851562 254.421875 316.851562 257.019531 L 316.851562 269.175781 C 316.851562 271.773438 314.742188 273.882812 312.144531 273.882812 " fill-opacity="1" fill-rule="nonzero"/><path fill="#231f20" d="M 269.917969 253.402344 C 267.921875 253.402344 266.300781 255.023438 266.300781 257.019531 L 266.300781 269.175781 C 266.300781 271.167969 267.921875 272.792969 269.917969 272.792969 L 312.144531 272.792969 C 314.136719 272.792969 315.761719 271.167969 315.761719 269.175781 L 315.761719 257.019531 C 315.761719 255.023438 314.136719 253.402344 312.144531 253.402344 Z M 312.144531 274.96875 L 269.917969 274.96875 C 266.722656 274.96875 264.121094 272.371094 264.121094 269.175781 L 264.121094 257.019531 C 264.121094 253.824219 266.722656 251.222656 269.917969 251.222656 L 312.144531 251.222656 C 315.339844 251.222656 317.941406 253.824219 317.941406 257.019531 L 317.941406 269.175781 C 317.941406 272.371094 315.339844 274.96875 312.144531 274.96875 " fill-opacity="1" fill-rule="nonzero"/><path fill="#231f20" d="M 273.640625 257.765625 L 274.605469 257.765625 L 274.605469 262.375 L 280.636719 262.375 L 280.636719 257.765625 L 281.601562 257.765625 L 281.601562 268.367188 L 280.636719 268.367188 L 280.636719 263.238281 L 274.605469 263.238281 L 274.605469 268.367188 L 273.640625 268.367188 L 273.640625 257.765625 " fill-opacity="1" fill-rule="nonzero"/><path stroke-linecap="butt" transform="matrix(0.0749217, 0, 0, -0.0749448, 0.195647, 338.410641)" fill="none" stroke-linejoin="miter" d="M 3649.741507 1076.059481 L 3662.619528 1076.059481 L 3662.619528 1014.555845 L 3743.120196 1014.555845 L 3743.120196 1076.059481 L 3755.998218 1076.059481 L 3755.998218 934.601119 L 3743.120196 934.601119 L 3743.120196 1003.036944 L 3662.619528 1003.036944 L 3662.619528 934.601119 L 3649.741507 934.601119 Z M 3649.741507 1076.059481 " stroke="#231f20" stroke-width="10" stroke-opacity="1" stroke-miterlimit="10"/><path fill="#231f20" d="M 286.539062 258.640625 L 283.25 258.640625 L 283.25 257.765625 L 290.804688 257.765625 L 290.804688 258.640625 L 287.503906 258.640625 L 287.503906 268.367188 L 286.539062 268.367188 L 286.539062 258.640625 " fill-opacity="1" fill-rule="nonzero"/><path stroke-linecap="butt" transform="matrix(0.0749217, 0, 0, -0.0749448, 0.195647, 338.410641)" fill="none" stroke-linejoin="miter" d="M 3821.900319 1064.384215 L 3778.000343 1064.384215 L 3778.000343 1076.059481 L 3878.83473 1076.059481 L 3878.83473 1064.384215 L 3834.778341 1064.384215 L 3834.778341 934.601119 L 3821.900319 934.601119 Z M 3821.900319 1064.384215 " stroke="#231f20" stroke-width="10" stroke-opacity="1" stroke-miterlimit="10"/><path fill="#231f20" d="M 293.136719 257.765625 L 294.503906 257.765625 L 297.71875 266.84375 L 300.921875 257.765625 L 302.289062 257.765625 L 302.289062 268.367188 L 301.339844 268.367188 L 301.339844 259.242188 L 298.121094 268.367188 L 297.289062 268.367188 L 294.085938 259.242188 L 294.085938 268.367188 L 293.136719 268.367188 L 293.136719 257.765625 " fill-opacity="1" fill-rule="nonzero"/><path stroke-linecap="butt" transform="matrix(0.0749217, 0, 0, -0.0749448, 0.195647, 338.410641)" fill="none" stroke-linejoin="miter" d="M 3909.96096 1076.059481 L 3928.209168 1076.059481 L 3971.118527 954.928592 L 4013.871473 1076.059481 L 4032.119681 1076.059481 L 4032.119681 934.601119 L 4019.450211 934.601119 L 4019.450211 1056.357469 L 3976.488714 934.601119 L 3965.383376 934.601119 L 3922.63043 1056.357469 L 3922.63043 934.601119 L 3909.96096 934.601119 Z M 3909.96096 1076.059481 " stroke="#231f20" stroke-width="10" stroke-opacity="1" stroke-miterlimit="10"/><path fill="#231f20" d="M 305.617188 257.765625 L 306.582031 257.765625 L 306.582031 267.492188 L 312.007812 267.492188 L 312.007812 268.367188 L 305.617188 268.367188 L 305.617188 257.765625 " fill-opacity="1" fill-rule="nonzero"/><path stroke-linecap="butt" transform="matrix(0.0749217, 0, 0, -0.0749448, 0.195647, 338.410641)" fill="none" stroke-linejoin="miter" d="M 4076.541034 1076.059481 L 4089.419056 1076.059481 L 4089.419056 946.276386 L 4161.838374 946.276386 L 4161.838374 934.601119 L 4076.541034 934.601119 Z M 4076.541034 1076.059481 " stroke="#231f20" stroke-width="10" stroke-opacity="1" stroke-miterlimit="10"/><path fill="#ffffff" d="M 131.515625 295.003906 L 73.128906 295.003906 C 69.902344 295.003906 67.28125 292.382812 67.28125 289.152344 L 67.28125 241.160156 C 67.28125 237.929688 69.902344 235.3125 73.128906 235.3125 L 131.515625 235.3125 C 134.746094 235.3125 137.363281 237.929688 137.363281 241.160156 L 137.363281 289.152344 C 137.363281 292.382812 134.746094 295.003906 131.515625 295.003906 " fill-opacity="1" fill-rule="nonzero"/><path fill="#231f20" d="M 73.128906 236.398438 C 70.507812 236.398438 68.371094 238.535156 68.371094 241.160156 L 68.371094 289.152344 C 68.371094 291.777344 70.507812 293.914062 73.128906 293.914062 L 131.511719 293.914062 C 134.140625 293.914062 136.273438 291.777344 136.273438 289.152344 L 136.273438 241.160156 C 136.273438 238.535156 134.140625 236.398438 131.511719 236.398438 Z M 131.511719 296.09375 L 73.128906 296.09375 C 69.304688 296.09375 66.195312 292.980469 66.195312 289.152344 L 66.195312 241.160156 C 66.195312 237.335938 69.304688 234.21875 73.128906 234.21875 L 131.511719 234.21875 C 135.339844 234.21875 138.453125 237.335938 138.453125 241.160156 L 138.453125 289.152344 C 138.453125 292.980469 135.339844 296.09375 131.511719 296.09375 " fill-opacity="1" fill-rule="nonzero"/><path fill="#231f20" d="M 137.363281 248.417969 L 67.28125 248.417969 L 67.28125 246.238281 L 137.363281 246.238281 L 137.363281 248.417969 " fill-opacity="1" fill-rule="nonzero"/><path fill="#231f20" d="M 96.410156 283.75 L 94.4375 282.832031 L 107.097656 255.585938 L 109.074219 256.507812 L 96.410156 283.75 " fill-opacity="1" fill-rule="nonzero"/><path fill="#231f20" d="M 113.101562 278.390625 L 112.058594 276.476562 L 125.417969 269.199219 L 111.03125 262.480469 L 111.953125 260.507812 L 130.25 269.046875 L 113.101562 278.390625 " fill-opacity="1" fill-rule="nonzero"/><path fill="#231f20" d="M 92.265625 278.390625 L 75.117188 269.046875 L 93.414062 260.507812 L 94.332031 262.480469 L 79.949219 269.199219 L 93.304688 276.476562 L 92.265625 278.390625 " fill-opacity="1" fill-rule="nonzero"/></svg>