<svg xmlns="http://www.w3.org/2000/svg" xmlns:xlink="http://www.w3.org/1999/xlink" width="500" zoomAndPan="magnify" viewBox="0 0 375 374.999991" height="500" preserveAspectRatio="xMidYMid meet" version="1.0"><rect x="-37.5" width="450" fill="#ffffff" y="-37.499999" height="449.999989" fill-opacity="1"/><rect x="-37.5" width="450" fill="#ffffff" y="-37.499999" height="449.999989" fill-opacity="1"/><path fill="#caddff" d="M 343.890625 213.074219 C 338.261719 146.445312 375 116.859375 357.453125 80.105469 C 346.203125 56.523438 322.546875 44.074219 308.117188 36.234375 C 245.753906 2.359375 160.792969 11.378906 104.320312 42.96875 C 48.582031 74.148438 0.00390625 147.980469 20.367188 228.195312 C 40.808594 308.71875 120.367188 350.125 180.542969 358.898438 C 276.09375 372.839844 356.378906 309.425781 360.773438 287.414062 C 362.128906 280.625 361.773438 274.613281 361.773438 274.613281 C 360.078125 258.722656 346.949219 249.285156 343.890625 213.074219 " fill-opacity="1" fill-rule="nonzero"/><path fill="#99b9ff" d="M 38.828125 352.953125 L 127.191406 253.871094 L 179.304688 253.871094 L 251.511719 171.71875 L 303.625 171.71875 L 361.511719 179.953125 L 120.175781 361.351562 L 97.140625 361.59375 L 38.828125 352.953125 " fill-opacity="1" fill-rule="nonzero"/><path fill="#5479f7" d="M 251.511719 171.71875 L 311.164062 181.117188 L 362.398438 180.128906 L 303.027344 171.71875 L 251.511719 171.71875 " fill-opacity="1" fill-rule="nonzero"/><path fill="#5479f7" d="M 127.191406 253.875 L 182.636719 263.355469 L 238.078125 262.339844 L 178.707031 253.875 L 127.191406 253.875 " fill-opacity="1" fill-rule="nonzero"/><path fill="#ffffff" d="M 362.011719 180.101562 L 310.886719 180.101562 L 240.480469 262.257812 L 182.351562 262.257812 L 97.140625 361.59375 L 362.011719 361.59375 L 362.011719 180.101562 " fill-opacity="1" fill-rule="nonzero"/><path fill="#5479f7" d="M 131.472656 362.160156 L 97.140625 362.160156 C 96.894531 362.160156 96.671875 362.015625 96.566406 361.792969 C 96.464844 361.570312 96.503906 361.308594 96.664062 361.121094 L 181.875 262.066406 C 181.996094 261.929688 182.167969 261.847656 182.347656 261.847656 L 240.195312 261.847656 L 310.40625 179.675781 C 310.527344 179.53125 310.699219 179.453125 310.886719 179.453125 L 362.199219 179.453125 C 362.546875 179.453125 362.828125 179.734375 362.828125 180.082031 C 362.828125 180.429688 362.546875 180.710938 362.199219 180.710938 L 311.175781 180.710938 L 240.960938 262.886719 C 240.839844 263.027344 240.667969 263.105469 240.480469 263.105469 L 182.636719 263.105469 L 98.507812 360.902344 L 131.472656 360.902344 C 131.820312 360.902344 132.101562 361.183594 132.101562 361.53125 C 132.101562 361.878906 131.820312 362.160156 131.472656 362.160156 " fill-opacity="1" fill-rule="nonzero"/><path fill="#5479f7" d="M 362.199219 211.882812 C 361.851562 211.882812 361.570312 211.601562 361.570312 211.253906 L 361.570312 180.082031 C 361.570312 179.734375 361.851562 179.453125 362.199219 179.453125 C 362.546875 179.453125 362.828125 179.734375 362.828125 180.082031 L 362.828125 211.253906 C 362.828125 211.601562 362.546875 211.882812 362.199219 211.882812 " fill-opacity="1" fill-rule="nonzero"/><path fill="#caddff" d="M 167.707031 350.058594 C 167.5625 350.058594 167.417969 350.007812 167.300781 349.90625 C 167.035156 349.683594 167.003906 349.285156 167.226562 349.019531 L 198.691406 312.0625 C 198.914062 311.800781 199.3125 311.769531 199.578125 311.992188 C 199.84375 312.21875 199.871094 312.613281 199.648438 312.878906 L 168.1875 349.835938 C 168.0625 349.980469 167.886719 350.058594 167.707031 350.058594 " fill-opacity="1" fill-rule="nonzero"/><path fill="#caddff" d="M 162.886719 326.484375 C 162.742188 326.484375 162.597656 326.433594 162.480469 326.335938 C 162.21875 326.109375 162.183594 325.710938 162.410156 325.449219 L 172.402344 313.710938 C 172.628906 313.445312 173.027344 313.414062 173.289062 313.636719 C 173.554688 313.863281 173.585938 314.257812 173.359375 314.523438 L 163.367188 326.265625 C 163.242188 326.410156 163.066406 326.484375 162.886719 326.484375 " fill-opacity="1" fill-rule="nonzero"/><path fill="#99b9ff" d="M 66.964844 167.699219 C 66.964844 167.699219 90.589844 180.199219 98.015625 176.371094 C 105.441406 172.542969 117.027344 156 117.027344 156 L 113.429688 148.007812 C 113.429688 148.007812 100.59375 169.34375 76.707031 158.136719 C 71.273438 155.589844 66.964844 167.699219 66.964844 167.699219 " fill-opacity="1" fill-rule="nonzero"/><path fill="#000000" d="M 67.75 167.398438 C 71.164062 169.144531 91.25 179.152344 97.726562 175.8125 C 104.394531 172.375 114.722656 158.148438 116.308594 155.929688 L 113.320312 149.300781 C 112.085938 151.046875 109.089844 154.804688 104.363281 157.804688 C 98.578125 161.476562 89.035156 164.617188 76.4375 158.707031 C 75.636719 158.328125 74.839844 158.316406 74.003906 158.664062 C 70.898438 159.960938 68.441406 165.652344 67.75 167.398438 Z M 94.316406 177.714844 C 84.683594 177.714844 67.511719 168.695312 66.671875 168.253906 C 66.394531 168.105469 66.265625 167.78125 66.371094 167.488281 C 66.492188 167.148438 69.34375 159.246094 73.519531 157.503906 C 74.683594 157.019531 75.847656 157.039062 76.972656 157.566406 C 86.65625 162.109375 95.628906 161.839844 103.648438 156.769531 C 109.660156 152.964844 112.859375 147.734375 112.890625 147.679688 C 113.011719 147.484375 113.230469 147.367188 113.464844 147.378906 C 113.699219 147.394531 113.90625 147.535156 114 147.75 L 117.601562 155.742188 C 117.691406 155.941406 117.671875 156.179688 117.542969 156.359375 C 117.066406 157.039062 105.78125 173.078125 98.304688 176.929688 C 97.238281 177.476562 95.875 177.714844 94.316406 177.714844 " fill-opacity="1" fill-rule="nonzero"/><path fill="#5479f7" d="M 189.667969 180.839844 C 166.996094 177.605469 151.207031 156.761719 154.410156 134.28125 C 157.613281 111.800781 178.589844 96.195312 201.265625 99.425781 C 223.9375 102.660156 239.726562 123.503906 236.523438 145.984375 C 233.320312 168.46875 212.34375 184.070312 189.667969 180.839844 Z M 280.367188 165.183594 L 270.542969 158.214844 C 268.960938 157.085938 268.144531 155.164062 268.488281 153.261719 C 268.855469 151.257812 269.136719 149.246094 269.332031 147.242188 C 269.515625 145.324219 270.824219 143.703125 272.648438 143.050781 L 283.972656 139.003906 C 286.199219 138.207031 287.574219 135.980469 287.277344 133.648438 L 286.0625 124.144531 C 285.765625 121.808594 283.871094 119.984375 281.511719 119.757812 L 269.492188 118.578125 C 267.546875 118.386719 265.878906 117.113281 265.214844 115.289062 C 264.527344 113.402344 263.761719 111.546875 262.921875 109.71875 C 262.109375 107.957031 262.402344 105.890625 263.660156 104.410156 L 270.472656 96.394531 L 273.011719 101.898438 L 276.777344 80.78125 L 262.777344 79.460938 C 261.738281 79.234375 260.628906 79.328125 259.605469 79.789062 L 248.640625 84.71875 C 246.863281 85.515625 244.78125 85.238281 243.285156 83.988281 C 241.742188 82.699219 240.140625 81.46875 238.476562 80.296875 C 236.882812 79.171875 236.089844 77.230469 236.429688 75.320312 L 238.539062 63.542969 C 238.707031 62.601562 238.597656 61.667969 238.265625 60.828125 L 239.253906 55.273438 L 225.539062 53.976562 C 223.636719 53.632812 221.664062 54.382812 220.503906 55.988281 L 213.503906 65.710938 C 212.375 67.28125 210.433594 68.089844 208.519531 67.738281 C 206.496094 67.371094 204.46875 67.085938 202.449219 66.890625 C 202.121094 66.859375 201.808594 66.792969 201.5 66.699219 L 204.398438 50.457031 L 190.421875 49.136719 C 189.867188 49.015625 189.285156 48.984375 188.695312 49.054688 L 179.117188 50.238281 C 176.761719 50.527344 174.929688 52.394531 174.703125 54.738281 L 173.546875 66.65625 C 173.363281 68.574219 172.09375 70.234375 170.269531 70.882812 C 168.351562 71.566406 166.460938 72.328125 164.605469 73.164062 C 163.1875 73.800781 161.578125 73.71875 160.226562 73.023438 L 161.109375 65.019531 L 148.417969 63.765625 C 146.855469 63.226562 145.078125 63.464844 143.699219 64.5 L 136.007812 70.273438 C 134.121094 71.695312 133.476562 74.222656 134.460938 76.367188 L 139.460938 87.253906 C 140.269531 89.019531 139.992188 91.082031 138.738281 92.5625 C 137.441406 94.089844 136.207031 95.675781 135.03125 97.320312 C 134 98.757812 132.289062 99.53125 130.539062 99.402344 L 131.390625 98.683594 L 118.667969 97.3125 L 118.136719 97.21875 C 115.800781 96.800781 113.492188 98.042969 112.570312 100.210938 L 108.832031 109.03125 C 107.914062 111.199219 108.636719 113.714844 110.566406 115.082031 L 120.386719 122.054688 C 121.972656 123.175781 122.789062 125.105469 122.445312 127 C 122.078125 129.007812 121.796875 131.015625 121.601562 133.023438 C 121.414062 134.9375 120.109375 136.566406 118.285156 137.214844 L 106.960938 141.261719 C 104.730469 142.058594 103.359375 144.28125 103.65625 146.617188 L 104.871094 156.121094 C 105.144531 158.246094 106.730469 159.9375 108.789062 160.402344 L 108.78125 160.40625 L 108.851562 160.417969 C 108.925781 160.433594 109 160.449219 109.078125 160.460938 L 123.261719 163.203125 L 121.484375 161.691406 C 123.398438 161.898438 125.054688 163.148438 125.710938 164.949219 C 126.402344 166.855469 127.175781 168.730469 128.023438 170.574219 C 128.832031 172.324219 128.523438 174.386719 127.269531 175.859375 L 119.5 185.003906 C 117.972656 186.796875 117.90625 189.410156 119.34375 191.285156 L 125.183594 198.792969 C 126.078125 199.964844 127.40625 200.222656 128.804688 200.640625 L 143.199219 203.433594 L 143.46875 195.125 C 144.9375 194.855469 146.472656 195.261719 147.648438 196.242188 C 149.1875 197.53125 150.792969 198.78125 152.453125 199.949219 C 154.050781 201.078125 154.84375 203.027344 154.503906 204.9375 L 152.394531 216.71875 C 151.980469 219.03125 153.238281 221.332031 155.425781 222.246094 L 164.328125 225.976562 C 164.957031 226.242188 165.609375 226.367188 166.257812 226.375 C 166.222656 226.394531 166.195312 226.414062 166.195312 226.414062 L 180.429688 229.148438 C 180.429688 229.148438 178.574219 217.96875 178.625 218.128906 C 178.65625 218.21875 174.730469 220.820312 171.28125 223.085938 L 177.429688 214.554688 C 178.558594 212.984375 180.496094 212.175781 182.410156 212.527344 C 184.433594 212.894531 186.464844 213.179688 188.484375 213.375 C 190.417969 213.566406 192.058594 214.863281 192.71875 216.675781 L 196.847656 227.921875 C 197.546875 229.839844 199.308594 231.238281 201.347656 231.238281 L 216.046875 233.996094 L 215.171875 228.160156 C 215.757812 227.421875 216.136719 226.515625 216.234375 225.527344 L 217.386719 213.609375 C 217.574219 211.679688 218.859375 210.027344 220.691406 209.375 C 222.59375 208.695312 224.460938 207.945312 226.300781 207.117188 C 228.074219 206.316406 230.160156 206.609375 231.65625 207.859375 L 240.898438 215.59375 C 241.664062 216.230469 242.570312 216.613281 243.503906 216.734375 L 257.054688 219.359375 L 257.300781 204.046875 L 256.71875 204.578125 C 256.65625 204.347656 256.574219 204.121094 256.46875 203.898438 L 251.472656 193.011719 C 250.660156 191.25 250.9375 189.183594 252.191406 187.707031 C 253.488281 186.179688 254.726562 184.589844 255.902344 182.945312 C 257.035156 181.367188 258.988281 180.582031 260.917969 180.925781 L 272.796875 183.046875 C 275.128906 183.464844 277.441406 182.222656 278.359375 180.054688 L 282.097656 171.234375 C 283.019531 169.066406 282.296875 166.554688 280.367188 165.183594 " fill-opacity="1" fill-rule="nonzero"/><path fill="#ffffff" d="M 204.351562 182.929688 C 181.679688 179.699219 165.890625 158.851562 169.09375 136.371094 C 172.296875 113.890625 193.273438 98.289062 215.945312 101.519531 C 238.621094 104.75 254.40625 125.597656 251.207031 148.078125 C 248.003906 170.558594 227.027344 186.164062 204.351562 182.929688 Z M 295.050781 167.277344 L 285.226562 160.304688 C 283.644531 159.179688 282.824219 157.253906 283.171875 155.355469 C 283.535156 153.351562 283.820312 151.339844 284.015625 149.335938 C 284.199219 147.417969 285.507812 145.792969 287.328125 145.140625 L 298.65625 141.09375 C 300.886719 140.300781 302.257812 138.074219 301.957031 135.738281 L 300.742188 126.234375 C 300.445312 123.898438 298.554688 122.078125 296.195312 121.847656 L 284.175781 120.671875 C 282.230469 120.480469 280.558594 119.203125 279.898438 117.382812 C 279.210938 115.492188 278.445312 113.636719 277.605469 111.8125 C 276.792969 110.050781 277.085938 107.984375 278.34375 106.503906 L 286.117188 97.355469 C 287.644531 95.558594 287.707031 92.949219 286.273438 91.070312 L 280.429688 83.429688 C 278.996094 81.550781 276.445312 80.910156 274.285156 81.878906 L 263.320312 86.808594 C 261.546875 87.609375 259.460938 87.328125 257.96875 86.082031 C 256.425781 84.792969 254.824219 83.5625 253.164062 82.390625 C 251.566406 81.265625 250.773438 79.320312 251.113281 77.414062 L 253.222656 65.636719 C 253.636719 63.320312 252.378906 61.023438 250.191406 60.109375 L 241.285156 56.378906 C 239.101562 55.460938 236.566406 56.167969 235.191406 58.082031 L 228.1875 67.804688 C 227.0625 69.375 225.117188 70.179688 223.203125 69.832031 C 221.179688 69.464844 219.152344 69.179688 217.128906 68.980469 C 215.199219 68.792969 213.558594 67.496094 212.894531 65.683594 L 208.785156 54.441406 C 207.976562 52.226562 205.734375 50.859375 203.378906 51.148438 L 193.800781 52.328125 C 191.445312 52.621094 189.613281 54.488281 189.386719 56.832031 L 188.230469 68.75 C 188.042969 70.667969 186.777344 72.324219 184.953125 72.976562 C 183.035156 73.65625 181.144531 74.417969 179.289062 75.253906 C 177.519531 76.054688 175.445312 75.738281 173.957031 74.496094 L 164.71875 66.765625 C 162.902344 65.246094 160.269531 65.175781 158.382812 66.59375 L 150.691406 72.367188 C 148.804688 73.785156 148.160156 76.316406 149.144531 78.457031 L 154.144531 89.347656 C 154.953125 91.109375 154.675781 93.175781 153.421875 94.65625 C 152.125 96.179688 150.890625 97.765625 149.714844 99.414062 C 148.582031 100.992188 146.625 101.773438 144.699219 101.433594 L 132.820312 99.308594 C 130.484375 98.890625 128.171875 100.136719 127.253906 102.304688 L 123.515625 111.125 C 122.597656 113.289062 123.316406 115.804688 125.25 117.175781 L 135.070312 124.144531 C 136.65625 125.269531 137.472656 127.195312 137.125 129.09375 C 136.761719 131.101562 136.480469 133.109375 136.285156 135.117188 C 136.097656 137.03125 134.792969 138.65625 132.96875 139.308594 L 121.644531 143.355469 C 119.414062 144.152344 118.042969 146.375 118.339844 148.710938 L 119.554688 158.214844 C 119.851562 160.550781 121.742188 162.371094 124.101562 162.601562 L 136.121094 163.777344 C 138.054688 163.96875 139.730469 165.226562 140.390625 167.039062 C 141.085938 168.945312 141.859375 170.824219 142.707031 172.667969 C 143.515625 174.421875 143.203125 176.480469 141.953125 177.953125 L 134.183594 187.09375 C 132.65625 188.890625 132.589844 191.503906 134.027344 193.378906 L 139.867188 201.019531 C 141.300781 202.898438 143.855469 203.542969 146.011719 202.570312 L 156.976562 197.640625 C 158.753906 196.839844 160.835938 197.121094 162.328125 198.367188 C 163.871094 199.660156 165.476562 200.890625 167.136719 202.058594 C 168.734375 203.183594 169.527344 205.125 169.1875 207.035156 L 167.078125 218.8125 C 166.664062 221.132812 167.921875 223.425781 170.109375 224.34375 L 179.011719 228.070312 C 181.199219 228.988281 183.730469 228.28125 185.109375 226.367188 L 192.109375 216.644531 C 193.242188 215.078125 195.183594 214.269531 197.097656 214.617188 C 199.117188 214.984375 201.144531 215.269531 203.171875 215.46875 C 205.101562 215.65625 206.742188 216.957031 207.402344 218.769531 L 211.511719 230.011719 C 212.320312 232.222656 214.566406 233.589844 216.921875 233.300781 L 226.5 232.121094 C 228.851562 231.832031 230.6875 229.964844 230.914062 227.621094 L 232.066406 215.699219 C 232.253906 213.773438 233.539062 212.121094 235.375 211.46875 C 237.273438 210.789062 239.144531 210.035156 240.980469 209.207031 C 242.757812 208.40625 244.84375 208.703125 246.339844 209.953125 L 255.582031 217.683594 C 257.398438 219.203125 260.027344 219.277344 261.917969 217.859375 L 269.609375 212.082031 C 271.496094 210.664062 272.140625 208.132812 271.15625 205.988281 L 266.15625 195.105469 C 265.347656 193.34375 265.621094 191.273438 266.878906 189.796875 C 268.171875 188.269531 269.410156 186.683594 270.585938 185.039062 C 271.71875 183.457031 273.675781 182.675781 275.601562 183.019531 L 287.476562 185.140625 C 289.8125 185.554688 292.125 184.3125 293.042969 182.148438 L 296.78125 173.324219 C 297.699219 171.160156 296.980469 168.644531 295.050781 167.277344 " fill-opacity="1" fill-rule="nonzero"/><path fill="#000000" d="M 204.441406 182.308594 C 215.242188 183.851562 225.992188 181.125 234.707031 174.640625 C 243.421875 168.160156 249.058594 158.695312 250.585938 147.988281 C 253.730469 125.886719 238.152344 105.320312 215.859375 102.140625 C 193.558594 98.964844 172.863281 114.359375 169.714844 136.460938 C 166.566406 158.566406 182.144531 179.132812 204.441406 182.308594 Z M 210.34375 183.988281 C 208.324219 183.988281 206.296875 183.84375 204.261719 183.554688 C 181.28125 180.277344 165.226562 159.070312 168.472656 136.285156 C 171.714844 113.496094 193.050781 97.621094 216.035156 100.898438 C 239.015625 104.171875 255.074219 125.378906 251.828125 148.164062 C 250.253906 159.207031 244.441406 168.96875 235.457031 175.652344 C 228.113281 181.117188 219.371094 183.988281 210.34375 183.988281 Z M 196.214844 213.910156 C 196.542969 213.910156 196.878906 213.9375 197.207031 214 C 199.210938 214.363281 201.234375 214.648438 203.230469 214.84375 C 205.378906 215.050781 207.246094 216.507812 207.996094 218.550781 L 212.101562 229.796875 C 212.816406 231.746094 214.765625 232.933594 216.84375 232.675781 L 226.421875 231.496094 C 228.5 231.242188 230.089844 229.621094 230.285156 227.558594 L 231.445312 215.640625 C 231.652344 213.476562 233.113281 211.605469 235.164062 210.875 C 237.042969 210.207031 238.914062 209.449219 240.726562 208.632812 C 242.703125 207.742188 245.070312 208.070312 246.742188 209.46875 L 255.984375 217.203125 C 257.585938 218.546875 259.875 218.605469 261.542969 217.355469 L 269.226562 211.578125 C 270.894531 210.332031 271.449219 208.140625 270.582031 206.253906 L 265.585938 195.367188 C 264.675781 193.386719 264.996094 191.042969 266.398438 189.390625 C 267.671875 187.886719 268.910156 186.300781 270.074219 184.671875 C 271.335938 182.90625 273.550781 182.015625 275.710938 182.402344 L 287.589844 184.519531 C 289.648438 184.886719 291.65625 183.8125 292.464844 181.902344 L 296.203125 173.082031 C 297.011719 171.171875 296.386719 168.996094 294.683594 167.789062 L 284.863281 160.816406 C 283.074219 159.546875 282.167969 157.359375 282.554688 155.242188 C 282.917969 153.257812 283.199219 151.25 283.390625 149.273438 C 283.59375 147.140625 285.058594 145.285156 287.117188 144.550781 L 298.441406 140.503906 C 300.410156 139.800781 301.597656 137.875 301.335938 135.820312 L 300.121094 126.316406 C 299.855469 124.257812 298.21875 122.675781 296.136719 122.472656 L 284.113281 121.296875 C 281.9375 121.082031 280.046875 119.628906 279.308594 117.597656 C 278.628906 115.734375 277.863281 113.878906 277.035156 112.074219 C 276.125 110.105469 276.453125 107.757812 277.863281 106.09375 L 285.636719 96.945312 C 286.980469 95.363281 287.039062 93.105469 285.773438 91.453125 L 279.933594 83.8125 C 278.664062 82.152344 276.449219 81.597656 274.542969 82.453125 L 263.578125 87.382812 C 261.59375 88.277344 259.230469 87.957031 257.566406 86.5625 C 256.042969 85.292969 254.441406 84.0625 252.800781 82.902344 C 251.015625 81.648438 250.113281 79.445312 250.496094 77.300781 L 252.605469 65.527344 C 252.96875 63.484375 251.878906 61.496094 249.945312 60.6875 L 241.042969 56.960938 C 239.113281 56.148438 236.914062 56.761719 235.699219 58.449219 L 228.699219 68.171875 C 227.421875 69.945312 225.222656 70.839844 223.089844 70.449219 C 221.089844 70.085938 219.066406 69.804688 217.066406 69.609375 C 214.921875 69.398438 213.050781 67.941406 212.304688 65.898438 L 208.195312 54.65625 C 207.484375 52.703125 205.53125 51.515625 203.457031 51.773438 L 193.875 52.953125 C 191.796875 53.210938 190.210938 54.828125 190.011719 56.890625 L 188.859375 68.808594 C 188.648438 70.972656 187.195312 72.84375 185.164062 73.566406 C 183.269531 74.242188 181.378906 75.003906 179.546875 75.828125 C 177.582031 76.714844 175.230469 76.378906 173.554688 74.976562 L 164.3125 67.25 C 162.710938 65.90625 160.425781 65.84375 158.757812 67.097656 L 151.070312 72.871094 C 149.40625 74.121094 148.847656 76.3125 149.714844 78.195312 L 154.714844 89.082031 C 155.625 91.0625 155.304688 93.410156 153.902344 95.0625 C 152.625 96.5625 151.390625 98.152344 150.222656 99.777344 C 148.960938 101.542969 146.75 102.433594 144.589844 102.050781 L 132.710938 99.929688 C 130.648438 99.558594 128.644531 100.640625 127.832031 102.546875 L 124.09375 111.367188 C 123.285156 113.277344 123.910156 115.453125 125.613281 116.664062 L 135.433594 123.632812 C 137.226562 124.902344 138.132812 127.089844 137.746094 129.207031 C 137.382812 131.1875 137.101562 133.195312 136.910156 135.179688 C 136.703125 137.308594 135.238281 139.164062 133.179688 139.898438 L 121.855469 143.945312 C 119.890625 144.648438 118.699219 146.574219 118.964844 148.628906 L 120.179688 158.136719 C 120.441406 160.191406 122.078125 161.773438 124.164062 161.976562 L 136.183594 163.152344 C 138.363281 163.367188 140.246094 164.808594 140.980469 166.828125 C 141.667969 168.710938 142.441406 170.585938 143.277344 172.402344 C 144.179688 174.355469 143.84375 176.695312 142.433594 178.355469 L 134.660156 187.503906 C 133.316406 189.085938 133.261719 191.34375 134.523438 192.996094 L 140.367188 200.636719 C 141.632812 202.296875 143.847656 202.851562 145.757812 201.996094 L 156.71875 197.066406 C 158.707031 196.171875 161.066406 196.496094 162.734375 197.886719 C 164.25 199.15625 165.851562 200.386719 167.5 201.546875 C 169.28125 202.804688 170.1875 205.003906 169.804688 207.148438 L 167.695312 218.925781 C 167.328125 220.964844 168.421875 222.953125 170.351562 223.761719 L 179.253906 227.492188 C 181.1875 228.300781 183.382812 227.6875 184.597656 226.003906 L 191.601562 216.277344 C 192.679688 214.78125 194.417969 213.910156 196.214844 213.910156 Z M 216.277344 233.96875 C 213.894531 233.96875 211.753906 232.507812 210.921875 230.226562 L 206.8125 218.984375 C 206.234375 217.390625 204.777344 216.257812 203.109375 216.09375 C 201.078125 215.894531 199.019531 215.605469 196.984375 215.238281 C 195.328125 214.9375 193.613281 215.632812 192.617188 217.011719 L 185.617188 226.734375 C 184.058594 228.902344 181.242188 229.6875 178.769531 228.652344 L 169.867188 224.921875 C 167.390625 223.882812 165.988281 221.328125 166.457031 218.703125 L 168.566406 206.925781 C 168.863281 205.257812 168.160156 203.550781 166.773438 202.574219 C 165.101562 201.394531 163.472656 200.140625 161.925781 198.851562 C 160.628906 197.765625 158.785156 197.515625 157.234375 198.210938 L 146.269531 203.144531 C 143.828125 204.242188 140.992188 203.523438 139.367188 201.402344 L 133.527344 193.761719 C 131.898438 191.636719 131.972656 188.726562 133.703125 186.6875 L 141.476562 177.542969 C 142.574219 176.25 142.832031 174.441406 142.136719 172.929688 C 141.285156 171.078125 140.5 169.171875 139.800781 167.257812 C 139.230469 165.691406 137.761719 164.570312 136.0625 164.40625 L 124.042969 163.230469 C 121.371094 162.96875 119.269531 160.9375 118.929688 158.292969 L 117.714844 148.789062 C 117.378906 146.140625 118.90625 143.664062 121.433594 142.761719 L 132.757812 138.714844 C 134.359375 138.144531 135.5 136.707031 135.660156 135.054688 C 135.855469 133.039062 136.140625 130.996094 136.507812 128.980469 C 136.808594 127.34375 136.101562 125.648438 134.707031 124.65625 L 124.886719 117.6875 C 122.699219 116.136719 121.898438 113.335938 122.9375 110.878906 L 126.675781 102.058594 C 127.714844 99.601562 130.285156 98.21875 132.929688 98.691406 L 144.808594 100.8125 C 146.492188 101.113281 148.21875 100.417969 149.203125 99.046875 C 150.386719 97.390625 151.644531 95.777344 152.941406 94.246094 C 154.03125 92.964844 154.277344 91.144531 153.574219 89.609375 L 148.574219 78.722656 C 147.457031 76.292969 148.175781 73.472656 150.316406 71.863281 L 158.003906 66.089844 C 160.140625 64.484375 163.066406 64.5625 165.121094 66.28125 L 174.363281 74.015625 C 175.667969 75.109375 177.5 75.371094 179.03125 74.683594 C 180.894531 73.839844 182.8125 73.070312 184.742188 72.382812 C 186.320312 71.820312 187.441406 70.371094 187.605469 68.6875 L 188.761719 56.769531 C 189.019531 54.117188 191.058594 52.03125 193.722656 51.707031 L 203.300781 50.523438 C 205.960938 50.195312 208.460938 51.71875 209.378906 54.222656 L 213.488281 65.464844 C 214.066406 67.058594 215.523438 68.191406 217.191406 68.355469 C 219.222656 68.554688 221.285156 68.84375 223.3125 69.214844 C 224.96875 69.515625 226.6875 68.820312 227.679688 67.4375 L 234.679688 57.714844 C 236.238281 55.550781 239.054688 54.761719 241.527344 55.800781 L 250.433594 59.527344 C 252.90625 60.566406 254.3125 63.125 253.839844 65.746094 L 251.734375 77.523438 C 251.433594 79.191406 252.136719 80.898438 253.523438 81.878906 C 255.191406 83.050781 256.820312 84.304688 258.371094 85.597656 C 259.671875 86.683594 261.511719 86.933594 263.066406 86.238281 L 274.027344 81.304688 C 276.46875 80.207031 279.308594 80.925781 280.933594 83.046875 L 286.773438 90.6875 C 288.398438 92.816406 288.328125 95.722656 286.59375 97.761719 L 278.824219 106.910156 C 277.726562 108.199219 277.472656 110.023438 278.175781 111.550781 C 279.019531 113.382812 279.796875 115.269531 280.488281 117.164062 C 281.0625 118.746094 282.535156 119.878906 284.234375 120.046875 L 296.257812 121.222656 C 298.929688 121.480469 301.03125 123.511719 301.367188 126.15625 L 302.582031 135.660156 C 302.917969 138.308594 301.390625 140.785156 298.867188 141.6875 L 287.539062 145.730469 C 285.9375 146.304688 284.800781 147.742188 284.640625 149.394531 C 284.445312 151.40625 284.160156 153.449219 283.789062 155.46875 C 283.492188 157.109375 284.199219 158.804688 285.589844 159.792969 L 295.414062 166.761719 C 297.601562 168.316406 298.402344 171.113281 297.359375 173.570312 L 293.621094 182.390625 C 292.582031 184.847656 290.011719 186.230469 287.367188 185.757812 L 275.488281 183.636719 C 273.804688 183.339844 272.082031 184.03125 271.097656 185.40625 C 269.910156 187.0625 268.652344 188.675781 267.355469 190.203125 C 266.265625 191.484375 266.019531 193.304688 266.726562 194.839844 L 271.726562 205.726562 C 272.839844 208.15625 272.125 210.976562 269.984375 212.585938 L 262.296875 218.359375 C 260.160156 219.964844 257.230469 219.886719 255.179688 218.167969 L 245.9375 210.433594 C 244.628906 209.34375 242.785156 209.082031 241.242188 209.78125 C 239.398438 210.613281 237.496094 211.378906 235.585938 212.058594 C 233.992188 212.625 232.855469 214.082031 232.695312 215.761719 L 231.539062 227.679688 C 231.28125 230.335938 229.238281 232.417969 226.578125 232.746094 L 216.996094 233.925781 C 216.753906 233.953125 216.519531 233.96875 216.277344 233.96875 " fill-opacity="1" fill-rule="nonzero"/><path fill="#ffffff" d="M 80.851562 140.886719 L 69.613281 159.527344 C 69.460938 159.738281 67.808594 159.679688 65.949219 159.867188 C 65.078125 159.957031 64.171875 160.089844 63.417969 160.210938 C 62.800781 160.3125 62.625 161.121094 63.148438 161.464844 L 65.160156 162.800781 C 69.378906 165.59375 74.386719 167.039062 79.433594 166.699219 C 80.835938 166.601562 82.183594 166.378906 83.378906 166.003906 L 87.683594 164.648438 C 88.328125 164.445312 88.324219 163.527344 87.675781 163.332031 L 82.195312 161.671875 L 86.820312 151.839844 L 80.851562 140.886719 " fill-opacity="1" fill-rule="nonzero"/><path fill="#000000" d="M 80.824219 142.148438 L 70.152344 159.847656 C 70.140625 159.863281 70.132812 159.878906 70.121094 159.894531 C 69.855469 160.265625 69.402344 160.285156 68.054688 160.355469 C 67.476562 160.382812 66.75 160.417969 66.011719 160.492188 C 65.285156 160.566406 64.445312 160.683594 63.519531 160.832031 C 63.5 160.835938 63.476562 160.839844 63.46875 160.878906 C 63.460938 160.921875 63.480469 160.933594 63.496094 160.941406 L 65.507812 162.273438 C 69.6875 165.046875 74.621094 166.394531 79.390625 166.070312 C 80.800781 165.972656 82.078125 165.75 83.191406 165.402344 L 87.496094 164.046875 C 87.515625 164.042969 87.535156 164.035156 87.535156 163.992188 C 87.535156 163.949219 87.515625 163.941406 87.492188 163.933594 L 82.011719 162.269531 C 81.835938 162.21875 81.695312 162.09375 81.621094 161.925781 C 81.546875 161.757812 81.546875 161.566406 81.625 161.402344 L 86.117188 151.863281 Z M 77.992188 167.375 C 73.417969 167.375 68.792969 165.960938 64.8125 163.324219 L 62.800781 161.988281 C 62.34375 161.691406 62.125 161.148438 62.238281 160.617188 C 62.355469 160.082031 62.777344 159.679688 63.316406 159.589844 C 64.269531 159.4375 65.132812 159.320312 65.886719 159.242188 C 66.65625 159.164062 67.398438 159.128906 67.992188 159.097656 C 68.441406 159.078125 68.941406 159.050781 69.1875 159.015625 L 80.316406 140.558594 C 80.429688 140.367188 80.644531 140.253906 80.867188 140.257812 C 81.09375 140.261719 81.296875 140.386719 81.40625 140.585938 L 87.375 151.539062 C 87.46875 151.714844 87.476562 151.925781 87.390625 152.109375 L 83.070312 161.28125 L 87.859375 162.730469 C 88.414062 162.898438 88.789062 163.402344 88.792969 163.984375 C 88.796875 164.566406 88.425781 165.074219 87.871094 165.246094 L 83.566406 166.601562 C 82.359375 166.980469 80.984375 167.222656 79.476562 167.324219 C 78.984375 167.355469 78.488281 167.375 77.992188 167.375 " fill-opacity="1" fill-rule="nonzero"/><path fill="#ffffff" d="M 80.425781 153.523438 C 80.769531 154.007812 81.164062 154.472656 81.609375 154.914062 L 82.402344 155.691406 C 82.402344 155.691406 87.320312 159.816406 89.175781 159.503906 C 91.027344 159.191406 93.796875 153.726562 93.796875 153.726562 C 95.027344 153.933594 95.886719 153.441406 95.984375 153.066406 C 96.082031 152.695312 95.488281 151.3125 95.414062 150.601562 C 95.351562 150.023438 96.664062 147.394531 97.226562 146.265625 C 97.226562 146.265625 100.09375 142.507812 94.609375 137.410156 C 82.042969 125.738281 78.679688 145.496094 78.679688 145.496094 C 78.632812 145.898438 78.597656 146.296875 78.582031 146.695312 L 80.425781 153.523438 " fill-opacity="1" fill-rule="nonzero"/><path fill="#000000" d="M 95.402344 152.84375 Z M 95.367188 152.96875 Z M 88.984375 160.144531 C 86.847656 160.144531 82.816406 156.863281 81.996094 156.171875 C 81.984375 156.164062 81.972656 156.152344 81.960938 156.140625 L 81.167969 155.359375 C 80.339844 154.546875 79.660156 153.617188 79.144531 152.605469 C 78.988281 152.296875 79.113281 151.917969 79.421875 151.761719 C 79.730469 151.601562 80.109375 151.726562 80.265625 152.039062 C 80.71875 152.925781 81.316406 153.746094 82.046875 154.464844 L 82.824219 155.226562 C 84.777344 156.859375 87.996094 159.0625 89.070312 158.882812 C 90.132812 158.703125 92.144531 155.59375 93.234375 153.441406 C 93.359375 153.195312 93.628906 153.0625 93.902344 153.105469 C 94.679688 153.238281 95.195312 153.019531 95.359375 152.890625 C 95.328125 152.6875 95.203125 152.28125 95.117188 151.996094 C 94.976562 151.527344 94.828125 151.046875 94.789062 150.667969 C 94.726562 150.101562 95.21875 148.878906 96.664062 145.984375 C 96.683594 145.949219 96.703125 145.914062 96.726562 145.882812 C 96.824219 145.75 99.144531 142.484375 94.183594 137.871094 C 90.988281 134.90625 88.300781 133.679688 86.195312 134.230469 C 83.011719 135.0625 81.480469 139.820312 80.46875 142.96875 L 80.261719 143.605469 C 80.152344 143.9375 79.796875 144.117188 79.46875 144.007812 C 79.136719 143.902344 78.957031 143.546875 79.066406 143.214844 L 79.269531 142.582031 C 80.367188 139.175781 82.027344 134.019531 85.878906 133.015625 C 88.460938 132.339844 91.460938 133.625 95.035156 136.949219 C 100.480469 142.007812 98.136719 146.03125 97.769531 146.582031 C 96.359375 149.410156 96.050781 150.308594 96.039062 150.5625 C 96.066406 150.792969 96.199219 151.238281 96.320312 151.628906 C 96.554688 152.410156 96.6875 152.867188 96.59375 153.226562 C 96.417969 153.894531 95.464844 154.476562 94.15625 154.398438 C 93.375 155.875 91.136719 159.808594 89.28125 160.125 C 89.1875 160.140625 89.089844 160.144531 88.984375 160.144531 " fill-opacity="1" fill-rule="nonzero"/><path fill="#000000" d="M 106.746094 140.453125 C 105.976562 138.128906 103.820312 136.441406 101.25 136.132812 C 101.515625 135.480469 101.792969 134.480469 101.40625 133.550781 C 100.492188 131.34375 96.589844 131.28125 95.222656 131.257812 C 93.960938 131.238281 91.558594 131.390625 88.761719 132.871094 C 88.59375 132.417969 87.925781 130.777344 86.300781 130.132812 C 83.878906 129.167969 81.460938 131.253906 81.234375 131.453125 C 78.605469 133.789062 77.972656 137.933594 78.15625 141.085938 C 78.257812 142.863281 77.964844 144.789062 78.125 146.039062 C 78.195312 146.589844 79.839844 146.84375 80.394531 146.796875 C 80.507812 146.789062 80.621094 146.777344 80.734375 146.769531 C 81.304688 146.71875 81.726562 146.21875 81.683594 145.648438 C 81.636719 144.996094 81.679688 144.1875 81.972656 143.332031 C 82.136719 142.859375 82.785156 140.929688 83.914062 140.894531 C 84.726562 140.875 85.320312 141.839844 85.402344 141.976562 C 86.074219 143.074219 85.71875 144.347656 85.460938 144.988281 C 85.417969 145.089844 85.425781 145.203125 85.476562 145.296875 C 85.527344 145.394531 85.617188 145.460938 85.722656 145.484375 C 86.191406 145.578125 86.65625 145.332031 86.839844 144.890625 C 86.863281 144.828125 86.890625 144.761719 86.917969 144.691406 C 87.730469 142.5625 87.183594 141.195312 88.019531 140.480469 C 88.480469 140.09375 89.09375 140.117188 89.4375 140.136719 C 91.167969 140.210938 92.1875 141.914062 94.578125 144.875 C 97.550781 148.558594 97.867188 149.007812 98.753906 149.289062 C 101.003906 150.007812 103.707031 148.605469 105.214844 146.84375 C 105.636719 146.351562 107.8125 143.675781 106.746094 140.453125 " fill-opacity="1" fill-rule="nonzero"/><path fill="#ffffff" d="M 19.699219 330.703125 L 17.832031 347.273438 L 24.875 350.207031 L 27.46875 332.144531 L 19.699219 330.703125 " fill-opacity="1" fill-rule="nonzero"/><path fill="#000000" d="M 18.507812 346.871094 L 24.367188 349.316406 L 26.761719 332.648438 L 20.246094 331.441406 Z M 24.875 350.835938 C 24.792969 350.835938 24.710938 350.820312 24.632812 350.789062 L 17.589844 347.855469 C 17.332031 347.746094 17.175781 347.480469 17.207031 347.203125 L 19.074219 330.632812 C 19.09375 330.457031 19.183594 330.300781 19.324219 330.195312 C 19.464844 330.09375 19.640625 330.050781 19.8125 330.082031 L 27.582031 331.523438 C 27.914062 331.585938 28.140625 331.898438 28.089844 332.230469 L 25.496094 350.296875 C 25.46875 350.488281 25.351562 350.65625 25.183594 350.753906 C 25.089844 350.808594 24.980469 350.835938 24.875 350.835938 " fill-opacity="1" fill-rule="nonzero"/><path fill="#99b9ff" d="M 16.191406 345.707031 C 15.96875 347.277344 15.613281 350.191406 15.582031 352.804688 C 15.5625 354.445312 16.792969 355.832031 18.421875 356.039062 C 23.019531 356.628906 33.449219 357.273438 42.335938 356.46875 C 42.945312 356.414062 44.019531 355.96875 44.320312 354.449219 C 45.324219 349.347656 36.453125 348.097656 26.726562 344.394531 C 26.34375 344.25 25.914062 344.335938 25.621094 344.621094 L 24.570312 345.636719 C 23.523438 346.652344 21.964844 346.941406 20.621094 346.367188 L 17.433594 345.007812 C 16.886719 344.773438 16.273438 345.121094 16.191406 345.707031 " fill-opacity="1" fill-rule="nonzero"/><path fill="#000000" d="M 16.191406 345.707031 L 16.195312 345.707031 Z M 17.078125 345.5625 C 17.023438 345.5625 16.976562 345.582031 16.949219 345.597656 C 16.90625 345.621094 16.828125 345.679688 16.8125 345.792969 C 16.601562 347.300781 16.238281 350.214844 16.210938 352.8125 C 16.195312 354.128906 17.179688 355.246094 18.5 355.414062 C 23.242188 356.023438 33.488281 356.640625 42.28125 355.84375 C 42.472656 355.824219 43.4375 355.671875 43.703125 354.328125 C 44.335938 351.121094 40.296875 349.632812 33.109375 347.273438 C 30.988281 346.574219 28.796875 345.855469 26.503906 344.984375 C 26.347656 344.925781 26.175781 344.957031 26.058594 345.070312 L 25.007812 346.089844 C 23.773438 347.285156 21.957031 347.621094 20.375 346.945312 L 17.183594 345.582031 C 17.148438 345.570312 17.113281 345.5625 17.078125 345.5625 Z M 33.078125 357.480469 C 27.089844 357.480469 21.503906 357.066406 18.339844 356.664062 C 16.386719 356.414062 14.929688 354.75 14.953125 352.796875 C 14.984375 350.128906 15.351562 347.15625 15.570312 345.621094 C 15.636719 345.144531 15.914062 344.738281 16.332031 344.503906 C 16.746094 344.269531 17.238281 344.238281 17.675781 344.429688 L 20.867188 345.789062 C 21.984375 346.265625 23.265625 346.027344 24.136719 345.183594 L 25.183594 344.167969 C 25.648438 343.71875 26.339844 343.578125 26.949219 343.808594 C 29.214844 344.671875 31.394531 345.382812 33.5 346.074219 C 40.378906 348.335938 45.8125 350.117188 44.9375 354.570312 C 44.597656 356.292969 43.355469 357.007812 42.394531 357.09375 C 39.367188 357.367188 36.167969 357.480469 33.078125 357.480469 " fill-opacity="1" fill-rule="nonzero"/><path fill="#ffffff" d="M 15.589844 352.414062 C 15.589844 352.414062 15.582031 352.675781 15.582031 352.804688 C 15.5625 354.445312 16.792969 355.832031 18.421875 356.039062 C 23.019531 356.628906 33.449219 357.273438 42.335938 356.46875 C 42.945312 356.414062 44.019531 355.96875 44.320312 354.449219 C 44.410156 353.984375 44.355469 353.144531 44.355469 353.144531 L 43.726562 353.175781 C 34.746094 353.617188 25.746094 353.402344 16.800781 352.53125 L 15.589844 352.414062 " fill-opacity="1" fill-rule="nonzero"/><path fill="#000000" d="M 16.222656 353.105469 C 16.34375 354.289062 17.277344 355.257812 18.5 355.414062 C 23.242188 356.023438 33.488281 356.640625 42.28125 355.84375 C 42.472656 355.824219 43.4375 355.671875 43.703125 354.328125 C 43.730469 354.199219 43.742188 354.003906 43.742188 353.804688 C 34.769531 354.246094 25.683594 354.027344 16.738281 353.15625 Z M 33.078125 357.480469 C 27.089844 357.480469 21.503906 357.066406 18.339844 356.664062 C 16.386719 356.414062 14.929688 354.75 14.953125 352.796875 L 14.960938 352.398438 C 14.964844 352.226562 15.039062 352.058594 15.171875 351.941406 C 15.300781 351.824219 15.472656 351.769531 15.648438 351.785156 L 16.859375 351.902344 C 25.746094 352.773438 34.777344 352.988281 43.695312 352.546875 L 44.324219 352.515625 C 44.664062 352.496094 44.960938 352.757812 44.984375 353.101562 C 44.988281 353.195312 45.042969 354.039062 44.9375 354.570312 C 44.597656 356.292969 43.355469 357.007812 42.394531 357.09375 C 39.367188 357.367188 36.167969 357.480469 33.078125 357.480469 " fill-opacity="1" fill-rule="nonzero"/><path fill="#000000" d="M 28.957031 350.53125 C 28.796875 350.53125 28.636719 350.472656 28.511719 350.351562 C 28.265625 350.105469 28.265625 349.707031 28.511719 349.460938 L 31.925781 346.042969 C 32.171875 345.800781 32.570312 345.800781 32.8125 346.042969 C 33.058594 346.292969 33.058594 346.6875 32.8125 346.933594 L 29.402344 350.347656 C 29.277344 350.472656 29.117188 350.53125 28.957031 350.53125 " fill-opacity="1" fill-rule="nonzero"/><path fill="#000000" d="M 32.308594 350.886719 C 32.152344 350.886719 31.996094 350.828125 31.875 350.710938 C 31.625 350.472656 31.617188 350.074219 31.855469 349.824219 L 34.582031 346.988281 C 34.824219 346.738281 35.222656 346.730469 35.472656 346.972656 C 35.722656 347.210938 35.730469 347.613281 35.488281 347.859375 L 32.761719 350.695312 C 32.640625 350.824219 32.472656 350.886719 32.308594 350.886719 " fill-opacity="1" fill-rule="nonzero"/><path fill="#000000" d="M 45.28125 221.5 C 45.28125 221.5 40.992188 223.988281 39.320312 238.589844 C 37.644531 253.1875 38.203125 270.398438 26.550781 287.464844 C 17.242188 301.097656 18.058594 324.101562 16.707031 339.179688 C 16.640625 339.910156 17.199219 340.539062 17.933594 340.5625 L 26.855469 340.871094 C 27.421875 340.890625 27.933594 340.53125 28.109375 339.992188 C 29.703125 335.046875 37.632812 311.210938 46.542969 297.390625 C 55.957031 282.78125 67.40625 244.867188 67.40625 244.867188 C 67.40625 244.867188 65.28125 235.285156 64.988281 226.097656 C 64.691406 216.910156 45.28125 221.5 45.28125 221.5 " fill-opacity="1" fill-rule="nonzero"/><path fill="#ffffff" d="M 92.855469 289.238281 L 90.496094 305.484375 L 96.792969 305.726562 L 101.910156 290.8125 L 92.855469 289.238281 " fill-opacity="1" fill-rule="nonzero"/><path fill="#000000" d="M 91.21875 304.882812 L 96.351562 305.078125 L 101.078125 291.304688 L 93.382812 289.96875 Z M 96.792969 306.351562 C 96.785156 306.351562 96.777344 306.351562 96.769531 306.351562 L 90.46875 306.113281 C 90.292969 306.105469 90.125 306.023438 90.011719 305.886719 C 89.898438 305.75 89.847656 305.570312 89.875 305.394531 L 92.234375 289.148438 C 92.257812 288.980469 92.347656 288.832031 92.484375 288.730469 C 92.625 288.632812 92.792969 288.589844 92.960938 288.621094 L 102.019531 290.191406 C 102.199219 290.222656 102.359375 290.332031 102.453125 290.488281 C 102.546875 290.648438 102.566406 290.839844 102.503906 291.015625 L 97.386719 305.929688 C 97.300781 306.183594 97.058594 306.351562 96.792969 306.351562 " fill-opacity="1" fill-rule="nonzero"/><path fill="#99b9ff" d="M 90.265625 306.761719 C 90.78125 308.261719 90.875 311.558594 92.035156 313.898438 C 92.761719 315.371094 94.484375 316.042969 96.03125 315.492188 C 100.394531 313.929688 110.894531 309.234375 118.445312 304.480469 C 118.964844 304.15625 119.722656 303.273438 119.296875 301.785156 C 117.878906 296.777344 109.40625 299.691406 99.058594 300.808594 C 98.652344 300.855469 98.308594 301.128906 98.175781 301.515625 L 97.703125 302.894531 C 97.230469 304.277344 95.972656 305.242188 94.515625 305.339844 L 91.054688 305.574219 C 90.464844 305.613281 90.074219 306.203125 90.265625 306.761719 " fill-opacity="1" fill-rule="nonzero"/><path fill="#000000" d="M 114.058594 299.582031 C 112.023438 299.582031 109.351562 299.964844 106.054688 300.476562 C 103.847656 300.816406 101.566406 301.171875 99.128906 301.4375 C 98.964844 301.453125 98.824219 301.5625 98.769531 301.714844 L 98.296875 303.097656 C 97.738281 304.722656 96.273438 305.851562 94.558594 305.96875 L 91.097656 306.203125 C 90.980469 306.210938 90.917969 306.28125 90.890625 306.320312 C 90.863281 306.363281 90.824219 306.449219 90.863281 306.558594 C 91.070312 307.164062 91.203125 307.980469 91.359375 308.925781 C 91.605469 310.398438 91.910156 312.230469 92.597656 313.621094 C 93.179688 314.796875 94.5625 315.347656 95.820312 314.898438 C 99.773438 313.484375 110.371094 308.820312 118.109375 303.949219 C 118.273438 303.847656 119.066406 303.269531 118.695312 301.953125 C 118.195312 300.195312 116.640625 299.582031 114.058594 299.582031 Z M 94.925781 316.3125 C 93.492188 316.3125 92.132812 315.519531 91.46875 314.175781 C 90.699219 312.621094 90.378906 310.683594 90.121094 309.128906 C 89.972656 308.238281 89.847656 307.472656 89.671875 306.964844 C 89.519531 306.515625 89.582031 306.027344 89.84375 305.625 C 90.109375 305.226562 90.535156 304.980469 91.011719 304.949219 L 94.472656 304.710938 C 95.679688 304.628906 96.714844 303.835938 97.109375 302.691406 L 97.582031 301.308594 C 97.792969 300.695312 98.347656 300.253906 98.992188 300.183594 C 101.402344 299.925781 103.667969 299.574219 105.859375 299.234375 C 113.015625 298.121094 118.664062 297.246094 119.902344 301.609375 C 120.382812 303.300781 119.597656 304.5 118.78125 305.015625 C 111.554688 309.5625 101.050781 314.363281 96.242188 316.082031 C 95.808594 316.238281 95.363281 316.3125 94.925781 316.3125 " fill-opacity="1" fill-rule="nonzero"/><path fill="#ffffff" d="M 92.027344 313.339844 C 92.027344 313.339844 92.144531 313.578125 92.199219 313.691406 C 92.929688 315.164062 94.652344 315.835938 96.195312 315.285156 C 100.5625 313.722656 110.894531 309.234375 118.445312 304.480469 C 118.964844 304.15625 119.722656 303.273438 119.296875 301.785156 C 119.167969 301.324219 118.738281 300.601562 118.738281 300.601562 L 118.191406 300.917969 C 110.390625 305.386719 102.273438 309.28125 93.902344 312.566406 L 92.027344 313.339844 " fill-opacity="1" fill-rule="nonzero"/><path fill="#000000" d="M 92.902344 313.660156 C 93.546875 314.664062 94.824219 315.109375 95.984375 314.691406 C 99.808594 313.324219 110.246094 308.898438 118.109375 303.949219 C 118.273438 303.847656 119.066406 303.269531 118.695312 301.953125 C 118.65625 301.824219 118.578125 301.648438 118.492188 301.46875 C 110.695312 305.9375 102.5 309.867188 94.132812 313.152344 Z M 95.09375 316.105469 C 93.660156 316.105469 92.300781 315.3125 91.636719 313.96875 L 91.464844 313.613281 C 91.386719 313.457031 91.378906 313.277344 91.441406 313.117188 C 91.503906 312.953125 91.628906 312.824219 91.789062 312.757812 L 93.664062 311.984375 C 101.988281 308.71875 110.128906 304.8125 117.878906 300.371094 L 118.425781 300.058594 C 118.722656 299.886719 119.101562 299.988281 119.277344 300.28125 C 119.324219 300.363281 119.753906 301.089844 119.902344 301.613281 C 120.382812 303.300781 119.597656 304.5 118.78125 305.015625 C 110.828125 310.019531 100.273438 314.492188 96.410156 315.875 C 95.976562 316.03125 95.53125 316.105469 95.09375 316.105469 " fill-opacity="1" fill-rule="nonzero"/><path fill="#000000" d="M 103.546875 305.335938 C 103.484375 305.335938 103.417969 305.328125 103.351562 305.304688 C 103.023438 305.199219 102.839844 304.84375 102.949219 304.515625 L 104.441406 299.921875 C 104.546875 299.589844 104.902344 299.410156 105.234375 299.515625 C 105.5625 299.625 105.742188 299.976562 105.636719 300.308594 L 104.144531 304.902344 C 104.058594 305.167969 103.8125 305.335938 103.546875 305.335938 " fill-opacity="1" fill-rule="nonzero"/><path fill="#000000" d="M 106.695312 304.132812 C 106.636719 304.132812 106.574219 304.121094 106.511719 304.105469 C 106.179688 304 105.992188 303.652344 106.09375 303.320312 L 107.238281 299.554688 C 107.339844 299.222656 107.691406 299.035156 108.023438 299.136719 C 108.355469 299.238281 108.542969 299.589844 108.441406 299.921875 L 107.296875 303.683594 C 107.214844 303.957031 106.964844 304.132812 106.695312 304.132812 " fill-opacity="1" fill-rule="nonzero"/><path fill="#000000" d="M 60.257812 245.925781 C 60.257812 245.925781 81.292969 252.191406 103.667969 240.167969 C 104.328125 239.8125 105.03125 240.570312 104.628906 241.207031 C 103.503906 242.984375 100.285156 247.367188 98.605469 251.929688 C 96.535156 257.546875 92.167969 286.605469 90.730469 295.648438 C 90.601562 296.464844 91.214844 297.207031 92.042969 297.234375 L 100.644531 297.515625 C 101.1875 297.535156 101.691406 297.230469 101.925781 296.738281 C 105.03125 290.269531 127.125 239.507812 126.351562 230.023438 C 125.515625 219.769531 111.988281 220.292969 107.109375 219.980469 C 102.058594 219.652344 61.800781 220.59375 61.800781 220.59375 L 60.257812 245.925781 " fill-opacity="1" fill-rule="nonzero"/><path fill="#ffffff" d="M 149.695312 152.308594 C 148.765625 152.855469 147.59375 153.46875 146.613281 153.929688 C 145.347656 154.527344 140.046875 159.519531 140.046875 159.519531 L 135.113281 156.023438 C 135.113281 156.023438 139.265625 152.441406 139.441406 149.992188 C 139.605469 147.707031 140.710938 143.152344 144.886719 141.03125 C 145.367188 140.789062 146.167969 140.964844 146.410156 141.117188 C 147.140625 141.585938 146.765625 142.695312 146.121094 143.277344 L 144.300781 144.914062 C 144.144531 145.058594 144.214844 145.320312 144.425781 145.363281 C 145.289062 145.539062 147.285156 145.652344 150.007812 143.988281 C 152.101562 142.707031 156.410156 139.714844 157.148438 140.726562 C 158.457031 142.527344 154.78125 149.3125 149.695312 152.308594 " fill-opacity="1" fill-rule="nonzero"/><path fill="#000000" d="M 149.695312 152.308594 L 149.699219 152.308594 Z M 136.117188 155.960938 L 139.988281 158.710938 C 141.289062 157.496094 145.1875 153.90625 146.347656 153.359375 C 147.324219 152.902344 148.484375 152.289062 149.375 151.765625 C 153.054688 149.597656 156.132812 145.207031 156.703125 142.464844 C 156.867188 141.671875 156.753906 141.300781 156.667969 141.148438 C 155.886719 141.015625 152.761719 142.996094 151.410156 143.847656 C 151.015625 144.097656 150.652344 144.332031 150.335938 144.523438 C 147.472656 146.273438 145.324219 146.1875 144.300781 145.980469 C 143.96875 145.914062 143.707031 145.667969 143.617188 145.34375 C 143.53125 145.015625 143.632812 144.671875 143.882812 144.445312 L 145.703125 142.808594 C 145.992188 142.546875 146.203125 142.121094 146.179688 141.839844 C 146.171875 141.734375 146.132812 141.6875 146.070312 141.648438 C 145.917969 141.566406 145.390625 141.480469 145.171875 141.59375 C 140.726562 143.847656 140.140625 149.023438 140.066406 150.035156 C 139.914062 152.164062 137.339844 154.816406 136.117188 155.960938 Z M 140.046875 160.148438 C 139.917969 160.148438 139.792969 160.109375 139.683594 160.03125 L 134.75 156.53125 C 134.589844 156.421875 134.492188 156.246094 134.484375 156.050781 C 134.476562 155.859375 134.554688 155.671875 134.703125 155.542969 C 135.800781 154.597656 138.6875 151.742188 138.816406 149.945312 C 139.050781 146.664062 140.695312 142.453125 144.605469 140.472656 C 145.332031 140.101562 146.375 140.347656 146.75 140.589844 C 147.152344 140.847656 147.394531 141.253906 147.433594 141.738281 C 147.488281 142.417969 147.136719 143.207031 146.542969 143.742188 L 145.339844 144.828125 C 146.265625 144.84375 147.777344 144.613281 149.679688 143.449219 C 149.992188 143.261719 150.351562 143.03125 150.738281 142.785156 C 154.328125 140.511719 156.75 139.113281 157.652344 140.355469 C 158.050781 140.898438 158.144531 141.695312 157.933594 142.71875 C 157.3125 145.710938 154.109375 150.4375 150.011719 152.851562 C 149.078125 153.402344 147.90625 154.019531 146.878906 154.5 C 146.023438 154.902344 142.496094 158.074219 140.476562 159.976562 C 140.355469 160.089844 140.199219 160.148438 140.046875 160.148438 " fill-opacity="1" fill-rule="nonzero"/><path fill="#99b9ff" d="M 140.953125 159.292969 L 137.195312 152.957031 C 136.578125 151.910156 134.628906 151.597656 133.660156 152.320312 C 112.414062 168.164062 89.8125 161.703125 86.316406 160.871094 C 77.652344 158.804688 73.289062 158.488281 66.453125 158.074219 C 66.453125 158.074219 66.40625 158.070312 66.304688 158.066406 C 66.246094 158.0625 66.191406 158.0625 66.128906 158.0625 C 66.039062 158.058594 65.9375 158.058594 65.820312 158.058594 C 62.292969 158.066406 45.210938 159.679688 46.457031 190.214844 C 46.472656 190.226562 46.480469 190.238281 46.496094 190.253906 C 46.53125 191.191406 46.707031 192.152344 46.746094 193.140625 C 46.730469 193.292969 46.726562 193.4375 46.726562 193.597656 L 46.726562 193.613281 C 46.726562 193.707031 46.671875 193.808594 46.65625 193.90625 L 46.632812 193.976562 L 45.835938 200.183594 L 45.5 202.820312 C 44.828125 208.222656 44.09375 214.71875 43.746094 220.976562 C 43.652344 222.632812 44.796875 224.105469 46.425781 224.40625 L 52.464844 225.523438 C 62.996094 227.976562 72.867188 225.242188 77.21875 223.6875 C 78.550781 223.21875 79.191406 221.929688 79.394531 220.527344 C 79.730469 218.210938 84.402344 199.582031 92.925781 187.269531 C 94.003906 185.714844 95.628906 184.644531 97.507812 184.53125 C 105.109375 184.089844 126.738281 181.046875 140.863281 161.25 C 141.277344 160.667969 141.316406 159.910156 140.953125 159.292969 " fill-opacity="1" fill-rule="nonzero"/><path fill="#000000" d="M 47.246094 194.125 L 46.121094 202.898438 C 45.496094 207.953125 44.730469 214.574219 44.375 221.007812 C 44.296875 222.351562 45.230469 223.542969 46.542969 223.789062 L 52.582031 224.902344 C 62.78125 227.28125 72.261719 224.792969 77.003906 223.097656 C 78.210938 222.671875 78.632812 221.414062 78.773438 220.4375 C 79.074219 218.359375 83.664062 199.546875 92.410156 186.910156 C 93.652344 185.121094 95.496094 184.023438 97.46875 183.90625 C 105.769531 183.421875 126.558594 180.214844 140.351562 160.882812 C 140.621094 160.503906 140.644531 160.007812 140.414062 159.617188 L 136.65625 153.277344 C 136.46875 152.960938 136.046875 152.714844 135.523438 152.605469 C 134.949219 152.492188 134.367188 152.578125 134.035156 152.824219 C 120.710938 162.761719 103.886719 165.875 86.65625 161.601562 C 86.46875 161.554688 86.304688 161.515625 86.171875 161.484375 C 77.6875 159.460938 73.351562 159.125 66.414062 158.703125 C 66.382812 158.699219 66.347656 158.699219 66.277344 158.695312 C 66.210938 158.691406 66.171875 158.691406 66.128906 158.691406 C 66.027344 158.6875 65.933594 158.6875 65.824219 158.6875 C 64.21875 158.691406 58.632812 159.078125 54.019531 163.894531 C 48.945312 169.191406 46.613281 177.984375 47.078125 190.023438 C 47.105469 190.085938 47.117188 190.15625 47.121094 190.226562 C 47.140625 190.664062 47.1875 191.113281 47.242188 191.585938 C 47.296875 192.078125 47.351562 192.59375 47.375 193.117188 C 47.375 193.148438 47.375 193.179688 47.371094 193.210938 C 47.355469 193.339844 47.355469 193.464844 47.355469 193.597656 C 47.355469 193.765625 47.316406 193.890625 47.289062 193.972656 C 47.285156 194.015625 47.265625 194.078125 47.25 194.117188 Z M 61.304688 227.140625 C 58.445312 227.140625 55.417969 226.855469 52.324219 226.136719 L 46.3125 225.023438 C 44.378906 224.667969 43.007812 222.910156 43.121094 220.9375 C 43.476562 214.46875 44.246094 207.816406 44.875 202.746094 L 46.007812 193.898438 C 46.015625 193.851562 46.023438 193.808594 46.039062 193.765625 L 46.050781 193.738281 C 46.0625 193.6875 46.078125 193.632812 46.09375 193.582031 C 46.097656 193.574219 46.097656 193.570312 46.097656 193.566406 C 46.101562 193.40625 46.101562 193.269531 46.117188 193.121094 C 46.09375 192.65625 46.042969 192.183594 45.992188 191.722656 C 45.945312 191.304688 45.898438 190.875 45.875 190.445312 C 45.847656 190.382812 45.832031 190.3125 45.828125 190.238281 C 45.320312 177.757812 47.769531 168.601562 53.113281 163.023438 C 58.066406 157.847656 64.089844 157.433594 65.820312 157.429688 C 65.945312 157.429688 66.050781 157.429688 66.144531 157.433594 C 66.207031 157.433594 66.277344 157.433594 66.351562 157.441406 C 66.457031 157.445312 66.515625 157.449219 66.515625 157.449219 C 73.496094 157.875 77.878906 158.210938 86.460938 160.261719 C 86.597656 160.292969 86.765625 160.335938 86.960938 160.382812 C 104.0625 164.625 120.078125 161.664062 133.28125 151.816406 C 133.90625 151.351562 134.835938 151.1875 135.769531 151.375 C 136.652344 151.550781 137.367188 152.011719 137.738281 152.636719 L 141.492188 158.976562 C 141.980469 159.792969 141.933594 160.832031 141.375 161.617188 C 127.265625 181.386719 106.023438 184.667969 97.542969 185.160156 C 95.960938 185.253906 94.464844 186.152344 93.445312 187.628906 C 85.367188 199.296875 80.457031 217.582031 80.015625 220.621094 C 79.746094 222.484375 78.828125 223.785156 77.425781 224.28125 C 73.992188 225.511719 68.132812 227.140625 61.304688 227.140625 " fill-opacity="1" fill-rule="nonzero"/><path fill="#99b9ff" d="M 313.273438 342.285156 C 313.273438 342.285156 322.859375 339.285156 338.558594 308.804688 C 351.816406 283.074219 339.996094 258.203125 337.613281 241.570312 C 337.367188 239.871094 335.046875 239.628906 334.476562 241.242188 C 330.503906 252.417969 324.105469 272.742188 325.140625 285.253906 C 326.632812 303.285156 313.273438 342.285156 313.273438 342.285156 " fill-opacity="1" fill-rule="nonzero"/><path fill="#000000" d="M 335.992188 240.785156 C 335.640625 240.785156 335.242188 240.957031 335.066406 241.457031 C 331.152344 252.460938 324.742188 272.785156 325.765625 285.203125 C 327.101562 301.375 316.824219 333.582031 314.367188 340.996094 C 317.457031 339.035156 325.925781 331.953125 338 308.515625 C 348.140625 288.832031 343.445312 269.644531 339.679688 254.230469 C 338.578125 249.722656 337.535156 245.464844 336.992188 241.664062 C 336.90625 241.078125 336.472656 240.828125 336.097656 240.792969 C 336.0625 240.789062 336.027344 240.785156 335.992188 240.785156 Z M 313.269531 342.914062 C 313.105469 342.914062 312.941406 342.84375 312.820312 342.722656 C 312.65625 342.550781 312.601562 342.304688 312.679688 342.082031 C 312.808594 341.691406 325.976562 303 324.515625 285.308594 C 323.46875 272.652344 329.933594 252.136719 333.878906 241.03125 C 334.234375 240.035156 335.179688 239.4375 336.222656 239.539062 C 337.273438 239.644531 338.082031 240.425781 338.234375 241.484375 C 338.769531 245.226562 339.804688 249.457031 340.898438 253.929688 C 344.71875 269.550781 349.472656 288.992188 339.117188 309.089844 C 323.472656 339.457031 313.859375 342.757812 313.457031 342.882812 C 313.398438 342.90625 313.332031 342.914062 313.269531 342.914062 " fill-opacity="1" fill-rule="nonzero"/><path fill="#ffffff" d="M 323.664062 325.617188 L 327.074219 298.609375 C 328.558594 286.882812 326.640625 274.976562 321.554688 264.328125 C 314.144531 248.816406 313.566406 230.867188 319.953125 214.898438 L 325.4375 201.191406 C 326.128906 199.460938 323.925781 198.050781 322.671875 199.429688 L 314.96875 207.90625 C 297.5 227.136719 291.601562 254.359375 299.523438 279.203125 L 313.714844 323.703125 L 323.664062 325.617188 " fill-opacity="1" fill-rule="nonzero"/><path fill="#000000" d="M 314.195312 323.160156 L 323.121094 324.875 L 326.453125 298.53125 C 327.921875 286.894531 326.03125 275.164062 320.988281 264.597656 C 313.519531 248.960938 312.929688 230.761719 319.371094 214.664062 L 324.855469 200.957031 C 325.097656 200.351562 324.78125 199.882812 324.441406 199.667969 C 324.089844 199.449219 323.5625 199.382812 323.136719 199.851562 L 315.433594 208.328125 C 298.152344 227.351562 292.285156 254.4375 300.121094 279.011719 Z M 323.664062 326.246094 C 323.621094 326.246094 323.582031 326.242188 323.542969 326.234375 L 313.59375 324.320312 C 313.367188 324.277344 313.183594 324.113281 313.113281 323.894531 L 298.921875 279.394531 C 290.953125 254.394531 296.921875 226.835938 314.503906 207.484375 L 322.207031 199.007812 C 322.972656 198.160156 324.140625 198 325.105469 198.601562 C 325.917969 199.113281 326.515625 200.183594 326.019531 201.425781 L 320.535156 215.132812 C 314.226562 230.90625 314.804688 248.738281 322.121094 264.058594 C 327.269531 274.839844 329.203125 286.8125 327.699219 298.6875 L 324.285156 325.699219 C 324.261719 325.867188 324.171875 326.023438 324.03125 326.128906 C 323.921875 326.207031 323.792969 326.246094 323.664062 326.246094 " fill-opacity="1" fill-rule="nonzero"/><path fill="#caddff" d="M 319.257812 326.503906 L 307.414062 296.234375 C 304.046875 287.625 296.957031 281.046875 288.175781 278.386719 L 280.097656 275.941406 C 278.136719 275.34375 276.820312 277.9375 278.441406 279.199219 L 283.40625 283.0625 C 288.785156 287.246094 291.996094 293.667969 292.136719 300.523438 C 292.21875 304.550781 293.367188 308.484375 295.457031 311.917969 L 303.484375 325.085938 L 319.257812 326.503906 " fill-opacity="1" fill-rule="nonzero"/><path fill="#000000" d="M 303.855469 324.488281 L 318.304688 325.785156 L 306.832031 296.464844 C 303.507812 287.980469 296.644531 281.609375 287.992188 278.988281 L 279.917969 276.539062 C 279.210938 276.324219 278.71875 276.714844 278.492188 277.148438 C 278.273438 277.574219 278.230469 278.234375 278.832031 278.703125 L 283.792969 282.566406 C 289.351562 286.886719 292.621094 293.429688 292.765625 300.511719 C 292.847656 304.421875 293.960938 308.253906 295.996094 311.589844 Z M 319.261719 327.132812 C 319.242188 327.132812 319.222656 327.128906 319.203125 327.128906 L 303.425781 325.710938 C 303.230469 325.695312 303.050781 325.585938 302.945312 325.414062 L 294.921875 312.246094 C 292.777344 308.722656 291.597656 304.671875 291.507812 300.535156 C 291.371094 293.835938 288.277344 287.648438 283.023438 283.558594 L 278.058594 279.695312 C 276.925781 278.8125 276.902344 277.492188 277.375 276.570312 C 277.847656 275.664062 278.929688 274.925781 280.28125 275.335938 L 288.359375 277.785156 C 297.382812 280.519531 304.539062 287.160156 308 296.003906 L 319.84375 326.273438 C 319.925781 326.476562 319.894531 326.707031 319.761719 326.878906 C 319.644531 327.039062 319.457031 327.132812 319.261719 327.132812 " fill-opacity="1" fill-rule="nonzero"/><path fill="#caddff" d="M 317.507812 312.910156 C 317.488281 312.910156 317.46875 312.910156 317.449219 312.90625 C 317.101562 312.875 316.847656 312.570312 316.882812 312.222656 C 318.683594 292.933594 314.8125 280.507812 311.390625 269.542969 C 309.808594 264.464844 308.3125 259.664062 307.421875 254.5 C 303.21875 230.097656 317.546875 208.925781 317.691406 208.714844 C 317.886719 208.429688 318.277344 208.355469 318.566406 208.554688 C 318.851562 208.753906 318.921875 209.144531 318.726562 209.429688 C 318.582031 209.636719 304.546875 230.398438 308.660156 254.285156 C 309.535156 259.371094 311.019531 264.128906 312.589844 269.171875 C 316.042969 280.246094 319.957031 292.796875 318.132812 312.339844 C 318.101562 312.667969 317.828125 312.910156 317.507812 312.910156 " fill-opacity="1" fill-rule="nonzero"/><path fill="#caddff" d="M 333.285156 299.988281 C 333.25 299.988281 333.21875 299.984375 333.179688 299.976562 C 332.835938 299.921875 332.609375 299.59375 332.664062 299.253906 C 335.886719 280.183594 334.773438 250.816406 334.761719 250.523438 C 334.746094 250.171875 335.015625 249.882812 335.363281 249.867188 C 335.722656 249.863281 336 250.125 336.015625 250.472656 C 336.027344 250.765625 337.148438 280.265625 333.90625 299.460938 C 333.851562 299.769531 333.585938 299.988281 333.285156 299.988281 " fill-opacity="1" fill-rule="nonzero"/><path fill="#99b9ff" d="M 305 315.804688 C 304.65625 315.804688 304.378906 315.523438 304.375 315.179688 C 304.144531 291.542969 285.261719 281.132812 285.070312 281.03125 C 284.765625 280.863281 284.652344 280.484375 284.816406 280.179688 C 284.976562 279.875 285.359375 279.757812 285.667969 279.921875 C 285.867188 280.027344 290.671875 282.636719 295.574219 288.296875 C 300.09375 293.519531 305.507812 302.417969 305.628906 315.167969 C 305.632812 315.515625 305.355469 315.800781 305.007812 315.804688 C 305.003906 315.804688 305.003906 315.804688 305 315.804688 " fill-opacity="1" fill-rule="nonzero"/><path fill="#caddff" d="M 307.574219 271.308594 C 307.386719 271.308594 307.203125 271.226562 307.074219 271.066406 C 301.910156 264.429688 299.691406 255.738281 299.601562 255.371094 C 299.515625 255.035156 299.71875 254.691406 300.058594 254.609375 C 300.390625 254.527344 300.734375 254.730469 300.820312 255.066406 C 300.84375 255.152344 303.070312 263.871094 308.070312 270.292969 C 308.28125 270.566406 308.230469 270.964844 307.960938 271.175781 C 307.84375 271.265625 307.707031 271.308594 307.574219 271.308594 " fill-opacity="1" fill-rule="nonzero"/><path fill="#5479f7" d="M 331.910156 361.671875 L 301.003906 361.671875 C 297.144531 361.671875 294.019531 358.542969 294.019531 354.6875 L 294.019531 319.183594 L 338.894531 319.183594 L 338.894531 354.6875 C 338.894531 358.542969 335.765625 361.671875 331.910156 361.671875 " fill-opacity="1" fill-rule="nonzero"/><path fill="#000000" d="M 294.648438 319.8125 L 294.648438 340.304688 C 294.648438 351.738281 303.945312 361.042969 315.375 361.042969 L 317.535156 361.042969 C 328.964844 361.042969 338.265625 351.738281 338.265625 340.304688 L 338.265625 319.8125 Z M 317.535156 362.300781 L 315.375 362.300781 C 303.253906 362.300781 293.390625 352.433594 293.390625 340.304688 L 293.390625 319.183594 C 293.390625 318.839844 293.671875 318.558594 294.019531 318.558594 L 338.894531 318.558594 C 339.242188 318.558594 339.523438 318.839844 339.523438 319.183594 L 339.523438 340.304688 C 339.523438 352.433594 329.660156 362.300781 317.535156 362.300781 " fill-opacity="1" fill-rule="nonzero"/><path fill="#99b9ff" d="M 334.492188 327.316406 L 298.414062 327.316406 C 298.070312 327.316406 297.785156 327.035156 297.785156 326.6875 C 297.785156 326.339844 298.070312 326.058594 298.414062 326.058594 L 334.492188 326.058594 C 334.839844 326.058594 335.121094 326.339844 335.121094 326.6875 C 335.121094 327.035156 334.839844 327.316406 334.492188 327.316406 " fill-opacity="1" fill-rule="nonzero"/><path fill="#000000" d="M 333.957031 85.976562 C 333.746094 85.976562 333.539062 85.867188 333.417969 85.671875 C 320.082031 63.511719 303.195312 51.671875 291.375 45.644531 C 278.554688 39.105469 268.761719 37.796875 268.667969 37.785156 C 268.324219 37.742188 268.082031 37.425781 268.125 37.082031 C 268.167969 36.738281 268.484375 36.492188 268.828125 36.539062 C 268.925781 36.550781 278.890625 37.878906 291.890625 44.496094 C 303.875 50.597656 320.992188 62.582031 334.496094 85.023438 C 334.675781 85.320312 334.578125 85.707031 334.28125 85.886719 C 334.179688 85.945312 334.070312 85.976562 333.957031 85.976562 " fill-opacity="1" fill-rule="nonzero"/><path fill="#000000" d="M 324.015625 85.710938 C 323.816406 85.710938 323.621094 85.621094 323.5 85.445312 C 305.59375 60.230469 292.359375 56.839844 292.230469 56.804688 C 291.890625 56.726562 291.683594 56.386719 291.765625 56.050781 C 291.84375 55.710938 292.179688 55.503906 292.519531 55.582031 C 293.074219 55.714844 306.34375 59.117188 324.523438 84.71875 C 324.726562 85.003906 324.660156 85.394531 324.375 85.597656 C 324.265625 85.675781 324.140625 85.710938 324.015625 85.710938 " fill-opacity="1" fill-rule="nonzero"/><path fill="#000000" d="M 281.65625 52.679688 C 281.539062 52.679688 281.417969 52.644531 281.316406 52.578125 C 281.023438 52.386719 280.941406 52 281.132812 51.707031 L 282.691406 49.316406 C 282.882812 49.023438 283.269531 48.945312 283.5625 49.132812 C 283.851562 49.324219 283.933594 49.710938 283.742188 50.003906 L 282.183594 52.394531 C 282.066406 52.578125 281.863281 52.679688 281.65625 52.679688 " fill-opacity="1" fill-rule="nonzero"/><path fill="#000000" d="M 276.199219 61.046875 C 276.082031 61.046875 275.960938 61.011719 275.855469 60.945312 C 275.5625 60.753906 275.480469 60.367188 275.671875 60.074219 L 277.230469 57.683594 C 277.421875 57.394531 277.8125 57.3125 278.101562 57.503906 C 278.390625 57.691406 278.472656 58.082031 278.285156 58.371094 L 276.722656 60.761719 C 276.605469 60.949219 276.402344 61.046875 276.199219 61.046875 " fill-opacity="1" fill-rule="nonzero"/><path fill="#000000" d="M 276.792969 53.703125 C 276.671875 53.703125 276.550781 53.667969 276.445312 53.597656 L 274.113281 52.023438 C 273.824219 51.832031 273.75 51.4375 273.941406 51.152344 C 274.136719 50.863281 274.527344 50.789062 274.816406 50.980469 L 277.144531 52.554688 C 277.433594 52.746094 277.507812 53.136719 277.316406 53.425781 C 277.195312 53.605469 276.996094 53.703125 276.792969 53.703125 " fill-opacity="1" fill-rule="nonzero"/><path fill="#000000" d="M 284.949219 59.203125 C 284.828125 59.203125 284.710938 59.171875 284.601562 59.097656 L 282.269531 57.527344 C 281.980469 57.332031 281.90625 56.941406 282.097656 56.652344 C 282.292969 56.363281 282.683594 56.289062 282.972656 56.484375 L 285.304688 58.054688 C 285.589844 58.25 285.667969 58.640625 285.472656 58.929688 C 285.351562 59.105469 285.152344 59.203125 284.949219 59.203125 " fill-opacity="1" fill-rule="nonzero"/><path fill="#000000" d="M 51.792969 131.796875 C 51.71875 131.796875 51.648438 131.785156 51.574219 131.757812 C 51.25 131.636719 51.082031 131.273438 51.203125 130.949219 C 55.636719 118.988281 65.46875 96.792969 81.492188 82.523438 C 81.75 82.292969 82.148438 82.316406 82.378906 82.578125 C 82.609375 82.835938 82.585938 83.234375 82.328125 83.464844 C 66.507812 97.550781 56.777344 119.535156 52.382812 131.386719 C 52.289062 131.640625 52.046875 131.796875 51.792969 131.796875 " fill-opacity="1" fill-rule="nonzero"/><path fill="#000000" d="M 40.679688 146.039062 C 40.628906 146.039062 40.578125 146.035156 40.527344 146.019531 C 40.191406 145.9375 39.984375 145.59375 40.070312 145.257812 C 46.316406 120.367188 57.296875 105.976562 57.40625 105.832031 C 57.621094 105.558594 58.015625 105.507812 58.289062 105.722656 C 58.5625 105.933594 58.613281 106.328125 58.402344 106.601562 C 58.292969 106.742188 47.464844 120.949219 41.289062 145.5625 C 41.21875 145.847656 40.960938 146.039062 40.679688 146.039062 " fill-opacity="1" fill-rule="nonzero"/><path fill="#000000" d="M 89.953125 74.46875 L 89.957031 74.46875 Z M 90.871094 74.964844 C 90.625 74.964844 90.375 75 90.128906 75.074219 C 89.453125 75.269531 88.894531 75.71875 88.554688 76.335938 C 88.214844 76.957031 88.136719 77.667969 88.335938 78.34375 C 88.742188 79.742188 90.210938 80.546875 91.605469 80.140625 C 93.003906 79.730469 93.808594 78.265625 93.398438 76.867188 C 93.203125 76.191406 92.753906 75.628906 92.136719 75.289062 C 91.742188 75.074219 91.308594 74.964844 90.871094 74.964844 Z M 90.867188 81.503906 C 89.183594 81.503906 87.625 80.398438 87.128906 78.695312 C 86.835938 77.699219 86.953125 76.644531 87.453125 75.730469 C 87.953125 74.820312 88.777344 74.15625 89.777344 73.867188 C 90.777344 73.574219 91.828125 73.6875 92.742188 74.191406 C 93.652344 74.691406 94.316406 75.515625 94.605469 76.515625 C 94.898438 77.515625 94.78125 78.566406 94.28125 79.480469 C 93.78125 80.390625 92.957031 81.054688 91.957031 81.347656 C 91.59375 81.453125 91.230469 81.503906 90.867188 81.503906 " fill-opacity="1" fill-rule="nonzero"/><path fill="#000000" d="M 42.085938 158.050781 C 41.960938 158.050781 41.832031 158.011719 41.722656 157.933594 L 40.273438 156.902344 C 39.992188 156.703125 39.925781 156.3125 40.125 156.027344 C 40.328125 155.746094 40.71875 155.675781 41.003906 155.878906 L 42.449219 156.90625 C 42.734375 157.109375 42.800781 157.503906 42.597656 157.785156 C 42.476562 157.957031 42.28125 158.050781 42.085938 158.050781 " fill-opacity="1" fill-rule="nonzero"/><path fill="#000000" d="M 37.019531 154.445312 C 36.890625 154.445312 36.765625 154.410156 36.65625 154.332031 L 35.207031 153.300781 C 34.925781 153.101562 34.859375 152.707031 35.058594 152.425781 C 35.261719 152.140625 35.652344 152.074219 35.933594 152.277344 L 37.382812 153.304688 C 37.664062 153.507812 37.730469 153.898438 37.53125 154.183594 C 37.410156 154.355469 37.214844 154.445312 37.019531 154.445312 " fill-opacity="1" fill-rule="nonzero"/><path fill="#000000" d="M 40.121094 153.96875 C 39.992188 153.96875 39.863281 153.929688 39.75 153.847656 C 39.46875 153.644531 39.410156 153.25 39.613281 152.96875 L 40.648438 151.554688 C 40.855469 151.277344 41.25 151.214844 41.527344 151.421875 C 41.808594 151.625 41.867188 152.019531 41.664062 152.300781 L 40.628906 153.710938 C 40.503906 153.878906 40.316406 153.96875 40.121094 153.96875 " fill-opacity="1" fill-rule="nonzero"/><path fill="#000000" d="M 36.5 158.910156 C 36.371094 158.910156 36.242188 158.871094 36.128906 158.789062 C 35.847656 158.585938 35.789062 158.191406 35.992188 157.910156 L 37.027344 156.5 C 37.234375 156.21875 37.628906 156.15625 37.90625 156.363281 C 38.1875 156.566406 38.246094 156.960938 38.042969 157.242188 L 37.007812 158.652344 C 36.882812 158.820312 36.695312 158.910156 36.5 158.910156 " fill-opacity="1" fill-rule="nonzero"/><path fill="#000000" d="M 335.976562 136 C 335.863281 136 335.753906 136.011719 335.640625 136.027344 C 335.078125 136.113281 334.582031 136.417969 334.246094 136.878906 C 333.910156 137.339844 333.773438 137.90625 333.859375 138.46875 C 333.949219 139.03125 334.253906 139.527344 334.714844 139.863281 C 335.660156 140.558594 337 140.351562 337.695312 139.398438 C 338.390625 138.445312 338.183594 137.109375 337.230469 136.414062 C 336.859375 136.144531 336.425781 136 335.976562 136 Z M 335.96875 141.53125 C 335.273438 141.53125 334.574219 141.320312 333.972656 140.878906 C 333.238281 140.34375 332.761719 139.558594 332.617188 138.664062 C 332.480469 137.765625 332.699219 136.871094 333.230469 136.136719 C 333.765625 135.40625 334.550781 134.925781 335.445312 134.785156 C 336.34375 134.644531 337.242188 134.863281 337.96875 135.398438 C 339.480469 136.5 339.8125 138.628906 338.710938 140.140625 C 338.046875 141.046875 337.011719 141.53125 335.96875 141.53125 " fill-opacity="1" fill-rule="nonzero"/></svg>